<svg width="152" height="34" viewBox="0 0 152 34" fill="none" xmlns="http://www.w3.org/2000/svg">
<path d="M74.9658 12.9269V0H83.0381V3.00026H78.3286V12.9269H74.9658Z" fill="#CF0077"/>
<path d="M93.1967 12.9269V7.87012H88.1967V12.9269H84.8252V0H88.1967V4.82535H93.1967V0H96.5595V12.9269H93.1967Z" fill="#CF0077"/>
<path d="M116.093 12.9269V3.00026H112.158V0H123.408V3.00026H119.456V12.9269H116.093Z" fill="#CF0077"/>
<path d="M107.211 12.9269V5.56428L101.85 12.9269H99.0327V0H102.404V7.29144L107.668 0H110.573V12.9269H107.211Z" fill="#CF0077"/>
<path d="M55.6258 12.9269V5.24378L52.2631 9.30348L48.9003 5.24378V12.9269H45.5376V0H48.8563L52.2631 4.44252L55.6698 0H58.9884V12.9269H55.6258Z" fill="#CF0077"/>
<path d="M65.3793 8.38648H68.5043L66.9462 4.32678L65.3793 8.38648ZM70.256 12.9269L69.5606 11.1463H64.3229L63.6275 12.9269H60.2383L65.4144 0H68.5219L73.7068 12.8913L70.256 12.9269Z" fill="#CF0077"/>
<path d="M78.9886 33.991C78.0721 34.0101 77.161 33.8444 76.3085 33.5035C75.4561 33.1626 74.6794 32.6534 74.0237 32.0057C73.3792 31.3998 72.8653 30.6662 72.5137 29.8506C72.1623 29.0348 71.981 28.1546 71.981 27.2649C71.981 26.3751 72.1623 25.4949 72.5137 24.6792C72.8653 23.8634 73.3792 23.1298 74.0237 22.5241C74.9279 21.6629 76.0366 21.0523 77.2427 20.7513C78.4486 20.4502 79.7108 20.4691 80.9076 20.8058C81.4356 20.9496 81.9421 21.1653 82.4129 21.4468C82.7726 21.6689 83.1167 21.9158 83.4428 22.1858C83.681 22.3767 83.8966 22.5947 84.0854 22.8357L84.3231 23.1385L82.1664 25.4086L82.0079 25.2038C81.8849 25.05 81.7462 24.9097 81.5942 24.7854C81.3946 24.6061 81.1796 24.4452 80.9516 24.3047C80.6756 24.1394 80.3798 24.0107 80.0713 23.9219C79.7172 23.813 79.3497 23.7559 78.9796 23.7527C78.5195 23.7405 78.0615 23.8225 77.6334 23.9939C77.2053 24.1653 76.8159 24.4223 76.4884 24.7498C76.0103 25.25 75.6875 25.8809 75.5599 26.5646C75.4323 27.2483 75.5055 27.9547 75.7706 28.5968C76.0356 29.2388 76.4807 29.7883 77.051 30.1774C77.6213 30.5664 78.2918 30.778 78.9796 30.786C79.5891 30.7902 80.1913 30.6532 80.7402 30.3853C81.1819 30.1987 81.585 29.9298 81.9287 29.593L82.3599 29.121L84.4112 31.3913L84.3407 31.4892L84.1646 31.7207C83.9674 31.9399 83.7556 32.1451 83.5309 32.3351C83.2017 32.6279 82.8449 32.8873 82.4657 33.1096C81.3792 33.6868 80.1717 33.992 78.9445 33.9999" fill="#CF0077"/>
<path d="M63.8209 23.7797C63.3886 23.772 62.9597 23.8569 62.5621 24.0287C62.1646 24.2005 61.8076 24.4555 61.5145 24.7768C60.9228 25.4817 60.5979 26.3763 60.5979 27.3008C60.5979 28.2255 60.9228 29.1201 61.5145 29.8248C61.8062 30.148 62.163 30.4042 62.5608 30.5762C62.9587 30.7483 63.3883 30.8321 63.8209 30.8219C64.2524 30.8337 64.6812 30.7506 65.0779 30.5784C65.4745 30.4063 65.8296 30.1492 66.1184 29.8248C66.7204 29.1249 67.0519 28.2285 67.0519 27.3008C67.0519 26.3732 66.7204 25.4768 66.1184 24.7768C65.8284 24.4539 65.4732 24.1978 65.0768 24.0257C64.6804 23.8537 64.2521 23.7698 63.8209 23.7797ZM63.8209 33.9913C62.3158 33.9545 60.8693 33.3935 59.7258 32.4031C58.5821 31.413 57.8114 30.054 57.5434 28.5557C57.2754 27.0573 57.5269 25.5113 58.255 24.1788C58.9833 22.8461 60.1439 21.8084 61.5409 21.2407C62.9378 20.673 64.4856 20.61 65.9232 21.0624C67.3608 21.515 68.5998 22.4551 69.4315 23.7244C70.2632 24.9935 70.6365 26.5141 70.4884 28.0293C70.3402 29.5445 69.6798 30.9617 68.6184 32.0416C67.9939 32.6823 67.2457 33.1861 66.4203 33.5215C65.5949 33.8569 64.7101 34.0168 63.8209 33.9913Z" fill="#CF0077"/>
<path d="M116.674 33.9911V24.1446H112.897V21.1177H123.839V24.1446H120.054V33.9911H116.674Z" fill="#CF0077"/>
<path d="M53.9444 33.9912L49.7454 28.5694L48.9179 28.5605V33.9912H45.5376V21.1178H48.9179V25.4979H49.9039L53.2137 21.1089L57.0342 21.1178L52.6239 27.047L57.8353 33.9912H53.9444Z" fill="#CF0077"/>
<path d="M101.577 33.9911V21.1177H110.873V24.1446H104.966V25.9786H110.195V28.8898H104.966V30.9642H110.873V33.9911H101.577Z" fill="#CF0077"/>
<path d="M95.8459 33.9912V26.4061L92.5359 30.4034L89.2261 26.4061V33.9912H85.8457V21.1178H89.1909L92.5359 25.5158L95.9075 21.1089L99.2262 21.1178V33.9912H95.8459Z" fill="#CF0077"/>
<path d="M125.864 33.991V21.1174H129.245V28.3021L134.447 21.0996L137.352 21.1174V33.991H133.971V26.7262L128.681 33.9999L125.864 33.991Z" fill="#CF0077"/>
<path d="M148.11 33.9912L143.91 28.5694L143.083 28.5605V33.9912H139.703V21.1178H143.083V25.4979H144.069L147.379 21.1089L151.2 21.1178L146.789 27.047L152 33.9912H148.11Z" fill="#CF0077"/>
<path d="M0 10.3006C-1.00837e-06 7.57026 1.07185 4.95158 2.98 3.02009C4.88815 1.08861 7.47647 0.00235985 10.1762 0H33.6888V5.23489H10.1762C8.84988 5.2419 7.57989 5.77783 6.64205 6.72631C5.70419 7.67481 5.17425 8.95926 5.1673 10.3006V19.0788C5.05936 20.2037 4.58632 21.261 3.82199 22.0855C3.05764 22.9101 2.04496 23.4556 0.941906 23.6371L0.0616135 23.7795L0 10.3006Z" fill="#CF0077"/>
<path d="M0 34.0002V28.7743H23.5038C24.8287 28.7626 26.096 28.2252 27.0329 27.2776C27.9697 26.3302 28.5012 25.0485 28.5127 23.7085V15.3666C28.5211 14.1572 28.9542 12.9901 29.7345 12.0737C30.5149 11.1572 31.5919 10.551 32.7733 10.3631L33.6536 10.2207V23.7085C33.6465 26.4374 32.571 29.0524 30.6622 30.9811C28.7534 32.91 26.1668 33.9955 23.4685 34.0002H0Z" fill="#CF0077"/>
<path d="M22.298 23.5751C22.298 23.5751 23.2398 19.0613 20.0004 18.2956C20.6142 18.2764 21.2232 18.1807 21.8138 18.0107C24.0762 17.3074 24.2787 15.3399 24.3227 13.2032C24.3227 11.7609 24.2522 10.3721 24.2522 10.3721C22.6312 10.476 21.0242 10.7414 19.4546 11.1644C18.7242 11.3889 18.0796 11.8344 17.6074 12.4409C17.1352 13.0474 16.8582 13.7858 16.8138 14.5564C16.773 13.7846 16.4974 13.0445 16.0247 12.4373C15.5519 11.83 14.9051 11.3855 14.1729 11.1644C12.6033 10.7414 10.9963 10.476 9.37528 10.3721C9.37528 10.3721 9.27844 11.7609 9.30486 13.2032C9.30486 15.3665 9.55135 17.3074 11.8137 18.0107C12.4043 18.1807 13.0133 18.2764 13.6271 18.2956C10.3876 19.0613 11.3295 23.5751 11.3295 23.5751L12.7204 23.4326C14.7011 23.2279 16.0831 23.1032 16.8138 20.4145C17.5532 23.0853 18.9352 23.2279 20.9159 23.4326L22.298 23.5751Z" fill="#CF0077"/>
</svg>
