<svg width="99" height="26" viewBox="0 0 99 26" fill="none" xmlns="http://www.w3.org/2000/svg">
<path d="M0 3.78857L0.319031 0.531525H29.8727L29.5537 3.78857H27.9006L26.5085 17.1689H21.0559L22.4191 3.78857H19.4608L18.0687 17.1689H12.6161L13.9793 3.78857H10.847L9.45486 17.1689H9.42587V17.1982H0.522034L0.667053 15.8191L0.870087 13.9411H4.32141L5.36551 3.78857H0Z" fill="#C61D21"/>
<path fill-rule="evenodd" clip-rule="evenodd" d="M36.5143 11.7404L35.9342 17.1689H31.0618L32.8019 0.531525H43.9099C44.345 0.531525 44.751 0.531525 45.0701 0.560867C45.4181 0.59021 45.6791 0.678238 45.8531 0.854294C46.2882 1.14772 46.4622 1.64655 46.4042 2.29209L45.6211 9.80383C45.5341 10.4494 45.2731 10.9482 44.78 11.271C44.258 11.5937 43.5619 11.7404 42.6918 11.7404H36.5143ZM41.6187 3.78857H37.3553L36.8333 8.83552H41.0967L41.6187 3.78857Z" fill="#C61D21"/>
<path d="M48.8404 0.531525H60.9925L60.6444 3.78857H53.3648L53.0457 6.98692H59.7454L59.4263 9.74514H52.7557L52.3207 13.9118H59.6294L59.3103 17.1395H47.1582L48.8404 0.531525Z" fill="#C61D21"/>
<path d="M73.3477 12.0926L73.1447 13.9412V13.9118H67.6632L68.7363 3.75924H74.1888L73.9858 5.60783H78.8872L79.2353 2.46816V2.02802C79.2353 1.8813 79.2063 1.73459 79.1483 1.61722C79.0612 1.38248 78.9453 1.17708 78.7422 1.03036C78.5392 0.854309 78.3072 0.736938 78.0172 0.678253C77.8722 0.648911 77.6982 0.619568 77.4951 0.590225C77.2921 0.560883 77.0891 0.560883 76.8861 0.560883H66.7641C66.5611 0.560883 66.3871 0.560883 66.1841 0.590225C65.981 0.590225 65.807 0.619568 65.604 0.678253C65.43 0.707596 65.285 0.766281 65.169 0.824966C65.053 0.883652 64.937 0.942337 64.821 1.03036C64.6759 1.08905 64.5889 1.17708 64.5019 1.29445C64.4727 1.33393 64.4467 1.37009 64.4218 1.40517L64.3852 1.45689C64.3666 1.48322 64.348 1.50955 64.3284 1.53689C64.31 1.56252 64.2908 1.58902 64.2699 1.61722C64.1249 1.8813 64.0669 2.17474 64.0379 2.46816L62.7038 15.2322C62.6747 15.4963 62.7038 15.7898 62.7618 16.0832C62.7908 16.1419 62.8198 16.1933 62.8488 16.2447L62.8494 16.2457C62.8782 16.2967 62.907 16.3477 62.9358 16.406C62.9938 16.494 63.0808 16.582 63.1968 16.67C63.2169 16.6836 63.2385 16.6987 63.2613 16.7146L63.2629 16.7157C63.3386 16.7687 63.4272 16.8306 63.5158 16.8754C63.6318 16.9341 63.7769 16.9928 63.9219 17.0222C64.0959 17.0515 64.2699 17.0808 64.4729 17.1102C64.6469 17.1395 64.8499 17.1395 65.053 17.1395H75.1459C75.3489 17.1395 75.5519 17.1395 75.755 17.1102C75.987 17.1102 76.161 17.0808 76.335 17.0222C76.6541 16.9341 76.9151 16.8167 77.1471 16.67C77.3791 16.5233 77.5531 16.3179 77.6691 16.0832C77.7561 15.9658 77.8141 15.8191 77.8431 15.6724C77.8818 15.5942 77.8947 15.4898 77.9076 15.3855C77.9141 15.3333 77.9205 15.2812 77.9302 15.2322L78.2492 12.0926H73.3477Z" fill="#C61D21"/>
<path d="M88.516 17.1689H85.3547L86.7468 3.81791H81.3813L81.5264 2.4388L81.7294 0.59021H98.0579L97.9129 1.91063L97.7098 3.84725H92.2283L90.8362 17.2275H88.516V17.1689Z" fill="#C61D21"/>
<path fill-rule="evenodd" clip-rule="evenodd" d="M34.4551 24.0351C34.2231 23.9177 34.02 23.7416 33.875 23.5069C33.73 23.2721 33.672 23.0081 33.672 22.7146C33.672 22.3038 33.759 21.9517 33.933 21.629C34.107 21.3062 34.3681 21.0421 34.6581 20.866C34.9771 20.69 35.3251 20.602 35.7312 20.602C36.2242 20.602 36.6303 20.7487 36.9203 21.0128C37.2103 21.2768 37.3553 21.6583 37.3553 22.1278C37.3553 22.5386 37.2683 22.8907 37.0943 23.2428C36.9203 23.5656 36.6593 23.8297 36.3692 24.0057C36.0792 24.1818 35.7022 24.2698 35.2961 24.2698C34.9771 24.2111 34.6871 24.1524 34.4551 24.0351ZM36.1372 23.5656C36.3692 23.4189 36.5433 23.2135 36.6883 22.9494C36.8333 22.6853 36.8913 22.3919 36.8913 22.0691C36.8913 21.717 36.7753 21.4529 36.5723 21.2475C36.3692 21.0421 36.0792 20.9541 35.7022 20.9541C35.4122 20.9541 35.1511 21.0128 34.9191 21.1595C34.6871 21.3062 34.5131 21.5116 34.3681 21.7757C34.2231 22.0397 34.165 22.3332 34.165 22.656C34.165 23.0081 34.2811 23.2721 34.4841 23.4775C34.6871 23.6829 34.9771 23.771 35.3542 23.771C35.6152 23.8003 35.9052 23.7123 36.1372 23.5656Z" fill="#C61D21"/>
<path fill-rule="evenodd" clip-rule="evenodd" d="M42.199 23.9177C42.576 23.7416 42.866 23.4775 43.0691 23.1548C43.2721 22.832 43.3881 22.4799 43.3591 22.0691C43.3591 21.5996 43.2141 21.2475 42.924 20.9834C42.605 20.7487 42.17 20.602 41.5899 20.5726L41.8799 19.1055H41.4449L41.1549 20.5726C40.6618 20.5726 40.2268 20.69 39.8498 20.866C39.4727 21.0421 39.1827 21.3062 38.9797 21.6289C38.7766 21.9517 38.6606 22.3038 38.6606 22.7146C38.6606 23.1841 38.8347 23.5362 39.1247 23.8003C39.4437 24.0644 39.8788 24.1818 40.4588 24.2111L40.1978 25.5022H40.6328L40.8939 24.2111C41.3869 24.2111 41.8219 24.0937 42.199 23.9177ZM40.5458 23.8003C40.0818 23.771 39.7337 23.6536 39.5017 23.4775C39.2407 23.3015 39.1247 23.008 39.1537 22.6559C39.1537 22.3625 39.2117 22.0691 39.3857 21.8343C39.5307 21.5996 39.7628 21.3942 40.0528 21.2475C40.3718 21.1008 40.6908 21.0127 41.0969 20.9834L40.5458 23.8003ZM42.663 22.9494C42.518 23.1841 42.286 23.3895 41.996 23.5362C41.7059 23.6829 41.3579 23.771 40.9518 23.7416L41.5029 20.9247C41.9669 20.9541 42.315 21.0714 42.547 21.2475C42.779 21.4529 42.8951 21.717 42.8951 22.0984C42.8951 22.4212 42.837 22.7146 42.663 22.9494Z" fill="#C61D21"/>
<path d="M45.3891 20.5726H45.8822L45.3021 23.4776L48.2314 20.5726H48.6954L47.9704 24.1818H47.4773L48.0574 21.2769L45.1281 24.1818H44.6641L45.3891 20.5726Z" fill="#C61D21"/>
<path d="M50.2325 23.5069C50.3776 23.7416 50.5516 23.9177 50.8126 24.0351C51.0446 24.1524 51.3637 24.2111 51.6537 24.2405C51.9727 24.2405 52.2628 24.1818 52.5238 24.0644C52.7848 23.947 53.0168 23.771 53.1618 23.5656L52.8138 23.3015C52.6688 23.4775 52.5238 23.5949 52.3207 23.6829C52.1177 23.771 51.9147 23.8297 51.6827 23.8297C51.3057 23.8297 51.0156 23.7416 50.8126 23.5362C50.6096 23.3308 50.4936 23.0667 50.4936 22.7146C50.4936 22.3919 50.5516 22.0984 50.6966 21.8344C50.8126 21.5703 51.0156 21.3649 51.2477 21.2182C51.4797 21.0714 51.7407 21.0128 52.0307 21.0128C52.5238 21.0128 52.8718 21.1888 53.0748 21.5409L53.4808 21.3062C53.3648 21.0714 53.1618 20.8954 52.9298 20.778C52.6978 20.6606 52.4077 20.602 52.0887 20.602C51.6827 20.602 51.3347 20.69 51.0156 20.866C50.7256 21.0421 50.4646 21.3062 50.2906 21.629C50.1165 21.9517 50.0295 22.3038 50.0295 22.7146C50.0295 23.0081 50.0876 23.2721 50.2325 23.5069Z" fill="#C61D21"/>
<path d="M55.308 20.5726H55.801L55.482 22.1571H57.7152L58.0342 20.5726H58.5273L57.8022 24.1818H57.3091L57.6282 22.5973H55.395L55.0759 24.1818H54.5829L55.308 20.5726Z" fill="#C61D21"/>
<path fill-rule="evenodd" clip-rule="evenodd" d="M62.7618 23.5362C62.9069 23.3308 62.9649 23.0668 62.9649 22.8027C62.9649 22.1865 62.5878 21.8637 61.8338 21.8637H60.8477L61.0797 20.602H60.5866L59.8616 24.1818H61.3117C61.6307 24.1818 61.9208 24.1231 62.1818 24.0057C62.4428 23.9177 62.6168 23.7416 62.7618 23.5362ZM62.5008 22.8614C62.5008 23.1548 62.3848 23.3895 62.1818 23.5656C61.9498 23.7416 61.6598 23.8297 61.3407 23.859H60.4416L60.7607 22.2452H61.6598C61.9498 22.2452 62.1528 22.2745 62.2978 22.3919C62.4428 22.4799 62.5008 22.656 62.5008 22.8614Z" fill="#C61D21"/>
<path d="M64.531 20.5726H64.038L63.3129 24.1818H63.8059L64.531 20.5726Z" fill="#C61D21"/>
<path d="M66.5611 20.5726H67.0542L66.4741 23.4775L69.4034 20.5726H69.8674L69.1424 24.1817H68.6493L69.2294 21.2768L66.3001 24.1817H65.8361L66.5611 20.5726Z" fill="#C61D21"/>
<path d="M67.6632 19.8684C67.5182 19.751 67.4312 19.5749 67.4312 19.3695C67.4312 19.3109 67.4312 19.2522 67.4602 19.1935H67.7792V19.3109C67.7792 19.4576 67.8372 19.5749 67.9243 19.663C68.0113 19.751 68.1563 19.8097 68.3303 19.8097C68.5333 19.8097 68.6783 19.751 68.8233 19.663C68.9684 19.5456 69.0554 19.3989 69.1134 19.2228H69.4614C69.4034 19.5163 69.2584 19.7216 69.0844 19.8684C68.9103 20.0151 68.6203 20.1031 68.3303 20.1031C68.0403 20.0444 67.8372 19.9857 67.6632 19.8684Z" fill="#C61D21"/>
<path d="M77.4372 23.771H76.8571L77.5532 20.5726H77.0602L76.4221 23.7416H74.2469L74.8559 20.5726H74.3629L73.6378 24.1818H76.8861L76.7121 25.0914H77.1761L77.4372 23.771Z" fill="#C61D21"/>
<path fill-rule="evenodd" clip-rule="evenodd" d="M79.4384 22.5679V22.656C79.4384 23.0081 79.5544 23.3015 79.7574 23.5069C79.9604 23.7123 80.2795 23.8003 80.6855 23.8003C80.9175 23.8003 81.1496 23.771 81.3526 23.6829C81.5556 23.5949 81.7296 23.4775 81.8456 23.3602L82.0486 23.7123C81.8746 23.8883 81.6716 24.0057 81.4106 24.0937C81.1496 24.1818 80.8885 24.2405 80.6275 24.2405C80.1055 24.2405 79.6994 24.0937 79.4094 23.8297C79.1194 23.5656 78.9744 23.1841 78.9744 22.7146C78.9744 22.3038 79.0614 21.9517 79.2354 21.629C79.4094 21.3062 79.6414 21.0421 79.9315 20.866C80.2215 20.69 80.5695 20.602 80.9466 20.602C81.4106 20.602 81.7876 20.7487 82.0777 21.0128C82.3677 21.2768 82.4837 21.6583 82.4837 22.1278C82.4837 22.2745 82.4547 22.4212 82.4257 22.5679H79.4384ZM80.0185 21.2768C79.7574 21.4822 79.5834 21.7757 79.4964 22.1571H82.0486V22.0398C82.0486 21.6876 81.9326 21.4529 81.7296 21.2475C81.5266 21.0421 81.2656 20.9834 80.9175 20.9834C80.5695 20.9541 80.2505 21.0714 80.0185 21.2768Z" fill="#C61D21"/>
<path d="M85.0357 20.5726H84.5427L83.8176 24.1818H84.3107L84.6297 22.5973H86.8629L86.5439 24.1818H87.0369L87.762 20.5726H87.269L86.9499 22.1571H84.7167L85.0357 20.5726Z" fill="#C61D21"/>
<path d="M92.2285 21.0128H90.8654L90.2563 24.1818H89.7633L90.3723 21.0128H89.0382L89.1252 20.5726H92.3155L92.2285 21.0128Z" fill="#C61D21"/>
<path fill-rule="evenodd" clip-rule="evenodd" d="M96.7818 21.2768C96.6658 21.0421 96.4628 20.866 96.2307 20.7487C95.9987 20.602 95.7377 20.5433 95.4187 20.602C95.1287 20.602 94.8676 20.6313 94.6356 20.7487C94.4036 20.8367 94.2006 20.9834 94.0266 21.1888L94.1426 20.602H93.6785L92.7214 25.5315H93.2145L93.6205 23.4482C93.7075 23.7123 93.8815 23.8883 94.1136 24.0351C94.3456 24.1818 94.6066 24.2405 94.9547 24.2405C95.3317 24.2405 95.6797 24.1524 95.9987 23.9764C96.3178 23.8003 96.5498 23.5656 96.7238 23.2135C96.8978 22.8614 96.9848 22.5092 96.9848 22.0984C96.9848 21.7757 96.9268 21.5116 96.7818 21.2768ZM96.2888 22.9787C96.1437 23.2135 95.9697 23.4189 95.7377 23.5656C95.5057 23.7123 95.2447 23.8003 94.9547 23.8003C94.5776 23.8003 94.2876 23.7123 94.0846 23.5069C93.8815 23.3015 93.7655 23.0374 93.7655 22.6853C93.7655 22.3625 93.8235 22.0691 93.9685 21.805C94.1136 21.5409 94.2876 21.3355 94.5196 21.1888C94.7516 21.0421 95.0126 20.9834 95.3027 20.9834C95.6797 20.9834 95.9697 21.0714 96.1728 21.2768C96.3758 21.4822 96.4918 21.7463 96.4918 22.0984C96.4918 22.4212 96.4338 22.7146 96.2888 22.9787Z" fill="#C61D21"/>
</svg>
