<svg width="98" height="26" viewBox="0 0 98 26" fill="none" xmlns="http://www.w3.org/2000/svg">
<g clip-path="url(#clip0_105_23)">
<path d="M36.5143 11.7404L35.9342 17.1688H31.0618L32.8019 0.531525H43.91C44.345 0.531525 44.751 0.531525 45.0701 0.560867C45.4181 0.59021 45.6791 0.678238 45.8531 0.854295C46.2882 1.14772 46.4622 1.64655 46.4042 2.29209L45.6211 9.80383C45.5341 10.4494 45.2731 10.9482 44.78 11.271C44.258 11.5937 43.5619 11.7404 42.6918 11.7404H36.5143ZM41.6187 3.78857H37.3554L36.8333 8.83552H41.0967L41.6187 3.78857Z" fill="#F0EFEF"/>
<path d="M48.8404 0.531525H60.9925L60.8475 1.88129L60.6444 3.78857H53.3648L53.0457 6.98692H59.7454L59.4263 9.74514H52.7557L52.3207 13.9118H59.6293L59.3103 17.1395H47.1582L48.8404 0.531525Z" fill="#F0EFEF"/>
<path d="M73.1448 13.9412L73.3479 12.0926H78.2493L77.9303 15.2322C77.9013 15.379 77.9013 15.555 77.8433 15.6724C77.8143 15.8191 77.7563 15.9658 77.6693 16.0832C77.5532 16.3179 77.3792 16.5233 77.1472 16.67C76.9152 16.8168 76.6542 16.9341 76.3351 17.0222C76.1611 17.0808 75.9871 17.1102 75.7551 17.1102C75.5521 17.1395 75.349 17.1395 75.146 17.1395H65.0531C64.8501 17.1395 64.6471 17.1395 64.473 17.1102C64.27 17.0808 64.096 17.0515 63.922 17.0222C63.777 16.9928 63.632 16.9341 63.516 16.8754C63.3999 16.8168 63.2839 16.7287 63.1969 16.67C63.0809 16.582 62.9939 16.494 62.9359 16.406C62.8779 16.2886 62.8199 16.2006 62.7619 16.0832C62.7039 15.7898 62.6749 15.4963 62.7039 15.2322L64.038 2.46816C64.067 2.17473 64.125 1.88131 64.27 1.61722C64.357 1.49985 64.415 1.41182 64.502 1.29445C64.5891 1.17708 64.6761 1.08905 64.8211 1.03037C64.9371 0.942338 65.0531 0.883653 65.1691 0.824967C65.2851 0.766282 65.4301 0.707596 65.6041 0.678253C65.8072 0.619568 65.9812 0.590225 66.1842 0.590225C66.3872 0.560883 66.5612 0.560883 66.7643 0.560883H76.8862C77.0892 0.560883 77.2922 0.560883 77.4952 0.590225C77.6983 0.619568 77.8723 0.648911 78.0173 0.678253C78.3073 0.736939 78.5393 0.85431 78.7424 1.03037C78.9454 1.17708 79.0614 1.38248 79.1484 1.61722C79.2064 1.73459 79.2354 1.88131 79.2354 2.02802C79.2354 2.17473 79.2354 2.32145 79.2354 2.46816L78.8874 5.60783H73.9859L74.1889 3.75924H68.7364L67.6633 13.9118H73.1448V13.9412Z" fill="#F0EFEF"/>
<path d="M88.516 17.1688H85.3547L85.9348 11.5937L86.7468 3.81791H81.3813L81.5264 2.4388L81.7294 0.59021H98.0579L97.9129 1.91063L97.7098 3.84725H92.2283L91.6483 9.39303L90.8362 17.2275H88.516V17.1688Z" fill="#F0EFEF"/>
<path d="M0.319029 0.531525L0 3.78857H5.36549L4.3214 13.9412H0.87008L0.667061 15.8191L0.522048 17.1982H3.94436H9.42587V17.1688H9.45487L10.847 3.78857H13.9793L12.6162 17.1688H18.0687L19.4608 3.78857H22.4191L21.0559 17.1688H26.5084L27.9006 3.78857H29.5537L29.8728 0.531525H0.319029Z" fill="#F0EFEF"/>
<path d="M34.4551 24.0351C34.223 23.9177 34.02 23.7416 33.875 23.5069C33.73 23.2721 33.672 23.0081 33.672 22.7146C33.672 22.3038 33.759 21.9517 33.933 21.629C34.107 21.3062 34.3681 21.0421 34.6581 20.866C34.9771 20.69 35.3251 20.602 35.7312 20.602C36.2242 20.602 36.6303 20.7487 36.9203 21.0128C37.2103 21.2768 37.3553 21.6583 37.3553 22.1278C37.3553 22.5386 37.2683 22.8907 37.0943 23.2428C36.9203 23.5656 36.6593 23.8297 36.3692 24.0057C36.0792 24.1818 35.7022 24.2698 35.2961 24.2698C34.9771 24.2111 34.6871 24.1524 34.4551 24.0351ZM36.1372 23.5656C36.3692 23.4189 36.5433 23.2135 36.6883 22.9494C36.8333 22.6853 36.8913 22.3919 36.8913 22.0691C36.8913 21.717 36.7753 21.4529 36.5723 21.2475C36.3692 21.0421 36.0792 20.9541 35.7022 20.9541C35.4122 20.9541 35.1511 21.0128 34.9191 21.1595C34.6871 21.3062 34.5131 21.5116 34.3681 21.7757C34.223 22.0398 34.165 22.3332 34.165 22.656C34.165 23.0081 34.2811 23.2721 34.4841 23.4775C34.6871 23.6829 34.9771 23.771 35.3542 23.771C35.6152 23.8003 35.9052 23.7123 36.1372 23.5656Z" fill="#F0EFEF"/>
<path d="M43.0691 23.1548C42.866 23.4775 42.576 23.7416 42.199 23.9177C41.8219 24.0937 41.3869 24.2111 40.8939 24.2111L40.6328 25.5022H40.1978L40.4588 24.2111C39.8788 24.1818 39.4437 24.0644 39.1247 23.8003C38.8347 23.5362 38.6606 23.1841 38.6606 22.7146C38.6606 22.3038 38.7767 21.9517 38.9797 21.6289C39.1827 21.3062 39.4727 21.0421 39.8498 20.866C40.2268 20.69 40.6618 20.5726 41.1549 20.5726L41.4449 19.1055H41.8799L41.5899 20.5726C42.17 20.6019 42.605 20.7487 42.924 20.9834C43.2141 21.2475 43.3591 21.5996 43.3591 22.0691C43.3881 22.4799 43.2721 22.832 43.0691 23.1548ZM39.5017 23.4775C39.7337 23.6536 40.0818 23.771 40.5458 23.8003L41.0969 20.9834C40.6908 21.0127 40.3718 21.1008 40.0528 21.2475C39.7627 21.3942 39.5307 21.5996 39.3857 21.8343C39.2117 22.0691 39.1537 22.3625 39.1537 22.6559C39.1247 23.0081 39.2407 23.3015 39.5017 23.4775ZM41.996 23.5362C42.286 23.3895 42.518 23.1841 42.663 22.9494C42.837 22.7146 42.895 22.4212 42.895 22.0984C42.895 21.717 42.779 21.4529 42.547 21.2475C42.315 21.0714 41.967 20.9541 41.5029 20.9247L40.9519 23.7416C41.3579 23.771 41.7059 23.6829 41.996 23.5362Z" fill="#F0EFEF"/>
<path d="M45.3891 20.5726H45.8822L45.3021 23.4776L48.2314 20.5726H48.6954L47.9704 24.1818H47.4773L48.0574 21.2769L45.1281 24.1818H44.6641L45.3891 20.5726Z" fill="#F0EFEF"/>
<path d="M50.8126 24.0351C50.5516 23.9177 50.3776 23.7416 50.2326 23.5069C50.0875 23.2721 50.0295 23.0081 50.0295 22.7146C50.0295 22.3038 50.1165 21.9517 50.2906 21.629C50.4646 21.3062 50.7256 21.0421 51.0156 20.866C51.3347 20.69 51.6827 20.602 52.0887 20.602C52.4078 20.602 52.6978 20.6606 52.9298 20.778C53.1618 20.8954 53.3648 21.0714 53.4809 21.3062L53.0748 21.5409C52.8718 21.1888 52.5238 21.0128 52.0307 21.0128C51.7407 21.0128 51.4797 21.0714 51.2476 21.2182C51.0156 21.3649 50.8126 21.5703 50.6966 21.8344C50.5516 22.0984 50.4936 22.3919 50.4936 22.7146C50.4936 23.0667 50.6096 23.3308 50.8126 23.5362C51.0156 23.7416 51.3057 23.8297 51.6827 23.8297C51.9147 23.8297 52.1177 23.771 52.3207 23.6829C52.5238 23.5949 52.6688 23.4775 52.8138 23.3015L53.1618 23.5656C53.0168 23.771 52.7848 23.947 52.5238 24.0644C52.2627 24.1818 51.9727 24.2405 51.6537 24.2405C51.3637 24.2111 51.0446 24.1524 50.8126 24.0351Z" fill="#F0EFEF"/>
<path d="M55.308 20.5726H55.801L55.482 22.1571H57.7152L58.0342 20.5726H58.5273L57.8022 24.1818H57.3091L57.6282 22.5973H55.395L55.0759 24.1818H54.5829L55.308 20.5726Z" fill="#F0EFEF"/>
<path d="M62.9649 22.8027C62.9649 23.0668 62.9069 23.3308 62.7618 23.5362C62.6168 23.7416 62.4428 23.9177 62.1818 24.0057C61.9208 24.1231 61.6307 24.1818 61.3117 24.1818H59.8616L60.5866 20.602H61.0797L60.8477 21.8637H61.8338C62.5878 21.8637 62.9649 22.1865 62.9649 22.8027ZM62.1818 23.5656C62.3848 23.3895 62.5008 23.1548 62.5008 22.8614C62.5008 22.656 62.4428 22.4799 62.2978 22.3919C62.1528 22.2745 61.9498 22.2452 61.6597 22.2452H60.7607L60.4416 23.859H61.3407C61.6597 23.8297 61.9498 23.7416 62.1818 23.5656ZM64.038 20.5726H64.531L63.8059 24.1818H63.3129L64.038 20.5726Z" fill="#F0EFEF"/>
<path d="M66.5611 20.5726H67.0542L66.4741 23.4775L69.4034 20.5726H69.8674L69.1424 24.1817H68.6493L69.2294 21.2768L66.3001 24.1817H65.8361L66.5611 20.5726ZM67.6632 19.8684C67.5182 19.751 67.4312 19.5749 67.4312 19.3695C67.4312 19.3109 67.4312 19.2522 67.4602 19.1935H67.7792C67.7792 19.2228 67.7792 19.2522 67.7792 19.3109C67.7792 19.4576 67.8372 19.5749 67.9243 19.663C68.0113 19.751 68.1563 19.8097 68.3303 19.8097C68.5333 19.8097 68.6783 19.751 68.8233 19.663C68.9684 19.5456 69.0554 19.3989 69.1134 19.2228H69.4614C69.4034 19.5163 69.2584 19.7217 69.0844 19.8684C68.9103 20.0151 68.6203 20.1031 68.3303 20.1031C68.0403 20.0444 67.8372 19.9857 67.6632 19.8684Z" fill="#F0EFEF"/>
<path d="M76.8571 23.771H77.4372L77.1761 25.0914H76.7121L76.8861 24.1818H73.6378L74.3629 20.5726H74.8559L74.2469 23.7416H76.4221L77.0601 20.5726H77.5532L76.8571 23.771Z" fill="#F0EFEF"/>
<path d="M79.4384 22.5092C79.4384 22.5386 79.4384 22.5973 79.4384 22.656C79.4384 23.0081 79.5544 23.3015 79.7574 23.5069C79.9605 23.7123 80.2795 23.8003 80.6855 23.8003C80.9176 23.8003 81.1496 23.771 81.3526 23.6829C81.5556 23.5949 81.7296 23.4775 81.8456 23.3602L82.0486 23.7123C81.8746 23.8883 81.6716 24.0057 81.4106 24.0937C81.1496 24.1818 80.8885 24.2405 80.6275 24.2405C80.1055 24.2405 79.6994 24.0937 79.4094 23.8297C79.1194 23.5656 78.9744 23.1841 78.9744 22.7146C78.9744 22.3038 79.0614 21.9517 79.2354 21.629C79.4094 21.3062 79.6414 21.0421 79.9315 20.866C80.2215 20.69 80.5695 20.602 80.9466 20.602C81.4106 20.602 81.7876 20.7487 82.0777 21.0128C82.3677 21.2768 82.4837 21.6583 82.4837 22.1278C82.4837 22.2745 82.4547 22.4212 82.4257 22.5679H79.4384V22.5092ZM80.0185 21.2768C79.7574 21.4822 79.5834 21.7757 79.4964 22.1571H82.0486C82.0486 22.1278 82.0486 22.0691 82.0486 22.0398C82.0486 21.6876 81.9326 21.4529 81.7296 21.2475C81.5266 21.0421 81.2656 20.9834 80.9175 20.9834C80.5695 20.9541 80.2505 21.0714 80.0185 21.2768Z" fill="#F0EFEF"/>
<path d="M84.5428 20.5726H85.0359L84.7168 22.1571H86.95L87.2691 20.5726H87.7621L87.037 24.1818H86.544L86.863 22.5973H84.6298L84.3108 24.1818H83.8177L84.5428 20.5726Z" fill="#F0EFEF"/>
<path d="M92.2285 21.0128H90.8654L90.2563 24.1818H89.7633L90.3723 21.0128H89.0382L89.1252 20.5726H92.3155L92.2285 21.0128Z" fill="#F0EFEF"/>
<path d="M96.2308 20.7487C96.4628 20.866 96.6658 21.0421 96.7818 21.2768C96.9268 21.5116 96.9848 21.7757 96.9848 22.0984C96.9848 22.5092 96.8978 22.8613 96.7238 23.2135C96.5498 23.5656 96.3178 23.8003 95.9987 23.9764C95.6797 24.1524 95.3317 24.2405 94.9546 24.2405C94.6066 24.2405 94.3456 24.1818 94.1136 24.0351C93.8815 23.8883 93.7075 23.7123 93.6205 23.4482L93.2145 25.5315H92.7214L93.6785 20.602H94.1426L94.0266 21.1888C94.2006 20.9834 94.4036 20.8367 94.6356 20.7487C94.8676 20.6313 95.1287 20.602 95.4187 20.602C95.7377 20.5433 95.9987 20.602 96.2308 20.7487ZM95.7377 23.5656C95.9697 23.4189 96.1437 23.2135 96.2888 22.9787C96.4338 22.7146 96.4918 22.4212 96.4918 22.0984C96.4918 21.7463 96.3758 21.4822 96.1728 21.2768C95.9697 21.0714 95.6797 20.9834 95.3027 20.9834C95.0126 20.9834 94.7516 21.0421 94.5196 21.1888C94.2876 21.3355 94.1136 21.5409 93.9685 21.805C93.8235 22.0691 93.7655 22.3625 93.7655 22.6853C93.7655 23.0374 93.8815 23.3015 94.0846 23.5069C94.2876 23.7123 94.5776 23.8003 94.9546 23.8003C95.2447 23.8003 95.5057 23.7123 95.7377 23.5656Z" fill="#F0EFEF"/>
</g>
<defs>
<clipPath id="clip0_105_23">
<rect width="98" height="25" fill="white" transform="translate(0 0.531525)"/>
</clipPath>
</defs>
</svg>
