<svg width="215" height="217" viewBox="0 0 215 217" fill="none" xmlns="http://www.w3.org/2000/svg">
<path d="M0 4.84918H9.69832" stroke="#9090C3" stroke-width="2"/>
<path d="M4.84912 0L4.84912 10.1024" stroke="#9090C3" stroke-width="2"/>
<path d="M0 56.5735H9.69832" stroke="#9090C3" stroke-width="2"/>
<path d="M4.84912 51.7244L4.84912 61.8268" stroke="#9090C3" stroke-width="2"/>
<path d="M0 108.298H9.69832" stroke="#9090C3" stroke-width="2"/>
<path d="M4.84912 103.449L4.84912 113.551" stroke="#9090C3" stroke-width="2"/>
<path d="M0 160.022H9.69832" stroke="#9090C3" stroke-width="2"/>
<path d="M4.84912 155.173L4.84912 165.276" stroke="#9090C3" stroke-width="2"/>
<path d="M0 211.747H9.69832" stroke="#9090C3" stroke-width="2"/>
<path d="M4.84912 206.898L4.84912 217" stroke="#9090C3" stroke-width="2"/>
<path d="M51.3203 4.84918H61.0186" stroke="#9090C3" stroke-width="2"/>
<path d="M56.1694 0L56.1694 10.1024" stroke="#9090C3" stroke-width="2"/>
<path d="M51.3203 56.5735H61.0186" stroke="#9090C3" stroke-width="2"/>
<path d="M56.1694 51.7244L56.1694 61.8268" stroke="#9090C3" stroke-width="2"/>
<path d="M51.3203 108.298H61.0186" stroke="#9090C3" stroke-width="2"/>
<path d="M56.1694 103.449L56.1694 113.551" stroke="#9090C3" stroke-width="2"/>
<path d="M51.3203 160.022H61.0186" stroke="#9090C3" stroke-width="2"/>
<path d="M56.1694 155.173L56.1694 165.276" stroke="#9090C3" stroke-width="2"/>
<path d="M51.3203 211.747H61.0186" stroke="#9090C3" stroke-width="2"/>
<path d="M56.1694 206.898L56.1694 217" stroke="#9090C3" stroke-width="2"/>
<path d="M102.641 4.84918H112.339" stroke="#9090C3" stroke-width="2"/>
<path d="M107.49 0L107.49 10.1024" stroke="#9090C3" stroke-width="2"/>
<path d="M102.641 56.5735H112.339" stroke="#9090C3" stroke-width="2"/>
<path d="M107.49 51.7244L107.49 61.8268" stroke="#9090C3" stroke-width="2"/>
<path d="M153.961 4.84918H163.659" stroke="#9090C3" stroke-width="2"/>
<path d="M158.81 0L158.81 10.1024" stroke="#9090C3" stroke-width="2"/>
<path d="M153.961 56.5735H163.659" stroke="#9090C3" stroke-width="2"/>
<path d="M158.81 51.7244L158.81 61.8268" stroke="#9090C3" stroke-width="2"/>
<path d="M205.281 4.84918H214.98" stroke="#9090C3" stroke-width="2"/>
<path d="M210.13 0L210.13 10.1024" stroke="#9090C3" stroke-width="2"/>
<path d="M205.281 56.5735H214.98" stroke="#9090C3" stroke-width="2"/>
<path d="M210.13 51.7244L210.13 61.8268" stroke="#9090C3" stroke-width="2"/>
</svg>
