<svg width="110" height="28" viewBox="0 0 110 28" fill="none" xmlns="http://www.w3.org/2000/svg">
<path fill-rule="evenodd" clip-rule="evenodd" d="M28.6868 13.9999C28.6868 12.1215 27.9643 10.3553 26.6525 9.02689C25.3405 7.69877 23.5962 6.96725 21.7409 6.96725H6.8812V13.9999V21.0326H21.7409C23.5962 21.0326 25.3405 20.3008 26.6525 18.9726C27.9643 17.6446 28.6868 15.8784 28.6868 13.9999ZM35.5684 14C35.5684 21.7321 29.3775 28 21.7409 28H5.62127H2.51992H0V14V0H21.7409C29.3775 0 35.5684 6.26796 35.5684 14ZM107.476 13.0857C106.684 12.2854 105.763 11.6566 104.737 11.2168C103.671 10.7606 102.543 10.5294 101.381 10.5294V10.5408H83.0858C82.1079 10.5408 81.3127 9.73562 81.3127 8.74587C81.3127 7.75612 82.1079 6.95096 83.0858 6.95096H104.77C106.661 6.95096 108.195 5.39853 108.195 3.48342C108.195 1.56864 106.661 0.0162102 104.77 0.0162102H83.0858C81.9232 0.0162102 80.7938 0.247722 79.7284 0.703897C78.7014 1.14363 77.7797 1.77241 76.9889 2.57312C76.1985 3.37383 75.5771 4.30706 75.1428 5.34682C74.6923 6.42526 74.4636 7.56913 74.4636 8.74587C74.4636 9.92291 74.6923 11.0665 75.1428 12.1449C75.5771 13.185 76.1985 14.1182 76.9889 14.9186C77.7797 15.7194 78.7014 16.3481 79.7284 16.7882C80.7938 17.2444 81.9232 17.4756 83.0858 17.4756H101.381V17.4642C102.357 17.4642 103.151 18.268 103.151 19.2567C103.151 20.2447 102.357 21.0492 101.381 21.0492H77.8883C75.9972 21.0492 74.4636 22.6013 74.4636 24.5165C74.4636 26.4316 75.9972 27.9837 77.8883 27.9837H101.381C102.543 27.9837 103.671 27.7525 104.737 27.2963C105.763 26.8565 106.684 26.2278 107.476 25.4274C108.266 24.6271 108.886 23.6945 109.321 22.6547C109.772 21.5766 110 20.4331 110 19.2567C110 18.08 109.772 16.9368 109.321 15.8584C108.886 14.819 108.266 13.886 107.476 13.0857ZM65.8862 0H72.7357V24.5164C72.7357 25.9188 71.9012 27.1829 70.6216 27.7198C70.1978 27.8973 69.7527 27.9836 69.3116 27.9836C68.4203 27.9839 67.5446 27.6314 66.8894 26.9681L44.0485 10.2519V28H37.1993V3.4833C37.1993 2.08121 38.0338 0.8168 39.3134 0.280144C40.5933 -0.256513 42.066 0.0400695 43.0456 1.03188L65.8862 17.748V0Z" fill="#FC8507"/>
</svg>
