<?xml version="1.0" encoding="utf-8"?>
<!-- Generator: Adobe Illustrator 24.3.0, SVG Export Plug-In . SVG Version: 6.00 Build 0)  -->
<svg version="1.1" id="Layer_1" xmlns="http://www.w3.org/2000/svg" xmlns:xlink="http://www.w3.org/1999/xlink" x="0px" y="0px"
	 viewBox="0 0 595.3 304.1" style="enable-background:new 0 0 595.3 304.1;" xml:space="preserve">
<style type="text/css">
	.st0{fill:#9090C3;}
	.st1{fill:#FFFFFF;}
	.st2{clip-path:url(#SVGID_2_);}
	.st3{fill-rule:evenodd;clip-rule:evenodd;fill:#7B7B99;}
	.st4{fill-rule:evenodd;clip-rule:evenodd;fill:#ECECEE;stroke:#7B7B99;stroke-width:0.3;stroke-miterlimit:10;}
	.st5{fill:none;}
	.st6{fill:#C41F21;}
	.st7{clip-path:url(#SVGID_4_);fill:#C41F21;}
	.st8{clip-path:url(#SVGID_6_);fill:#C41F21;}
	.st9{clip-path:url(#SVGID_8_);fill:#C41F21;}
	.st10{clip-path:url(#SVGID_10_);fill:#C41F21;}
	.st11{enable-background:new    ;}
</style>
<rect class="st0" width="595.3" height="304.1"/>
<rect x="235.9" y="96.6" class="st1" width="77.1" height="72.1"/>
<g>
	<g>
		<defs>
			<rect id="SVGID_1_" width="595.3" height="304.1"/>
		</defs>
		<clipPath id="SVGID_2_">
			<use xlink:href="#SVGID_1_"  style="overflow:visible;"/>
		</clipPath>
		<g class="st2">
			<path class="st3" d="M472,194.4l-11-11.3l4.4-9.5l10.6-0.9l-2.3-4l0.6-16.9l-2.4-7l1.4-4.4l-3.3-5.3l-3.3,1.5l-7,7.8l-1.3,4.2
				l-10.6,5.2l-5.1-4.5l-4.1-6.5l-2.8,0.4l-5.2-1.6l-2.9,1.5l-4-1.9l-6.6,2.6l-16.6-17.2l-12.7-12.5l-8.7,1.4l-7.2-2.5l-9.5,4.9
				l-6.7,4.7l-3,5.6l4.5,0.5l3,8l-4.1,4.1l-2.2,13.6l2.3,5.7l-5.5,3.8l-2.3,6.3l-15.4-2.5l-3.9,3.6L326,168l-7.7,0.4l-5.6,5.2
				l-1.4,4.5l-4.4,0.2l-12.5,7.6l-19.5-1.8l-2.4-4.5l-6.7-0.3l-1.7-2.9l-6.1,0.4l-6-1.9l-7.9,4.7l-6.2,0.2l-8.7-4.6l-2.2-8.6
				l-10.6-2.4l-11.4-4.6l-0.8,3.2l-2.8,0.1l-0.1,2.8l-2.3,0.7l-0.4,5.4l3.7,4.4l-2.4,6l-3.3,2.8l-4,1.4l-2.3-2.2l-3.8-0.5l-10.5-1.2
				l-4.3-2.2l-0.7-4.2l-9.5-2.1l-1-1.6l-5.8,0.4l-18.2,6.9l-4.9,3.6l-6.5,0.3l-1.6,3.5l-6.3-0.7l-3.6-5.3l-0.7-2.5l-4.7,2.5
				l-2.1-2.6l-5-1.1l-0.1-5l-4.5-2.5l-0.6-5.5l-2.2-4.6l-2.6-1.1l-6.2,2.3l-8.6-4.7l-0.7-3.8l-1.2-0.5l-2.3,3.4l-5.1,0.8l-7.1-33.9
				l-6.6-10.9l1.9-2l-5.3-0.1l-6.1,1.1l-2.1,1.8l-3.2,0.7l-2.8-1.5l-4.2,1.3v-4.1l2.8-2.3l-1.4-1.5l-1.9-0.5l-3.8-0.2l-0.3-3.4
				l-6-1.4l-0.8-3.5l2.8-3.2L22,90l1.4-1.6l-0.1-2.6l-1.6-0.5l-3.3-0.5l-3.2-5.4l-3.5,0.1l-5.2,2.4l-13.8-2.6l-3.5-1.9l-2.7,2.2
				l-5-3.1l-8-1.8h-0.2l-8.1-0.5l-3.5-3.8l-1.6,0.5l-2.1,2.2l0.9,3.3l2.8,4.6l-3.2,3l-3.7-2.9l-2.1-0.1l-1.9,1l-0.5,4.1l-5.8,0.5
				l-1.2,1.6l4.2,9.2l-2.7,3.9l-2.8,2.1l-6.1-2l-1.3-2.6l-0.9-0.3l-2.1,1.3l-2.8-0.9l-2.9-3.2l-0.7-2.7l0.8-4l-2.1-1.3l-1.3-1.3
				l-1.5,1.6l-3.3-0.6l-1.4-2.4l0.1-1.7l-3.7-1.6l-1.9-0.1l-2.9,1.9l-3-2.2l-0.8-4l-0.8-1.6l-0.6-0.2l-3.8,2.3l-2-3.9l1.3-3.3
				l-1.1-4.7l-1-3.4l-2.6-0.9l-1.6-1.8l1-2.3l0.1-1.1l-1.8-0.8l-1.1,1l-3.1,0.7l-2.1-5.1l0.1-2.6l-1.3,0.3l-3.3,0.9l-4.9,0.3l-1.3-1
				l-1,0.1l-2.5,2.1l-4.3-0.8l-1.4,1.5l-1.7,3.3l-4.3,2l-2.2-4l0.8-2.6l0.2-2.2l-2.2-2.1l-1.3,0.4l-4.3,1.1l-3.6,2l-0.7,3.8
				l-5.5,1.8l-2.3,1l-0.5,0.3l3.1,4.3l-4.1,3.8l-0.2,1.2l2.4,0.6l2.5,3.3l-2.5,13.9l-2.7,0.5l1,4.9l-13.3,0.3l-4.7-1.7l-4.3,2
				l-4.6-0.1l-2.7,2.1l0.6,2.5l-0.6,7.3l-6.8,6.6l-1.8,10.2v8l-3.6,2.2l-2.8-0.9l-1.4-0.7l-0.7,1.2l-2.7,1.1l-4.3-5.4l0.8-3.2
				l0.3-5.5l-3.9-5.6l-0.3-5l1.7-1.7l-0.4-1.8l-1-2.6l-1.9-1.4v-0.9l-0.1-1.5l-5.7-2.7l-0.2-5.5l-1.1-1.6l-0.1-4.4l-6.8-7.5V70
				l-4.7-7.8l-2.2,1l-1.8-2.5l1-9l0.4-5.1l-1.3-5.7l0.1-3.2l-2.1-1.6l-1-3l1.7-2l-0.3-4.9l3.3-4.2l-5.4,1.5l-5.8-4.7l0.4-3l-2.7-1.4
				l-3.5,0.5l-4-4.5l-7,0.5l-4.8-7.1L-273,1h2.8l3.4-3.1l-1.6-1.4l0.4-3.2l-3.8-4l1.3-3.2l7.1,0.6l6.2,2.9l1.8-1.4h4.9l0.6,4.7
				l2.5,6.4l-1.2,3l0.6,3.9l-4.6,2.6l2.3,3.8l5.7,0.5l3.4,7.6l3.8,8l1.3-1.6l6.1-0.3l1.8,0.9l0.8-7.3l6.6,6l2.4-1.9l4,2.4l0.4-0.3
				l-7.4-4.4l4.8-5l8.6,1.1l3.1,4.5l3.5-1.3l2.8-4.9l2.3-0.3l1.8-2.6l4,0.1l0.2-6l-0.7-1.3l-5-9.5l-0.1-5.9l-5.5-3.4l0.3-3.2l-2-0.9
				l-0.6-3l1.2-1.9l2.1-2.6l0.5-4.7l-2.4-1.4l0.2-4.2l2-0.5l1.1-2.2l2.9-1.2h0.1l3.6-4.7v-0.8l-2-0.4l-3.3,0.4l-1-4.5l-1.7-1.4
				l-3.5,0.2l-0.6-4.6l5.9-5l1.8-4.4l4.4,0.9l-0.3,3l2.2,2.1l3,0.3l0.1-1.4l1.7-2.1l-0.6-2.2l0.3-4.6l2.7-5.5l2.6-4.1l4.7-2.7
				l0.1-0.1l1.6-2.9l-0.5-2.6l-3.4-0.8l-0.8-3.5l2.2-2.7l-1.8-2.3l-0.3-5.9l5.3-3.4l0.2-4.2l3.9-0.5l3-5.1l5,0.3l2.3-3.2l4.7-3.7
				l6.3-0.7l4.9-3.1l3.9,3.7l2.5,0.2l1,2.6l0.1-0.1l-0.4-1.7l0.3-5.5l6.6-2.4l11.7-0.4l13.7,1.8l2.3-1l0.9-7l1.7-5.9l5.6,0.9
				l0.7-0.7l-1.3-2.5l2.8-2.1l1.1-2.2l1.4-3.5l3.2,0.2l4-2.7l2.9,0.1l8.8-11l7.2-0.1l3.2-5.2l-0.2-4.6l5.9-3.4l2.4-1.8l11.4,1.1
				l7.9,5.4l2.5,4.8l-3.7,2.5l-2.1-3l-0.2,0.1l0.5,3.6l3.5,5.6l1.5,5l-0.3,12.8l2.3,8.9l-1.5,7.8l-5.5,7.5l-7.6,1.4l-11.8-7.1
				l-0.7-4.9l-3-4.6l-0.6-7.6l-2.2-4.6l0.7-5l0.4-0.4l-0.9,5.3l-1,6.9l-2.8,4.9l-4.5,1.4l-5,6.2l-1.4,2.5l1.7,2.4l-0.5,2.2l1,7
				l2.9,1.6l1.6-2.1l-2.5-3.1l2-7.1l8.1-0.9l-0.6,7.9l3.6,8.4l1.4,0.8l3.5-8.7l7.5-1.1l5.4,1.8l5.8-0.9l4.5,8.5l-2.8,0.6l0.7,1.4
				l7.6-6.9l0.7-4.3l8.6-5.6l2.2-8l7.7,8.4l0.2,7.3l-3,4.8l-5.1-3.6l-3.7,1.2l1.1,3.1l-1.2,3.4l3.3,3.1l8.2-4.8l2.1,2l1.7-1.7
				l16.6,4.1l0.9,1.7l2.3-2.8l8,1.9l-3.3,6.3L19.3-93l1.3,1.8l7.5-0.7l5,3.7L43.9-88v4.5l-2.6,2.3l0.9,0.7l1.2-1.8l2.4,0.5l3-1.8
				l0.1-4.2l0.8-3.7h-0.1l-3-5l0.8-4.8l5.6-1.4l1.5,5.4L54.3-92l-1.6,0.2h3.7l7.5,8.1l2.9,5.3l5.7,9.2l1.4,6.1l1,1.5l3.7-3.4
				l-1.2-1.7l-0.8-3l1.3-3.7l-4-4.1l0.2-3.3l5-1.5l2.9-5.2l-3.3-4.3l4-3.8l6-1.4l3.7-3.6l5.1-6.6l4.8-3.7l1.2,0.5l-0.2-0.5l0.4-5.2
				l6.3,0.5l0.9,7.3l-3.8,0.5l3.6,4.8l-1.2,8.3l-5.5,5.2l0.9,4.4l-1.1,3.8l-8.6,20.4l0.9,5.6l-5.4,10.7l-7.8,5l-5.2,2L70-41.1v1.9
				l12.2,7.5l3.6-3.8l5.8-2.1l6-6.1l0.4-8.4l4.5-4.3l7.5,1.1l-1.6-1.9h-7.6l-0.5-7.9l7-11l-0.1-11.2l3.2-4.8l3.1-0.9l2.5-2.2
				l1.9-5.3l1.9-0.9l-2.2-0.2l-1-3.6l3.1-1l2.1,2.4l-0.5,1.8l0,0l-0.7,9.5l-3.8,4.6l0.2,4.3l7,6.2l-0.1-1.9l-5.1-5.5l1.9-6.5
				l4.7,4.2l1-3.5l-3.1-1.2l1.5-2.8L129-97l1.5,5.4l4.6-0.3l5.3,9.8h4l-1.5-3.4l-4.6-4.4l0.3-10.6l2.5-4.6l7.6,0.2l6.6,1.1l-2-1.5
				l0.5-1.6l-2.1,2.1l-3.3-3l1.9-3.3l3,0.8l0.7,2.7l0.6-2l2.9,3.2l-1.4,2.7l4.6,0.8l3.1-0.8l-2.5-4.6l1.5-6.1l-2,2.8l-0.4-0.3
				l-1.6,3l-2.5-1.7l0.2-3.9l3.8,2.4l-1.8-1.4l-0.9-2.4l2.2-1.6l3.1,2.3l0.1-0.3l4.1-3.6l4.9-0.1l6.2-4.9l8.6-1.2l-0.1-4.5l9.4-0.2
				l0.7,2.6l4.3,0.8l2.4-2.3l2.8,0.6l-1.2-1.7l-0.2-3l6.3-0.4L210-138l6.5-9.7l4.7-1.7l5.4,4.5l-1.8,2.7l6.5,0.8l-2.4,6.8l1.3-0.2
				l3.1-4.4l9.5,0.3l9.7,11.1l-3.2,11.1l-6.6,12l-11.6,12v1.3l0.5-0.9l6-1.8l4.2-3.2l8.2-4.1l3.4-3.6l3.4,3l0.2,1.1l3.5-4.7
				l14.7,0.2l-0.9,3.1l3.8,2.6l11.6-4.9l1.1-11.5l7.8,3l6.3-2.1l4.7,2.3l7.1,10.5l-3.6,2.5l9.4,8.5l5.4,0.9v-14.2l9.9,1.8l1.7-6.5
				l6.4,1.9l2.8-0.5l-1.2-2.8l2.1-2.9l4-1l-2.6-3l-0.2-3l-2.4,1.2l-2.4-4.4l3.9-3.7l-2.9-3.5l15.2-7.8l7.7-0.5l-6.1,5.5l0.2,1l2-1.8
				h4.4v5l2.3-2.2l-2.4-8.3l5.2-4.5l10.3,0.8l-4.1,4.1l0.8,0.7l1.8-2l1.9,1.6l1.9-2.5l5.1-0.5l4.4,2.2l2.8-0.9l1.9-6.6l5.8-7.1
				l8.5-5.5l2.8,0.3l-1.5-1l1.2-3.3l3.8-0.8l1.2,4.1l-2,1.2l0.9,0.1l5.4,5.1l6.9-3.9l4.5-8.7l7.2-5.4v-10.5l8.3,5.2l3.1-1.8l4.5-0.5
				l0.4-4.1l-4.6-2.6l-3.9,1.2l-5.1-6.4l6.7-6l3.5-1l-0.5-2.5l6.4-10.5l22.9-12.5l15.5-10.3l13.1,3.6l1.9-0.9l-7.1-2.9l3.9-5.1
				l0.7-6l13.2-7.8l5.4,7.1l-3.1,2.2l3.4,2.5l-2.5,3.1l6.1,1.2l1.5,3.2l5.8-1.1l0.2,7.2l-3.5-0.5l1.4,1.6l-11.1,8.4l-5.9-0.6
				l-2.7,2.2l0.4,4.8l-2.6,5.9l-3.5-3.9l-2.1,1.6l-3-2.7l-0.7,3.4l2.2,2.5l5.1-2l0.1,3.4l1.2-0.8l2.9,1.1l1.1,11l-2.2,4.5l-4.4,1.5
				v3.9l2.3,0.2l0.5-3.8l5.5-0.5l2.3-3.1l20,1.7l1.8,6l-9.4,6.5l3.3,1.9l3.4,38l4.6,11.3l-8.3,0.2l-4.3,4.4l-0.2,15.3l-5.4-4.3
				l2.4,9.5l-4.1,0.9l-0.5,5.1l9.3,18.5l1.5,0.1l0.6-3.2h6.2l2.4,5.7l3.9,2.6l3-1.6l6.7,6.4l-5.3,3.3l-2.1-3l-0.1,0.1l6.3,11.2l7,2
				l1.1,4.8l-3.5,3.8l-0.1,5.8l8.5,9.8l-2.9,2.4l-0.4,6.1l4.6,4.6l1.6,6.9L583,8.7l2.6,2.3l-2.4,2.6l-1.1-0.4l2.2,2l0.6,7.6
				l-3.7,1.7l-3.3-4.3l0.5-5.8l-1.2,3.2l-3.5-2.3l-0.6-2.7l3.8-2.4l1.7,2.8l0.1-0.9l2.6,0.7l-1.7-0.7l0.6-2.7l1.6-1.5L542-18.6
				l-13.5-15.2l-0.7-8.1l-4.7-5.5l1.9-2.5l-1-3.3l3.1-3.4l-2.5-8l-2-8.7l-0.8-13l-2.6-4.4l2.2-10.8l-2.3-0.5l0.1-3.8l-1.9-0.1
				l-6.1-4.2l-1-5.1l2.3-3.4l-3.7,1.3l-1.4,4.7l7.5,9l-3.1,2.9l1,4.3l1,6.6l-0.4,4l-5.6,0.9l-5.3-7.3l-1,3.1l-3.2,0.1l-4.8,6.9
				l-0.8,5.9l2.7,8.6l0.8,14.3l2.1,2l2.9-3.6l5,3.7l-4.1,5.3l-3.8,1.5l-1.1,7.8l-5.4,6.1l-4.6-3.9l2.6-3.8l-2,0.1l-4.7,4.2l-5.6,1.8
				l1.1,7.3l-4.2,1l-2.4,2l-4.7,3.1l-0.7,0.5l1,1.5l-0.8,3l-5-0.9L448.1-1.4l1,6.3l-2.3,6.1l1.7,6.7l-2,8.4l-1.7,17.1l-6.8,17
				l-0.2,3.9l4,0.6l7-4.3l2.8,8.1l3.2-4.1l2.6,3.3l2.2-9.6l8.1-4.2l9.9,1.8l5.6,2.3l-2,4.1l1.6,1.9l4,1.7l-3.4-7.8l-4.8-3.6l1.1-4.9
				l2.6,0.7l0.6-0.8l-2.1-3.1l-5.1-3.5l0.8-3.8l3.7-1.7l4.1,5.2l8,5.6l5.9,11l12.3,11l20.3,13.7l-10.7,0.6l-3.3,1.9l1.7,5l3.4,8.8
				l5.2,3.7l4.5,2h5l4.7,9.8l-6-3.1L534,113l-3.2,0.2l0.6,3.4l-0.6,8.5l-7-8.9l-0.7-4.8l-5-2.4l-2.5-7.1l-4-3.1l-3.6-6l-5-7.8
				l-4.2-5.3l-2.6-6.9l-5.5-3l0.8,1.9l2.4,11.6l2.6,3.2l8.3,16.9l1.9,5.5l-1.3,17.1l2,15.1l-3,12.7l-2.1,24.2l-4.6,9.2l-7.8,6.3
				l-10.2-0.1l-7.2,6.9L472,194.4z M247,162.4l7.2-3.2l2.1-2.3l0.9-5.4l3.6,0.3l2.7-3.6l4.2-1.3l2.5-4.1l0.2-3l2.5-0.6l0.6-1.6
				l-0.7-2.4l0.9-1.7l2-1.8l1.1-2.9l-1-3.3l-0.4-6.5l1.2-6.5l-0.3-2.1l-1.4-0.2l-1.6,2.8l-1.1,7.2l-2.6,7.7l-2.8,7.6l-3.2,5
				l-2.6,4.4l-1,3.1l-4.6,4.1l-2.2,3.4l-6.3,4.4l-3.1,0.4l-1.5,0.9l0.5,1.1h4.2V162.4z M109.6-35.3l2.7-0.6l-1.3-0.7l-1.6-3.1
				l4.3-5.2v-5.9l-2.9-3.5l2,6.1l-4.6,8L109.6-35.3z M-101.5-93.6l1.6-1.5l1.2-4.4l4.4-4.9l2.4-2.3l0.5-2.9l-0.8-1.5l-2.6-0.6
				l-5.4,5.9l-1.5,2.9l0.4,4.4l-0.6,1.7l0.2,0.3l-0.4,0.3l-0.4,1.1l-0.4-0.5l-1.9,1.5h-0.4l0.5,0.5H-101.5z M-125-108l1.9,2.8
				l3.7-0.1l0.6-1.6l2.2-1.7l0.4-2.7l-0.2-3.8l1.6-1.9l0.1-2.6l-1.5-2l-4-0.6l-3,0.6l0.2,4.4l-7.1,8.6l0.6,0.7h4.5V-108z
				 M570.6,126.4l0.4-4.2l-1.2-3.7l1.8-1.4l2.7-1.3l2.3,1.5l-0.4,2.8l-1.2,1.4l-0.4,7.6l-2.6,1.1L570.6,126.4z M579.3,121.8l0.1-2.5
				l2.3-2.2l1.9,2.7l0.7,3.3l-3.8,1.3L579.3,121.8z M576.3,113.4l-0.8-5.7l-0.2-6.8l2.8-2.9l1.1-1l-0.2-2.8l4,0.2l0.9,3.9l-1.7,2.7
				l-1.8,2.6l-0.2,2.8l-0.6,3.9l-0.6,4.3L576.3,113.4z M583.3,92.5l-0.1-2.9l-0.2-8.9l3.2-3.2l2.5,4l0.4,5.3l-2,5.8h-3.8V92.5z
				 M585.7,65.8l2.5-2.7l3.3,1l1.9,5.2l-5.9,1.5L585.7,65.8z M586.1,59.4l1.6-3.4l3.7,0.8l-0.6,4.5l-3,1L586.1,59.4z M584.7,49.4
				l1.7-3.3l2.5,0.4l1.9,3.6l-3.5,3.3L584.7,49.4z M581.7,30.5l0.6-4l6.2,2.7l-0.7,2.9l-4.4,2L581.7,30.5z M582.9-72.7l-2.7-4.1
				l5.9-1.4l5.3,0.6l2.3,4l-3.8,2L582.9-72.7z M590.8-80.4l6.4-2.4l4.1,1l-6.6,5.4L590.8-80.4z M537.5-89.5l2.1-6.3l3.1,0.5l4.2,1.9
				l-1.1,13.2L537.5-89.5z M131.3-96.8l2.8-4.2l2.9,1.5l0.7,5.7l-3.1,1.3L131.3-96.8z M241.5-101l0.5-1.9l1.7-2.6l3.5,0.1l1.3,3.6
				l-5.1,3.1L241.5-101z M247.8-108.6l1.8-4.6l3.2,0.5l2.6,1.6l-0.7,2.8l-2.2,3.4L247.8-108.6z M45.1-108.1l-3.6-0.8l-0.2-2.2
				l-2.4-0.3l-2.8-6.3l3.2-3.2v-0.4l-3.5,2.5l-0.5-8l2.7,0.6l-1.9-1.9l0.2-4.6l4.1-3.1l3.1,1l3.9-2l0.2-3.2l3.6,0.2l0.7-4l5.4,2.2
				l1.8-1.7l-2.1-2.1l2.7-3.3l3,1.3l6.5-2l0.4-2.5l3.1-0.2l1.6-6.9l3.3,3.5l1.5-1.3h4l5-3.3l3.9,1.7l4-2.3l4.6,3.9l8.9,0.7l0.9-2
				l6.9-1.8l3.2,3.8l-0.8,5.3l-6.5,3.5l-24,0.5l-3.3,3.8l-3.9-0.8l-2,1.9l-2.2-1.5l-0.3,1.7l-2.4,3.1l-1.5-1.6l-0.3,1.7l-2.5-0.9
				l-0.1,2.2l-2.4-0.2l-0.8,2.4l-4.3,0.4l-1.6-1l0.4,1.3l-2.5,3.5l-5,1.7l-3.8,4.1l-0.9,4.5l-1.5,13.9L45.1-108.1z M6.6-108.1l-3-4
				l1.3-4.8l5.5-1.9l3.7,4l0.4,3.7l-0.9,3.1L6.6-108.1z M138.2-116.6l0.5-2.5l3.2-1l1,3.7l-2.5,2.6L138.2-116.6z M-224.4-140.4
				l5.2,0.4l3.6-2.3l2.6,7.6l1.4,0.9l1.5-6.1l4.3,6.6l-0.6,12.3l-7.4,3.9L-224.4-140.4z M149.8-123.3l-1.9-2.2l2.8-2.5l2.7,0.8
				l1.9,3.2l-3.4,2.1L149.8-123.3z M-69.9-124.3l0.2-1.9l1.6-2.2l2.2,1.7l0.7,2.8L-68-122L-69.9-124.3z M153.2-129.9l1-2.4l3.5,0.3
				l-0.1,2.7l-2.3,2.4L153.2-129.9z M323.5-131.9l-1.9-4.4l8,1l0.4,4.4l-3.4,0.9L323.5-131.9z M191.8-134.6l1.7-3.5l3.1,3.3
				l-2.7,2.5L191.8-134.6z M341.6-138.7h-3.9l-1.2-5.7l2.5-2.5l3.4,2.9l-0.3,2.8l0.9-1l2.3-3.4l3.3,0.7l3.9,0.5l2.4,5.4l-6.2,3.2
				l-7,1.5L341.6-138.7L341.6-138.7z M193.4-140.4l4.7-3l1.9,4.1l-2.9,1.7L193.4-140.4z M176.2-142.6l-0.3-2.5l2.4-2.1l2.6,3l-0.3,4
				L176.2-142.6z M321.5-145.9l-0.9-3.6l-2.3-2.9l-0.5-4.6l0.4-5l6.3-0.6l3.7,3.1l0.2-0.2l-2.3-2.4l0.5-4.5l5,0.8l2.8-2l6.4,0.4
				l2,3.3l-0.2,6.9l-2.3-0.5l2.2,2.2l-2.9,3.3l-2.7-0.6l-2.4,3.9l-2.5-0.3l0.3,4.3l-5.5,0.5L321.5-145.9z M335.8-159.3L334-162
				l-0.5,0.1l2.1,2.5L335.8-159.3z M313.3-149.4l-1.3-5.7l5.4,3.2l2.8,5.2l-3.5,1.4L313.3-149.4z M205.4-154.4l3.1-5.7l0.6-8.3
				l6.3-3.4l-0.2,5.2l0.3,0.4l2.5-2.5l3.9,4.9l-0.4,7.1l-3.3,3.3l-5.3,0.4l-5.9,4.7L205.4-154.4z M224.3-153.3l-0.6-3l0.7-2.4
				l5.4,3.3l0.4,3.4L224.3-153.3z M198.7-163.4l-4.4-3.8l-3.1-1.4l0.1-2.8l1.2-2.9l-3,1.7l-4.5-3.1l-0.9-3.6l3.2-1.7l3.9,1.5l-2.2-2
				v-3.1l2.9-3.8l-0.8-3.7l0.2-0.1l-6.8-1.3l0.6-4.7l5.3-0.1l1.7,5.6l2.3-1.5l3.4-3.4l4.1,3.6l1.8,5.2l1.5,3L202-184v2.2l0.3-0.1
				l1.3,4.9h0.2l0.4-3.4l4.9,4.7l-0.3,4.7l-2,3.3l1.8,2.1l-0.7,4.4l-3.5,1.9L198.7-163.4z M345.5-163.8l-2.6-5.6l3.6,0.1l0.4-2.4
				h2.7l1.2-2.1l4.6,0.4l3-3.3l2.9,6.3l-3.6,6.7L345.5-163.8z M152.6-177.3l-2.4-2.4l0.5-2.7l3.2-1.5l2.3,3.1l0.2,3.5L152.6-177.3z
				 M338.3-182.9l1.3-4.7l4.2,1.6l-1.5,4L338.3-182.9z M118.4-196l2.6-3.3l2.2,3.7l-2.4,3.1L118.4-196z M161.4-193.8l-0.2-2.1
				l0.3-2.5l2.2-2.1l2.7,2.1l2,4.5l-3.9,1L161.4-193.8z M122.8-200.5l0.2-2.8l3.5-3l1,0.4l2.8-3.6l3.1,2.9l-2.5,2.9l0,0l0.5,1.6
				l0.8-1.8l3.1,0.8l2.5-3.6l2.7,4.4l-2.5,4.1l-6,0.1l-0.5-2.4l-5.5,2.8L122.8-200.5z M116.7-200.1l-1.2,1l-3-2.9l1.9-2.8l2.8-0.7
				l1.3,2l1.2-1.6l3.4,0.8l-1,4.2l-3.3,1.7L116.7-200.1z M106.8-208.5l4.9-2.5l1,2.4l-0.1-0.6l1.8-3.1l2.1,4.5l-3.1,2.3l-0.2-1
				l-3.3,3.2L106.8-208.5z M102.1-206.1l0.7-2.5l-2.5-3.1l-2.4-2.4l0.4-4l3.9,1.1l1.3-0.6l1.3-0.2l-1-0.8l-2.8,0.2l-2.6-2l-1.4-5.4
				l5.9,3.8l2.1-0.6l3.3,3l-0.1,0.2l2.3,0.9l2.9,3.3l-3.4,3.4l-4-1.3l-1.6,0.4l0.4,1.9l-0.9,1.7l2.1,0.7l-0.2,4.5L102.1-206.1z
				 M119.5-207.1l-3.6-4.2l4.9-3.4l5.2,4.6l-0.8,4.9L119.5-207.1z M136.3-211.8l3.6-2.3l1.4,4.7l-3.8,1.5L136.3-211.8z M124.4-213
				l-0.6-2.8l4.2-2.1l1.9,3.8l-2.2,3.3L124.4-213z M130.1-216l-1.1-2.1l2.4-2l3.6,3.4l-3,2.3L130.1-216z M110.5-219.4l1.3-3.1l4,3.6
				L113-216L110.5-219.4z M450.7-230.6v-4.6l3.8-5.7l6.6-0.5l2.9,4l-2.2,4.3l-1.7,8.5l-2.3,2.3L450.7-230.6z"/>
			<path class="st4" d="M422.9-161.1l-0.7-2.5l-2.4,0.5l-0.7,2l1.8,1.2L422.9-161.1z M249-108.9l3.3,2.6l1.5-2.4l0.5-2l-1.8-1.1
				l-2.2-0.3L249-108.9z M246.5-104.3l-2.3-0.1l-1.3,2l-0.3,1.2l1,1.3l3.6-2.2L246.5-104.3z M324.3-132.6l2.5,1.6l2.1-0.6l-0.2-2.7
				l-5.5-0.7L324.3-132.6z M337.6-144.2l1,4.4h2.3l0.5-3.9l-2.3-1.9L337.6-144.2z M353.5-139.4l-1.8-4.1l-3.5-0.5l-2.6-0.6l-1.9,2.9
				l-1.1,1.2v5l5.6-1.2L353.5-139.4z M356.9-164.7l3.1-5.7l-2-4.4l-2.3,2.5l-4.4-0.4l-1.2,2h-2.4l-0.4,2.4l-2.9-0.1l1.7,3.6
				L356.9-164.7z M342.5-185.5l-2.3-0.8l-0.7,2.6l2.2,0.5L342.5-185.5z M321.5-149.9l0.8,3.2l4.7,1.3l4.3-0.4l-0.4-4.5l3.1,0.4
				l2.4-3.9l2.9,0.6l1.9-2.1l-1.9-1.9l-4.2-1.2l-3.3-3.9l2.7-0.7l2.5,3.8l4.7,1l0.1-5.4l-1.6-2.6l-5.5-0.4l-2.9,2l-4.4-0.7l-0.4,3
				l2.6,2.7l-1.4,1.7l-4.2-3.5l-5,0.5l-0.4,4.1l0.5,4.2L321.5-149.9z M317.1-146.5l1.8-0.7l-2.1-3.9l-3.2-1.9l0.7,3.2L317.1-146.5z
				 M250.5-100.5l-3.9,2l-0.2,2.7l1.8,2.5l0,0v0.1l0.8,4.4l6.1,8.6v0.1v5.7l3.1,3.7l0.2,0.2l-0.2,0.2l-7.1,5.6l-0.4,3.3v0.1v0.1
				l-1.7,2.5l-1.3,6.1l-0.1,0.2h-0.2l-3.5-0.4l-5.6,4.6l0,0l0,0l-1.9,1l4.4,6.8v0.1v0.1l1.5,19v0.1l-0.1,0.1l-3.9,4.3l2.6,2l0.1,0.1
				l-1.1,5.2l2.3,2.5l0.1,0.1v3.6l2.7,1.9l0.2,0.1L245.1-1L244,2.1l0,0l0,0L239.9,7l-0.4,3.5h6.7l0.1,0.1l2.9,2.3l3.1-2.1l0.2-0.1
				l0.2,0.2l1.7,2.2l0.1,0.2l0,0l2.3,3.4l0.1,0.2l-0.2,0.1l-2.6,1.6v3l2.8,0.2l2.4-1.7l0.2-0.2l0.1,0.3l2.9,5.6v0.1V26l-0.2,6.7
				l3.8,2.1l0.2,0.1v0.2l-1.7,7l2.1,4.7l4.8,1.4l0.3,0.1l-0.1,0.3l-3.6,8.5l-0.7,10.6l3.7,3.9l4-3h0.1h0.1l6-0.2l2.1-3.8l0.2-0.3
				l0.2,0.2l3.2,3.2l4.2-4.9l6.6-14.1l0.1-0.1h0.1l4.4-0.7h0.1h0.1l8.6,3.4h0.1v0.1l1.9,5.6l5.1-2.3l0.1-0.1l0.1,0.1l3.2,2.2h0.1V57
				l5.8,13.1l7.5,13.9l4.7-3.1l0,0l0,0l4.9-2l0.1-0.1l0.1,0.1l3.7,3l2-1.8l0.2-0.2l0.2,0.2l3,2.8l2.8-2.8l0.1-0.1h0.1l6.8,0.2h0.1
				l0.1,0.1l4.3,3.3l8.4-3.1l0.1-0.1l0.1,0.1l2.8,2.3l11.6-5.3h0.1h0.1l3.3,0.7l3.6-1.4l-0.5-2.7v-0.2l0.2-0.1l9-4.7l-2.2-6.3
				l-0.1-0.1l0.1-0.1l3-3.2l-1.2-3.1l-5.7-3.7l-0.2-0.1l0.1-0.2l3-5.8l-5.6-3.9l-0.2-0.2l0.2-0.2l2.6-3.1v-13l0.2-0.1l11-4.2l0.4-5
				v-0.2h0.2l6.5-0.4l1.5-4L420.5,8V7.8l3.3-1.5l-2.4-8.4L417-5.2l-0.2-0.1l0.1-0.2l2.9-10.2l-4-10.6l-0.1-0.1l0.1-0.1l2.2-2.9
				l0.1-0.2l0.2,0.1l7.7,2.7l4.9-1.1l1.7-3l0.1-0.1h0.1l5.9-0.9l1-3.8L430-55.9V-56v-0.1l1-4.9v-0.1l0.1-0.1l6.5-4.6l-2.5-4.7
				l-0.1-0.2l0.1-0.1l6.3-5.9l0.1-0.1h0.1l5.6-0.6l3.2-3.6l0.6-6.3l-3.7-3.3l-0.1-0.1v-0.1l-0.2-4.1l-2.3-3.5l-0.1-0.2l0.2-0.2
				l2.8-2.6l-3-3.6l-0.2-0.2l0.2-0.2l7.3-6.7l0,0l0,0l3.3-1.4l2.4-3.6l-4.6-9.6h-5.8h-0.1l-4.5-2h-0.1v-0.1l-2.4-6.1L440-135
				l0.1-0.1l9.2-10.8v-5.3l-12.1-9.1l-1.4,2.8l-7.8,4.4l-5.7-5.4l-5.7-0.6l-8.1,5.3L403-147l-2,7l-3.7,1.1l-4.5-2.3l-4.4,0.4l-2.3,3
				l-2-1.7l-1.8,2l-2.3-2.1l3.3-3.3l-7.7-0.6l-4.4,3.8l2.4,8.2l-4.4,4.3v-6.4h-3l-3,2.7l-0.7-3.3l4.4-4l-4.7,0.3l-13.9,7.1l2.7,3.3
				l-4,3.8l1.6,2.8l2.8-1.4l0.3,4.1l3.4,4l-5.3,1.3l-1.6,2.1l1.4,3.4l-4.3,0.7l-5.7-1.7l-1.7,6.4l-9.7-1.7v14.2l-6.8-1.1l-10.5-9.5
				l3.8-2.7l-6.4-9.5l-4.1-2l-6.2,2.1l-7-2.7l-1,10.8l-12.6,5.4l-4.8-3.3l0.7-2.6l-12.9-0.1l-3.4,4.5l-0.9,3l-0.8-4.4l-2.4-2.1
				L250.5-100.5z M459.2-225l1.7-8.4l2-3.9l-2.2-3l-5.6,0.4l-3.3,5v3.9l6.1,7.3L459.2-225z M450-151.4v5.8l-0.1,0.1l-9.2,10.8
				l2.3,5.9l4.4,1.9h6l0.1,0.2l2.3,4.8l3.8,0.6h0.1l0.1,0.1l2.4,4.3l5.1-2.5h0.1h0.1l4.8,1.5l3.6-3.3l0.1-0.1h0.1l5.6-0.4l4.2-4.4
				l-0.8-4.2v-0.2l0.2-0.1l4.2-1.3l1.1-4v-0.2h0.2l3.6-0.4l1.1-3.4v-0.1h0.1l6.6-1.6l1.7-3.1l0.1-0.1h0.1l9.9-0.6h0.2l0.1,0.2
				l2.3,6.3l6.9-2.1l0,0l0,0l7.5,0.2l6.1-17.4l0.1-0.3l0.3,0.1l3.7,1.9l4.7-1.4l-1.4-15.4l-4.3-2.4l10.1-7l-1.4-4.7l-18.7-1.6
				l-2.3,3l-5.1,0.4l-0.6,4l-4.1-0.3v-5.5l4.7-1.6l1.8-3.8l-1-10.1l-1.8-0.7l-2.3,1.4l-0.1-3.7l-4.4,1.7l-3-3.4l1.1-5.5l3.7,3.3
				l2.1-1.7l3.1,3.4l1.8-4.3l-0.4-5.1l3.4-2.8l6,0.6l9.9-7.5l-2.4-2.8l5,0.7l-0.1-4.8l-5.4,1l-1.6-3.4l-7.2-1.4l2.8-3.5l-3.7-2.7
				l3.4-2.4l-4.3-5.5l-12.1,7.1l-0.7,5.8l-3.3,4.3l8.1,3.3l-4.4,2l-13.1-3.5l-14.7,9.7L466.3-211l-6.1,9.9l0.6,3l-4.1,1.1l-5.8,5.3
				l4.1,5.1l3.7-1.1l5.5,3.1l-0.6,5.5l-5.1,0.6l-3.4,2l-7.2-4.5v9.2l-7.4,5.5l-2.8,5.5l12.2,9.2L450-151.4z M597.3-81.8l-4.6,1.8
				l2.2,2.2l4.3-3.5L597.3-81.8z M574.5,14.8l2.1,1.4l1-2.6l-1.2-1.9l-2.3,1.5L574.5,14.8z M581.8,9.1l-1,0.9l-0.3,1.6l2.3,0.9
				l1.2-1.4L581.8,9.1z M579.4,13.4l-0.6,6.6l2.6,3.3l2.3-1.1l-0.5-6.5l-1.9-1.7L579.4,13.4z M587.3,29.8l-4.2-1.9l-0.3,2.4l1.1,2.4
				l3-1.4L587.3,29.8z M587,47.2l-1.1,2.2l1.7,2.4l2.1-2l-1.3-2.5L587,47.2z M588.3,61.2l1.6-0.6l0.4-3l-2.1-0.5l-1,2.2L588.3,61.2z
				 M588.6,64.2l-1.7,1.8l1.3,3.6l4-1l-1.3-3.7L588.6,64.2z M586,79.1l-2,2l0.2,8.5l0.1,2h2.1l1.7-4.9l-0.4-4.8L586,79.1z
				 M582.8,98.1l-0.7-2.7l-2.1-0.1l0.2,2.2l-1.4,1.2l-2.5,2.6l0.2,6.3l0.8,5.1l0.9,0.5l0.4-2.9l0.6-3.9l0.2-3.1l2-2.8L582.8,98.1z
				 M572.1,117.9l-1.1,0.9l1,3.2l-0.4,4.2l1,2.8l1-0.5l0.4-7.4l1.3-1.5l0.2-1.9l-1.3-0.9L572.1,117.9z M581.5,118.7l-1.1,1.1v1.8
				l0.7,1.6l2.1-0.7l-0.4-2.2L581.5,118.7z M540.3-94.7l-1.7,5l6.3,7.1l0.9-10.2l-3.4-1.5L540.3-94.7z M586.1-77.1l-4.3,1l1.7,2.5
				l6.3,1l2.5-1.3l-1.5-2.7L586.1-77.1z M497.7-90l3-0.1l1.4-4.3l6.1,8.4l4.3-0.7l0.3-3.1l-1-6.4l-1.1-4.5l-4.1-2.3l-0.1-0.1v-0.1
				l-0.8-4.1l-2.6-2.5l-4.3,0.4h-0.2l-0.1-0.2l-2.5-6.6l-3.6-0.8h-0.1l-5.9-8.6l-4.1,4.3l-0.1,0.1h-0.1l-5.6,0.4l-3.7,3.3l-0.1,0.1
				h-0.1l-4.8-1.5l-5.2,2.5l-0.2,0.1l-0.1-0.2l-2.5-4.4l-3.3-0.5l2.2,4.5l0.1,0.1l-0.1,0.1l-2.6,3.8v0.1H456l-3.3,1.4l-7.1,6.5
				l3.2,3.8l-0.2,0.2l-2.8,2.6l2.3,3.4v0.1v0.1l0.2,4l3.7,3.3l0.1,0.1v0.1l-0.6,6.5v0.1l-0.1,0.1l-3.4,3.8l-0.1,0.1h-0.1l-5.6,0.6
				l-6.1,5.7l2.5,4.8l0.1,0.2l-0.2,0.1l-6.6,4.7l-0.9,4.8l9.6,20l4.4-3l0.1-0.1h0.1l10,3.3h0.1v0.1l1.1,5.6v0.1v0.1l-2.4,4.3
				l1.8,3.6l4-2.9l0.1-0.1h5.4l0.1,0.1l2.5,4.4l3.8-2.5l2.6-2.1l3.5-0.9l-1.1-7.2l6.2-2l4.8-4.3l4.4-0.1l-3.3,4.7l3.1,2.7l4.5-5.1
				l1.1-8.1l4.1-1.6l3.3-4.3l-3.4-2.6l-3,3.7l-3.1-3l-0.9-14.6l-2.7-8.7l0.8-6.4L497.7-90z M501.4,125.4h-0.2v-0.2l-0.7-3.5
				l-4.8-3.5l-5.4,4.1l3.2,3.5l5.1,0.4h0.3v0.3l-1.2,8v0.2h-0.2l-3.6,0.1l0.6,5.1v0.2l-0.1,0.1l-5.2,3.5h-0.1H489l-8.6,0.6l-2.2,2.8
				l1.7,3.3l0.2,0.3l-0.3,0.1l-4.4,1l-0.5,16.6l3,5.1l-11.6,1l-3.8,8.4l10.8,11.1l0.3,4.1l6-5.7l10.2,0.1l7.4-6l4.4-8.8l2.1-24.1
				l3-12.6l-2-14.8L501.4,125.4z M482.1,64.8l-2.1-2.6l1.8-3.7l-4.5-1.8l-9.5-1.7l-7.4,3.8L457.8,70l-3.1-4l-3.5,4.5l-3-8.7
				l-6.2,3.8l-5.3-0.9l0.3-5l6.8-17l1.7-17l2-8.2l-1.7-6.8l2.3-6.1l-1-6.5l14.3-14l4.5,0.8l0.4-1.7l-1.3-2l2-1.3l-2.5-4.3h-4.9
				l-4.2,3.1l-0.3,0.2l-0.1-0.3l-2-4l-0.1-0.1l0.1-0.1l2.4-4.4l-1.1-5.3l-9.8-3.3l-4.5,3l-1.1,3.9v0.2h-0.2l-5.9,0.9l-1.7,3
				l-0.1,0.1h-0.1l-5.1,1.1h-0.1h-0.1L418-29l-2,2.6l4,10.6v0.1v0.1l-2.9,10.1l4.3,3l0.1,0.1v0.1l2.5,8.7l0.1,0.2L424,6.7l-3.2,1.5
				l0.2,4.1v0.1l0,0l-1.6,4.2l-0.1,0.2h-0.2l-6.5,0.4l-0.4,4.9v0.2l-0.2,0.1l-11,4.2v12.9l-0.1,0.1l-2.5,2.9l5.6,3.9l0.2,0.1l-3.1,6
				l5.6,3.7h0.1l1.4,3.4l0.1,0.2l-0.1,0.1l-3,3.2l2.2,6.1l8.9-4.6l0.2-0.1l0.1,0.1l2.9,3.2l0.1,0.1l-0.1,0.2l-4.4,9.5l0.5,4.6v0.2
				l-0.1,0.1l-3.3,1.9l0.2,3.7h7.5l0.1,0.1l3.3,5L427,93l6-5.5l1-4.1v-0.2h4.7l1.4-2.8l0.1-0.2h0.2l3.2,0.5h0.2v0.2l2.9,9l0.1,0.2
				l-0.1,0.1l-2,2l-0.1,0.1h-0.1l-7.2,1.2l1.8,3.8l0.1,0.2l-0.1,0.1l-2.9,3.1l-0.7,4.1v0.1v0.1l-4.3,5l1.8,2.3l0.1,0.2l-0.1,0.2
				l-2.9,3.8v4.6l7.7,3.8h0.1v0.1l6.2,8.6l3.9-3.7l0.1-0.1h0.1l8.3,0.1h0.1l0.1,0.1l3.7,3l11.1-3.7l0.5-0.2l-0.1,0.5l-1.2,4.7
				l3.8,6.2l-1.4,4.5l2.3,6.6l4-0.9l-1.6-3.2l-0.1-0.1l0.1-0.1l2.3-3.1l0.1-0.1h0.1l8.7-0.6l5-3.4l-0.6-5.5h0.3l3.7-0.1l1.1-7.5
				l-5-0.4h-0.1l-0.1-0.1l-3.5-3.8l-0.2-0.2l0.2-0.2l5.8-4.4l0.2-0.1l0.2,0.1l5.1,3.6l0.1,0.1v0.1l0.7,3.5l2.6,0.7l1.3-16.7L504,104
				l-8.2-16.7l-2.7-3.3l-2.4-11.8l-1.6-3.9l-0.2-0.5l-0.4-0.2L482.1,64.8z M470,133.8l1-4.2l-10.8,3.6h-0.1l-0.1-0.1l-3.7-3
				l-8.1-0.1l-4,3.8l-5.1,7.8l4.2,6.7l4.5,4l9.6-4.7l1.3-4l7.2-8.1L470,133.8z M437.5,125.1l-7.8-3.9l-0.1-0.1V116l0.1-0.1l2.8-3.7
				l-1.8-2.3l-0.1-0.2l0.1-0.2l4.4-5.1l0.7-4.1v-0.1l0.1-0.1l2.8-3.1l-1.9-4l-0.2-0.3l0.3-0.1l7.5-1.2l1.8-1.8l-2.8-8.7l-2.8-0.4
				l-1.4,2.8l-0.1,0.1h-4.6l-0.9,4v0.1l-0.1,0.1l-6.1,5.6l-0.1,0.1h-0.1l-3.9,0.2h-0.2l-0.1-0.1l-3.3-5H412v-0.2l-0.2-4.2v-0.2
				l0.1-0.1l3.3-1.9l-0.5-4.5v-0.1v-0.1L419,68l-2.7-2.9l-18,9.4l0.5,2.7v0.2l-0.2,0.1l-3.9,1.5h-0.1h-0.1l-3.3-0.7l-11.7,5.3
				l-0.2,0.1l-0.1-0.1l-2.8-2.3l-8.4,3.1l-0.1,0.1l-0.1-0.1l-4.3-3.4l-6.6-0.2l-2.9,2.9l-0.2,0.2l-0.2-0.2l-3-2.8l-2,1.8l-0.2,0.1
				l-0.2-0.1l-3.8-3.1l-4.7,1.9l-4.6,3l5.8,3.9l0.2,0.2l-0.2,0.2l-1.7,2.4l2.7,2.7l4.8-2.7l0.2-0.1l0.1,0.2l2.3,4.1l3.7-0.9l0.3-0.1
				v0.3l0.5,7.3l3.8,2.2l0.3,0.1l-0.2,0.2l-2.1,3l6,9l9.7-5l7.4,2.6l8.9-1.4l13.1,12.9l16.2,16.7l6.4-2.6l4,1.8l2.8-1.4l5.4,1.7
				l2.9-0.4l5.1-7.8L437.5,125.1z M531.5,106.7l-4.8-2.1l-5.5-4l-3.5-9.1l-2-5.8l4.3-2.4l7.9-0.4L510,70.8l-12.6-11.4l-5.8-10.9
				l-7.9-5.5l-3.7-4.7l-2.6,1.1l-0.6,2.7l4.7,3.3l2.6,3.8l-1.4,1.8l-2.3-0.6l-0.7,3.3l4.5,3.4l4.5,10.4L497,72l2.7,7.1l4.1,5.3
				l5,7.9l3.5,5.8l4.1,3.1l1.3,3.7l1.1,3.3l5.1,2.4l0.7,5.1l5.2,6.7l0.4-5.8l-0.7-4.4l4.1-0.3l1.6-0.7l3.8,2l-3.1-6.5H531.5z
				 M-185.4,14.6L-185.4,14.6l2.6,1.7l2.4-1.7l0.1-0.1h0.1l3.7,0.2l3.8-2.3l0.4-2.9V9.2h0.3l4.3,0.6l2.3-0.7l0.2-0.1l0.1,0.2
				l1.7,3.4l3.8,1.4l0.8-0.8l0.3-4.3l-2.5-1.8l-0.1-0.1V6.9l-0.2-2.8l-1.6-1.5l-2.4-1.7l-0.1-0.1V0.7l0.3-4.2l-4.8-3.7l-0.1-0.1
				v-0.1l-0.4-2.8l-1.8-0.9l-0.2-0.1v-1.9l-0.7-1.3l-2.7-0.2l-0.5,1.1l-0.1,0.1h-0.1l-1.1,0.2h-0.2l-0.1-0.1l-0.7-0.9h-1.2l-1.8,1.6
				v3.1l-0.1,0.1l-1,1.4l0.9,0.7l0.1,0.1v0.1l0.1,1.5v0.3h-0.3l-2-0.1l-0.8,1.3l0.6,2.8l-0.1,0.1l-6.1,6.2l1.2,2.3l-0.2,5.2
				L-185.4,14.6z M-194.6-9.5l0.1,6.2l4.2,8l5.9-5.9l-0.5-2.6v-0.1l0.1-0.1l0.9-1.6l0.1-0.1h0.2l1.8,0.1l-0.1-1.1l-1-0.8l-0.2-0.2
				l0.2-0.2l1.1-1.6v-2.9l-3.9-4l-3.9-0.8l0,0l0,0l-2.8-1.8l-0.1-0.1v-0.1l-0.7-2.3l-1.4-0.2l-1.4,0.8l-0.2,0.1l-0.1-0.1l-2.9-2.5
				l-2,2.5l-1,1.6l0.4,2.1l2.1,1L-200-13L-194.6-9.5z M-195.6-37.2l-2.3,1L-199-34l-1.7,0.4l-0.1,2.8l2.4,1.4l-0.6,5.3l2.9,2.5
				l1.3-0.7h0.1h0.1l1.7,0.3h0.2v0.2l0.7,2.4l2.6,1.8l3.9,0.8h0.1l0.1,0.1l3.9,4l1.7-1.6l0.1-0.1h1.6l0.1,0.1l0.7,0.9l0.8-0.1l0.4-1
				l-1.7-2.4V-17v-0.1l-0.2-2.3L-180-20h-0.1v-0.1l-0.6-1.2v-0.1v-2l-0.9-1.1l-0.1-0.1v-4.2l-6.2-8.1L-195.6-37.2z M-199.8-50.7
				l2.3,1.8l0.9,4l2.6-0.3l3,0.6v2l-3.7,4.9l7,0.3l8.7-6.4l-0.7-1.1V-45v-1.6l0.1-0.1l1-1l0,0l0,0l1.5-0.9l-0.2-1.2L-179-50l-1,0.8
				l-0.1,0.1l-0.2-0.1l-1.6-0.9h-0.1v-0.1l-1-1.9l0,0v-0.1l-0.1-1.7V-54v-0.1l0.9-1.6l-4.2-0.3h-0.1h-0.1l-0.3-0.3l-3.9-0.3
				l-2.8-2.7l0.3-2.6l-2.7-0.6l-1.6,3.8l-5.7,4.8l0.4,3.1L-199.8-50.7z M-181.7-56.1l1.8-0.8h0.1h0.1l3.5,0.1l1.9-1.8l0.1-0.1h0.1
				l2.6,0.1h0.2l0.1,0.2l1.1,3.8l1-0.6h0.1h0.1l1.9,0.3h0.1l0.1,0.1l1,1.4l5.1-0.5l3-1.9l3.4-4.8l0.1-1.2l-2.3-2.8v-0.1v-0.1
				l-0.3-2.6l-5.7-1h-0.1h-0.1l-2.8-2h-0.1v-0.1l-3.6-6.8l0,0l0,0l-1.2-2.7l-1.1-0.6l-2.2,0.6h-0.1h-0.1l-0.5-0.1L-175-79l-4.7,2.7
				l-2.4,3.8l-2.6,5.2L-185-63l0.7,2.6l-1.8,2.3l-0.1,1.8l0.1,0.1L-181.7-56.1z M-181.1-29.1L-181.1-29.1l0.1,4.3l0.9,1.1l0.1,0.1
				v2.1l0.5,1l1.9,0.6l2.9,0.1l0.9-1.6l0,0l0,0l5.4-4.4l0.6-4.4l-2.4-2.1l0,0l0,0l-1.2-2.6V-35v-0.1l0.1-4.5l-7.1-3.8l-8.7,6.3
				L-181.1-29.1z M-161.9-11.9L-161.9-11.9l0.1-0.1l4-1.8l2.3-2.1l0.1-2.6l-0.6-1.7l-2.1-1.7h-0.1V-22l-0.7-1.9l-2-0.2l-3.1,1.5
				h-0.1h-0.1l-2.2-0.2h-0.1l-0.1-0.1l-1.9-2.3l-5.3,4.3l-0.9,1.7l-0.1,0.1h-0.2l-2.8-0.1l0.2,2.1l1.7,2.3l2.9,0.2h0.1l0.1,0.1
				l0.8,1.5v0.1v1.7l1.8,0.8l0.1,0.1v0.1l0.4,2.8l4.7,3.6l2.3-1l0.6-1.4l-0.4-2.3l-0.7-1.4l-0.1-0.1l0.1-0.1L-161.9-11.9z M-154.7,8
				l7-3.6l0.9-1.2l0.1-5.8l0,0l0,0l0.7-3.9v-0.1v-0.1l3.1-3.6l-2.5-2.7l-1.4,0.9l0,0l0,0l-1.3,0.4h-0.1l-0.1-0.1l-1.9-1.1h-0.1V-13
				l-1.7-3.1l-2.8-0.1v0.4v0.1l-0.1,0.1l-2.5,2.2l0,0l0,0l-3.9,1.8l-0.9,1.5l0.6,1.3l0,0l0,0l0.4,2.4v0.1v0.1l-0.7,1.6v0.1h-0.1
				l-2.4,1.1l-0.3,4l2.3,1.7l0,0l0,0l1.7,1.6l0.1,0.1v0.1l0.2,2.7l2.4,1.8L-154.7,8z M-168.1-25.7l1.9,2.4l2.1,0.2l3.1-1.5h0.1h0.1
				l2,0.2l0.2-1.2v-0.1v-0.1l1.4-1.9l0,0l0,0l2.8-3v-2l0.1-0.1l1.7-1.7l-0.3-3.5l-2-1.3h-0.1v-0.1l-0.9-1.9l-4.3,0.2l-1,1.2
				l-0.1,0.2l-0.2-0.1l-3.8-2.3l-1.1-0.3l-4.5,2.6l-0.1,4.5l1.1,2.5l2.4,2.2l0.1,0.1v0.1L-168.1-25.7z M-154.9-16.8l2.9,0.1h0.1
				l0.1,0.1l1.8,3.2l1.8,1l1.1-0.3l1.6-1l0.2-0.1l0.1,0.2l2.7,3l1.8,0.6l1.6-0.1l5.4-4.8l0,0l0,0l2.9-2l-0.7-1.8l-1.1-3l-5.6-9.4
				l-3.4-0.1l-1.2,1l-0.2,0.1l-0.2-0.1l-1.3-0.9l0,0l-1.3-0.9l-0.7,0.5l0,0h-0.1l-2.4,0.6h-0.1h-0.1l-1.3-0.6l-0.9,0.8l-0.1,0.1
				h-0.1l-2.6,0.1l-2.8,3l-1.4,1.9l-0.2,1.3l0.7,1.9l2.1,1.7l0.1,0.1v0.1l0.6,1.9l0,0l0,0L-154.9-16.8z M-178.3-47.4l-0.9,0.9v1.2
				l0.7,1.2l7.2,3.8l4.6-2.7l0.1-0.1h0.1l1.2,0.4l0,0l0,0l3.6,2.2l1-1.2l0.1-0.1h0.1l4.5-0.2l0.8-1l1.3-1.9V-49l-2-1.1h-0.1v-0.1
				l-1.6-2.5l0,0v-0.1l-0.4-2.5l-2.8,1.8h-0.1h-0.1l-5.3,0.5h-0.2l-0.1-0.1l-1-1.4l-1.7-0.3l-1.2,0.7l-0.3,0.2l-0.1-0.3l-1.1-3.9
				l-2.3-0.1l-1.9,1.8l-0.1,0.1h-0.1l-3.6-0.1l-1.7,0.8l-1,1.8l0.1,1.6l0.9,1.7l1.3,0.8l0.9-0.7l0.1-0.1h0.1l2.1,0.1h0.2v0.2
				l0.2,1.6v0.2l-0.2,0.1L-178.3-47.4z M-157-52.9l1.5,2.3l2.1,1.2l0.1,0.1v4.9v0.1l-1.3,1.9l0,0l-0.8,1l0.9,1.8l2.1,1.3l0.1,0.1
				v0.1l0.4,3.7v0.1l-0.1,0.1l-1.7,1.7v1.6l2.4-0.1l1-0.9l0.1-0.1l0.2,0.1l1.4,0.6l2.2-0.6l0.8-0.6l0.2-0.1l0.2,0.1l1.5,1l1.2,0.8
				l1.1-1l0.1-0.1h0.1l3.5,0.1l1.3-2l0.9-2.6l-0.8-0.8l0,0l0,0l-1.6-2l0,0l0,0l-1.3-3.9v-0.1v-0.1l0.9-2.8v-0.1l0,0l2.9-3.3l0,0l0,0
				l1.8-1.7l0.4-2l-2.3-2.7l-5.5,0.1h-0.1h-0.1l-6-3.9l-0.1-0.1v-0.2l0.1-2.3l-0.7-0.4l-0.6,0.6l-0.1,0.1h-0.1l-5.2,0.7l-0.1,0.5
				v0.1v0.1l-3.4,4.8L-157-52.9z M-136.2-33.5L-136.2-33.5L-136.2-33.5l-1.4,2.1l5.4,9.2l3.8-2.3h0.1h0.1l4.8-0.2l5.3-3.2l-1.1-3.1
				l-5.2-6.6l-2.6-1.1h-0.1l0,0l-2-2.1l-0.1-0.2l0.1-0.2l1.4-1.9l0.6-2.4l-1.2-1.2l-2.6,2.1l-0.2,0.2l-0.2-0.2l-2.5-2.6l-0.1-0.1
				v-0.1l-0.2-2.9l-1.4,1.3l-2.9,3.3l-0.8,2.6l1.2,3.7l1.5,2l1,0.9l0.1,0.1l-0.1,0.2L-136.2-33.5z M-127-43L-127-43L-127-43
				l-1.4,1.9l1.8,1.9l2.6,1.1h0.1v0.1l5.2,6.7l0,0l0,0l1.1,3.1l1.7-0.3l1.2-1.8l0.1-0.1h0.1l3.2-0.2h0.1l0.1,0.1l1.2,1.2l2-1.1
				l0.6-6.9l-3.1-1.7l-0.1-0.1v-0.1l-0.2-2.8l-1.4-1.3l-2.3,0.8h-0.1l-0.1-0.1l-7.6-4.1l-4.5,0.5l0.4,0.3l0.1,0.1v0.1L-127-43z
				 M-84.2-28.9L-84.2-28.9l8.5,0.2l0.2-5.3v-0.1l0.1-0.1l1.6-1.8l-1.8-1.8l-4.4,1.1h-0.1l-0.1-0.1l-6.7-3.9H-87v-0.1l-4.1-7.5
				l-6.1-3.7l-9.3-0.5l-3.2,2.2h-0.1h-0.1l-3.6,0.2l-1.1,1.7v0.1h-0.1l-4.3,2.6l4.6,2.4l2.3-0.8h0.1l0.1,0.1l1.6,1.5l0.1,0.1v0.1
				l0.2,2.8l3.1,1.7l0.1,0.1v0.2l-0.6,6.9l9.4,0.1l1.2-0.8h0.1h0.1l3.1,0.1h0.2l0.1,0.2l0.9,2.4l2.5,1.1l0,0l0,0l2.1,2.2L-84.2-28.9
				L-84.2-28.9z M-162.8-88l-1,4l0,0l0,0l-1.8,2.8l-0.1,0.1h-0.1l-4.2,0.8l1.1,2.5l3.6,6.8l2.7,1.9l5.8,1h0.2v0.2l0.4,2.7l2.3,2.8
				l0.1,0.1v0.1v0.3l4.9-0.7l0.7-0.7l0.1-0.1l0.2,0.1l1,0.5l0.2,0.1v0.2l-0.1,2.3l5.8,3.7l5.5-0.1h0.1l0.1,0.1l2.3,2.7l4-1.8
				l-0.6-1.9v-0.1v-0.1l1.2-6.8v-0.2h0.2l3.5,0.2l4.4-4.3l-0.6-5.1h-4.3v0.3l-0.4-0.3l-4.7-4.2l-2.8,0.2h-0.1l-0.1-0.1l-3.4-2.8
				l-0.1-0.1V-81l-0.6-2.5l-2.5-1.8l-0.9,0.7l-0.4,2.3v0.2h-0.2l-6.2-0.5h-0.1l-0.1-0.1l-2.1-1.8l-6.1-1.6l0,0l0,0l-3.2-2.3l0,0l0,0
				l-1.7-1.7L-162.8-88z M-132.9-52.9l-0.4,2.1l0.2,3.3l2.2,2.4l2.6-2.1l0.2-0.2l0.2,0.2l0.6,0.6l5-0.6h0.1h0.1l2.5,1.3l4.6-2.8
				l1.1-1.8l0.1-0.1h0.1l3.7-0.2l2.9-2.1l-3.4-3.3l-0.1-0.1v-0.2l1.3-4.8l-2.5-3.1l-2.2,0.1h-0.1h-0.1L-120-68l-4.4,4.3l-0.1,0.1
				h-0.1l-3.4-0.2l-1.2,6.5l0.6,2l0.1,0.2l-0.2,0.1L-132.9-52.9z M-57.7,87.8L-57.7,87.8L-57.7,87.8l-1-2.9l0.1-0.1l2.2-1.7l0.5-1.6
				l-1.1-2.3l-5.6-1.7l-2.6,0.7l-1.4,3.2l-0.1,0.2h-0.2l-3.4-0.3h-0.1l-0.1-0.1l-3.1-3.1l-5.7-1.3h-0.1l-0.1-0.1l-1.2-2.4l-0.1-0.2
				l0.1-0.1l2.2-2.4l-1.4-1.5L-80,70v-0.1l0.1-1.5v-0.2l0.2-0.1l2.1-0.6l0.2-3.5l-2.9,0.1l-1.4,1l-0.4,0.2l-0.1-0.4l-0.5-4.1v-0.2
				l0.2-0.1l1.3-0.5l0.1-2.5l-1.3-1.5l-0.1-0.1v-0.1l0.2-5.8l-1.6-2.2v-0.1v-7.8l-1.6-3.4v-0.1v-0.1l0.7-3.1l-2-2.3l-0.1,0.4l0,0
				l-1.1,3.5l0,0l0,0l-0.8,1.5v0.1h-0.1l-6,3.4l-1.5,2.8l-0.1,0.1h-0.1l-4.1,1.3l0,0l0,0l-2.1,0.3L-107,48l-0.1,0.1h-0.1l-6.1,0.5
				l-0.2,0.2l-0.2,3.2l1.7,4.1l2-0.4l1.4-1.3l3,1.4l-0.1,2l-0.9,1.8l1,1.1l2.8,1l1.1,4l1.1,5l-1.3,3.1l1.3,2.6l3.3-2l1.4,0.4l1,2.1
				l0.7,3.7l2.1,1.6l2.6-1.7l2.4,0.1l4.5,2l-0.1,2.1l1,1.7l2.3,0.4l1.8-2l2,2l2.6,1.6l-0.6,4l0.6,2.3l2.6,2.8l2.1,0.7l2.1-1.3
				l1.7,0.6l1.3,2.6l5.2,1.7l2.3-1.7l2.3-3.3l-4-8.8L-57.7,87.8z M-116,41.6L-116,41.6v-0.2l0.3-3.8l-2.5-3.1l0,0v-0.1l-0.9-3.5l0,0
				l0,0l-0.2-2l-2-0.7l0,0l0,0l-6-3.3l-0.1-0.1v-0.2l-0.1-3.3l-5.9-1l0,0l0,0l-6.3-3.7l-0.1-0.1v-2.2l-0.9-1.5l-3-0.3h-0.1l-0.1-0.1
				l-4.5-7l-5.9,3.1l0,0l0,0l-3.4,0.6l-0.3,4.3v0.1l-0.1,0.1l-0.9,0.8l0.3,3.4l1.8,2.3l2.7,0.6h0.1l0.1,0.1l4.8,4.6l0.1,0.1v3.7
				l-0.1,0.1l-2.1,2.4l-0.1,2.3l1.7,0.1l2-0.8l0.4-0.2v0.4l0.1,3.8l1.2,1.7l2.8,0.6h0.2v0.2l0.2,6.4l2.7,2.6l-0.3,2.8l-0.7,2.3
				l1.6,2.8l3.1-1.4l1.6-3.1l1.8-2l4.4,0.9l2.4-2l1.7-0.1l1.3,1l4.4-0.3l3.3-0.9l2.2-0.5l0.1-0.2l0.1-1.9l-0.2-1.6L-116,41.6z
				 M-113.2,48.1l5.9-0.5l4.2-3.7l0.1-0.1h0.1l2.2-0.3l4-1.3l1.5-2.8v-0.1h0.1l6-3.4l0.8-1.5l1-3.5l0.4-1.6l-3-4.3l-1.3-1.1
				l-1.4,0.9l0,0h-0.1l-1.2,0.2h-0.2l-0.1-0.1l-2.4-3.5l-0.7,0.6l-3.1,3.2l0,0l0,0l-1.8,1.1l-0.1,0.1h-0.1l-2.3-0.6h-0.1l0,0
				l-3.5-3.1l-2.4-1.7l-2.2,0.2l-3.6,0.5l-1.4,2l-0.1,0.9l1.1,0.6l0.2,0.1v0.2l-0.4,2.4V28l-0.1,0.1l-1.5,0.7l0.1,2l0.9,3.4l2.5,3.1
				l0.1,0.1v0.1l-0.3,3.8l2.1,3.1v0.1v0.1l0.2,1.7l0,0l0,0L-113.2,48.1z M-121.1,27.7l2.1,0.7l1.5-0.6l0.3-2l-1.1-0.6l-0.2-0.1v-0.2
				l0.1-1.1v-0.1v-0.1l1.5-2.2l0.1-0.1h0.1l3.7-0.5l0,0l2.3-0.2h0.1l0.1,0.1l2.4,1.8l0,0l0,0l3.4,3l2.1,0.5l1.7-1l3.1-3.2l0,0l0,0
				l0.8-0.6l-2.3-2.8l-0.1-0.2l0.1-0.2l1-1.1l-0.2-2.4l-4.6-0.3h-0.1l-0.1-0.1l-2.6-3.7l-3.3-0.2h-0.2l-0.1-0.2l-1.2-3l-3.6-4.3
				l-0.5,0.6l-0.6,3.2v0.1l0,0l-0.8,1.2l-0.1,0.2l-0.2-0.1L-122,6v5.8l-0.1,0.1l-1.2,1.3l1.1,2l0.1,0.1v0.1l-0.5,1.4v0.1l0,0
				l-4.5,4.2l0.1,3.2L-121.1,27.7z M-133.4,19.9l5.9,1l4.4-4.2l0.4-1.2l-1.1-2.1l-0.1-0.2l0.1-0.1l1.2-1.4V6l-2.1-0.1h-0.2l-0.1-0.1
				l-1.5-3.2l-3.4-0.6l-1.1,1l-0.2,0.2l-0.2-0.3l-2.1-3.5v-0.1v-0.1l-0.3-3.9h-3.8l-0.1-0.2l-1.6-4.6l-1.6,0.1l0,0l0,0l-1.8-0.6
				l-3,3.6l-0.7,3.9l-0.1,5.9v0.1v0.1l-1,1.3V5h-0.1l-0.7,0.3l4.4,6.9l3,0.3h0.1l0.1,0.1l1,1.7v0.1v2L-133.4,19.9z M-133.1-5.3v0.2
				l0.3,4.1l1.9,3.2l1-0.9l0.1-0.1h0.1L-126,2h0.1l0.1,0.1l1.5,3.2l1.9,0.1l0,0l0.3,0.1l5.7,2l0.7-1l0.6-3.2V3.2V3.1l0.7-0.9l1.2-2
				l0.1-1.4l-1.6-0.9l-0.1-0.1v-0.1L-115-4l-1-0.5l-0.5,0.8l-0.1,0.1h-0.1l-3.8,0.2L-121-2h-0.2l-2-0.3h-0.1l-0.1-0.1l-2-3.8l0,0
				v-0.1L-126-12l-4.4-4.4l-2.9,2l-5.4,4.8l1.6,4.4h4V-5.3z M-110,6.8L-110,6.8l0.5,1.3l2.7-0.8l0,0l0,0l3.6-0.5l0.4-2.8V3.9
				l0.1-0.1l1.9-1.1l0,0l0,0l3.7-0.9l0.4-3.1l-1-5.5l-7.1-2.3l-4.1,1.1l-0.4,4.2v0.1l-0.1,0.1l-3.3,2.4l-0.1,1.6v0.1l-1.1,1.9
				L-110,6.8L-110,6.8z M-123.2-24.2L-123.2-24.2l-4.9,0.2l-3.8,2.3l1,2.8l0.7,2l4.6,4.6l0.1,0.1v0.1l0.6,5.6l1.9,3.7l1.6,0.3l0.4-1
				l0.1-0.2h0.2l3.8-0.2l0.6-0.9l0.1-0.2l0.2,0.1l1.3,0.7l0.1,0.1V-4l0.2,1.7l1.4,0.8l3.2-2.3l0.4-4.3v-0.2h0.2l4.1-1.2l0.2-6.4h0.2
				l3.7-0.2l2-1.6l0.1-0.1l0.2,0.1l4,2.5l3.2-4.4l0.2-0.2l0.2,0.2l3.8,2.7l2.6-1.2l1.1-1.4l-2.2-2.9l-4.6-4.7l-2.6-1.1h-0.1v-0.1
				l-0.8-2.3l-2.8-0.1l-1.2,0.8H-98h-0.1l-9.7-0.1l-2.2,1.3l-0.2,0.1l-0.1-0.1l-1.3-1.2l-2.9,0.2l-1.2,1.8l-0.1,0.1h-0.1l-2,0.4
				L-123.2-24.2L-123.2-24.2z M-96.4,1.7l1.9-0.8l0,0l0,0l6-0.8h0.1h0.1l4.2,1.3h0.1l0.1,0.1l1.3,2.2l2.2-2L-80.6-3l-1-2.3l-2.9-3.2
				l-7.4-1.3H-92h-0.1l-1.7-1.4l-0.1-0.1v-0.1l-0.7-3.2l-4-2.5l-1.9,1.5l-0.1,0.1h-0.1l-3.6,0.2l-0.2,5.9l7.1,2.3h0.1v0.2l1.1,5.7
				l0,0l0,0L-96.4,1.7z M-84.8,36.3l1.5,3.2h0.7l0.9-2.1l1.2-2.6l0.1-0.2h0.2l2,0.1h0.1h0.1l2.6,1.6l0.6-0.9l-0.5-2.9l-1.8-1.8
				l-0.1-0.1v-0.1l0.4-2.9v-0.3h0.3l4.8,0.6l3.9-1.3l0.5-3.2l-1.4-0.2h-0.1l-0.1-0.1l-0.9-1.1l-0.2-0.2l0.2-0.2l2.1-1.5l0.1-0.7
				l-1.8-0.2h-0.2V19l-0.2-1.2v-0.1v-0.1l1-1.9l-0.7-0.5l-3.5,1.9h-0.1h-0.1l-4.1-0.8h-0.1l-0.1-0.1l-1.7-2.8l0,0l0,0l-1.1-3.4l0,0
				l0,0l-0.1-7.8l-2,1.9l-0.2,0.2L-82.8,4l-1.4-2.4l-4.1-1.3l-5.9,0.8L-96.4,2l0,0h-0.2l-3.9,1l-1.7,1l-0.4,2.9v0.2h-0.2l-3.8,0.5
				l-2.7,0.8l0.4,1.1l3.2,0.2h0.1l0.1,0.1l2.6,3.7l4.7,0.3h0.2V14l0.2,2.8v0.1l-0.1,0.1l-0.9,1.1l2.1,2.6l0,0l0.2,0.2l2.5,3.6l1-0.2
				l1.5-1l0.2-0.1l0.2,0.1l1.5,1.3l0,0l0,0l3.1,4.5l0.1,0.1v0.1l-0.2,0.7l2.4,2.7l0.1,0.1v0.1L-84.8,36.3z M-67.3,20.6v0.1l-0.1,0.1
				l-1.9,1.4l0.7,0.8l1.5,0.2h2.4l2.5-2.3l0.1-5.7v-0.3h0.3l2.3,0.2l2.4-2.6l1.5-3.8l0,0l0,0l2.3-2.4l2.6-6.8l-1.3-1l0,0l0,0
				l-1.6-1.8l-2.1,0.4h-0.1L-56-3.2l-2.7-2.6L-63-5.9l-0.1,1.5l0,0l-0.2,2.1v0.1l-0.1,0.1l-3.1,2.6l-0.1,0.1l-0.2-0.1l-2.4-1.1
				l-1.9-0.1l-1.9,7v0.2h-0.2l-4.2,0.6l-1.9,4.9l0.5,1.6l1.7,2.7l3.9,0.8l3.6-1.9l0.1-0.1l0.1,0.1l1,0.7l0.2,0.1l-0.1,0.2l-1.1,2
				l0.2,0.9l1.9,0.2h0.3v0.3L-67.3,20.6z M-38.6,42.8l0.4-2.6l-1.4-0.2l0,0l0,0l-4.9-2.2l0,0l0,0l-2.1-1.7h-0.1V36l-0.8-2.3l-2,0.5
				h-0.2l-0.1-0.1l-0.9-1.2v-0.1v-0.1l-0.3-2.2l0,0l-0.3-1.3l-2.2-0.5h-0.2v-0.2l-0.2-2.9l-5.2-0.2h-0.3v-4.1l-2.3,0.1l-2.6,2.3
				l-0.1,0.1h-2.4l-0.5,3.4v0.2h-0.2l-4.1,1.3h-0.1h-0.1l-4.6-0.6l-0.4,2.5l1.8,1.8l0.1,0.1v0.1l0.5,3.1v0.1l-0.1,0.1l-0.8,1.2
				l-0.1,0.2l-0.2-0.1l-2.8-1.7l-1.7-0.1l-1.1,2.4l0,0l-1,2.2l-0.1,0.2h-0.9v7.4l1.6,2.2l0.1,0.1V50l-0.2,5.8l1.3,1.5l0.1,0.1v0.1
				l-0.2,2.7v0.2l-0.2,0.1L-82,61l0.4,3.5l1.1-0.8h0.1h0.1l3.3-0.2h0.3l-0.3,4.3V68l-0.2,0.1l-2.1,0.6l-0.1,1.2l1.5,1.6l0.2,0.2
				l-0.2,0.2l-2.3,2.4l1.1,2.1l5.7,1.3h0.1l0.1,0.1l3.1,3.1l3.1,0.3l1.3-3.1l0.1-0.1h0.1l2.6-0.7l0.4-2.4l0.3-2.5v-0.2h0.2l3.4-0.8
				l0.4-2.7l0,0l0,0l2.8-4.8v-0.1h0.1l4.7-2.7l0.1-0.1l0.1,0.1l2.3,1.2h1.1l0.9-3v-0.1h0.1l2.4-0.7l1.3-1l-1.8-1.9l-1.1,0.5
				l-1.7,0.9l-0.1,0.1h-0.1l-7.5-2.5l0,0l0,0l-1.7-1.4l0,0v-0.1l-2-4.5v-0.1v-0.1l0.9-2.7v-0.1h0.1l3.6-2.2h0.1h0.1l2,0.2h0.1
				l0.1,0.1l1.6,2.1l0.1,0.1V46l0.1,3.4l1.4,1.1l1.8-0.8h0.1h0.1l1.7,0.2h0.1h0.1l1.2,0.8l0,0l0,0l2.7,2.6l1.2-0.7l0.9-1.8L-40,48
				v-0.1v-0.1l-0.2-1.7V46v-0.1L-38.6,42.8z M-60.2-47.2l-3.1,0.5l-4.5,3h-0.1H-68l-4-0.2l-0.6,1.4l2.9,2.7l0.2,0.2l-0.2,0.2
				l-3.5,3.6l0,0l-1.7,1.9l-0.2,5.5v0.3h-0.3l-8.6-0.2l-3.4,3.5l2.1,2.2l0,0l0,0l2.4,3.1l0.1,0.2l-0.1,0.2l-1.3,1.6l0,0h-0.1
				l-2.8,1.2l-0.1,0.1l-0.1-0.1L-91-19l-3.1,4.3l0.7,3.1l1.6,1.3l7.5,1.3h0.1l0.1,0.1l3,3.3l0,0l0,0l1,2.4l0,0l0,0l0.2,4.9v0.1l0,0
				l0.1,8.2l0.3,1l1.8-4.5l0.1-0.1h0.1l4.1-0.6l1.9-7l0.1-0.2h0.2l2.2,0.2l0,0l0,0l2.3,1.1l2.9-2.4l0.2-2l0.1-1.7v-0.3h0.3l4.6,0.2
				h0.1l0.1,0.1l2.7,2.6l2.1-0.4h0.1l0.1,0.1l1.6,1.9l1.3,1l2.2-2.5l1.7-2.3l-1.9-1.7l-0.1-0.1v-3.1l0.2-0.1l7.4-3.1l-0.2-4
				l-4.4-5.8l-3.5,1.6h-0.1h-0.1l-9.9-3.8l-3.4,3.8l-0.2,0.2l-0.2-0.2l-1.6-1.3l-0.1-0.1v-6.1l-0.8-1.9l-0.1-0.2l0.1-0.1l8-8.9
				l-0.3-3.8L-60.2-47.2z M118.4-102.6l2,0.2l0.4-1.3l-1.3-1.5l-1.6,0.5L118.4-102.6z M124.7-92.4l2.3,0.9l2.4-0.4l-1-3.6l-2.9,1.6
				L124.7-92.4z M61-64.5l1.5,4.9v0.1l-0.1,0.1L60-55.5h-0.1L56-54.2l-2.6,3l-0.1,0.1h-0.1l-9.8,0.4l-5,4.1l-0.1,0.1h-0.1L35-46.4
				l-0.3,8.3v0.1v0.1L31-32.6l2.5,5.2l9.4,0.7H43h0.1l4.5,3.5l0.1,0.1v0.1l0.1,4.5l1.6,1.5l10.8,0.6h0.1l0.1,0.1l3.3,4.2l0.1,0.1
				v0.1L64-5.1l1.8,2.4l0.1,0.1v0.1L65.7,2H73v0.1L79.5,8l8.9,3.9h0.1V12l3.3,5.5l5.8,3.6l5.9,0.6l4.8-3.6l0.2-0.1l0.2,0.2l4.4,4.1
				l4.5-0.1h0.1l0.1,0.1l3.4,5l1.8,0.1h0.1l3.3,3.3l6.8-8.6l0.4-5.5v-0.1v-0.1l4.5-6.2l-0.8-5l-5.2-3.9V1.1l1.3-7.2l-3.4-4.7
				l-0.1-0.1V-11l1.1-10l-4.3-5.5l-0.1-0.1v-0.1l1.7-5.1l-1.7-4l-0.1-0.3l0.3-0.1l5.5-1.5l2.3-5.9l-1.2-7l-5.7-1.4h-0.1l-0.1-0.1
				l-5.3-7l-0.1-0.1v-0.1l1.1-4.2v-0.1l0.1-0.1l7.9-3.5l0.8-3.2l-3.3-7.1v-0.1v-0.1l0.8-4.6v-0.2h0.2l3.5-0.6L130-90l0,0l0,0
				l-0.1-0.6l-2.9,0.2l-1.4,5.1l-4.7-4.3l-1.3,4.4l5,5.4l0.3,4.7l-9.1-8.1l-0.3-5.1l3.8-4.7l0.6-7.5l-1.6,0.7l-1.8,5.1l-2.8,2.6
				l-3,0.9l-2.8,4.3l0.1,11.2l-7,10.9l0.4,6.7h7.1l5.8,7v6.7l-4.1,5l1.1,2.3l3.3,1.8l-6.1,1.4l-1.7-6.4l4.5-7.9l-2-6l-7-1l-3.8,3.7
				l-0.4,8.4l-6.4,6.5l-5.8,2.1l-4,4.3L69-38.6v-4l8.9,4.1l4.7-1.8l7.5-4.8l5.1-10.2l-0.9-5.5l8.7-20.6l1-3.5l-1-4.7l5.7-5.4
				l1.1-7.5l-4.4-5.8l-2.8-1.1l-4.3,3.3l-5.1,6.5l-4,3.8l-6,1.4l-3.1,3l3.1,4.1l-3.4,6.1l-4.7,1.4L75-77.7l4.1,4.3l-1.4,4l0.7,2.6
				l1.6,2.3l-5.3,4.8L73-62.4l-1.4-6.1l-5.5-8.9L63-75l1.9,3.3l0.1,0.1l-0.1,0.1L61-64.5z M109.3-114.5l-4.5-0.3l-0.3,4l1,2.4
				l4.5-0.6L109.3-114.5z M21.9,84.1l0.9-2.3v-0.1l0,0l4.7-4.4l0.7-3.3v-0.1v-0.1l2.8-3.1l0.1-0.1h0.1l3.5,0.7l0.9-1.4l0.6-2.5
				l-1-2.6l-3-1.1h-0.1v-0.1L31.7,62v-0.1l0.1-0.1l1.4-1.7l0.4-4.3v-0.1l0.1-0.1l5-4.9l0.2-0.2l0.2,0.2l2.8,2.8l0.2,0.2l-0.1,0
				l-1.5,2.2l2,0.4h0.1l0,0l5.1,3.6l3.9-0.6h0.1h0.1l3.6,2l3.5,0.1l4.8-3.3L55,51.9h-0.1v-0.1l-4.1-8.1l0,0l-3-6.8l-2.4-0.6l0,0l0,0
				l-5-2.1l0,0l0,0l-2.5-2.4l-0.7,2L37.1,34h-0.2l-4-0.1l-1,1.1l0,0l0,0l-2.5,1.3h-0.1h-0.1l-1.9-0.4l-1.2,1L26,37h-2.7h-0.1
				L20,35.6l-1.4,2.6l-0.1,0.1h-0.1l-4.5,0.9l-2.9,5l-0.1,0.1h-0.2l-8-0.3l-2.2,4.6l0.1,4.5v0.2l-0.2,0.1L-1.7,54l-0.7,3.6l1.8,4.2
				l0,0l0,0l0.7,2.8l3.4,1h0.1l0,0l3.1,2.8l0.1,0.1v0.1L7,71.5l4.6,4l0.1,0.1v0.1l0.3,2.6l0,0l0,0l4-0.1l3.3,5.5L21.9,84.1
				L21.9,84.1z M6.5,71.8L6.5,71.8l-0.1-0.2l-0.1-2.9l-3-2.7l-3.4-1h-0.1v-0.1l-0.8-3l-1.8-4.3v-0.1v-0.1l0.7-3.6L-6,52l-2.8,1.4
				L-9,53.5l-0.1-0.2l-2.3-3l-4.9-1.7l-5.6,1.7l0.3,1.6l0,0l0,0l-0.1,5.1v0.1l-0.1,0.1l-7.6,5.7l-0.2,2.7l5.7,3.4l0.2,0.1l-0.1,0.2
				l-2.2,3.9l8,1.9l4.5,2.8l2.7-2.1l4,2.1l13.3,2.6l4.8-2.2v-0.1L11,75.7L6.5,71.8z M-30,66.1l-0.1-0.1v-0.2l0.2-3v-0.1l0.1-0.1
				l7.6-5.7l0.1-4.9l-0.7-3.5l-2-1.9l-1.1,0.7l-0.1,0.1h-0.1l-2-0.5h-0.1l0,0l-8.1-6.9l-1.4,0.4l-0.4,2.7l0,0l-1.7,3.2l0.2,1.6
				l1.7,2.3l0.1,0.1l-0.1,0.1l-1,2v0.1H-39l-1.5,0.8l-0.2,0.1l-0.1-0.1l-2.8-2.7l-1.1-0.8l-1.6-0.2l-1.9,0.9l-0.1,0.1l-0.1-0.1
				l-1.7-1.3l-0.1-0.1V49l-0.1-3.5l-1.5-1.9l-1.8-0.1l-3.4,2.1l-0.8,2.5l1.9,4.3l1.7,1.3l7.4,2.4l1.6-0.9l0,0l1.2-0.6l0.2-0.1
				l0.1,0.1l2.2,2.2l0.2,0.2l-0.2,0.2l-1.6,1.2l0,0l0,0l-2.3,0.7l-0.9,3.3H-48h-0.1l-2.3-1.2l-4.5,2.5l-2.8,4.7l-0.4,2.8v0.2h-0.2
				l-3.4,0.8l-0.3,2.3l0,0l-0.4,2.3l5.6,1.7h0.1v0.1l1.2,2.5v0.1v0.1l-0.6,1.8v0.1h-0.1l-2.1,1.6l0.8,2.3l1.6-2.1l5.4-0.4l0.4-3.8
				l2.6-1.4l2.7,0.1l3.3,2.6l2-1.8l-2.4-4l-1.1-4l2.7-2.8l2.4-0.7l3.7,4l7.7,0.5l0,0l0,0l0,0l2.1-3.8L-30,66.1z M2.3,43.6l0.1-0.2
				h0.2l8,0.3l2.8-4.8l-2.1-3.1l-0.1-0.1v-0.1l0.3-3l0,0l0.8-5.3l-5.5-3.5H6.7v-0.1l-0.9-2.4l-0.1-0.1L5.8,21L9,17.2L8.3,14l0,0
				l-1-5.8V8.1V8l2.6-3.7L9.8,0l-3-7.2l-5.2-3l-0.1-0.1v-0.1L0.7-14l-1.4-1.5l-1.4,2.4l-1,2.3l0,0l0,0l-4.6,6l0,0l0,0L-14.5,2l0,0
				l0,0l-5.8,2.6l-0.1,2.6l1.8,3.6l0.1,0.2l-0.1,0.1l-2.5,2.9l-0.4,3.8v0.1V18l-1.6,2l-0.1,0.1h-0.1l-5.4,0.3l-0.8,3.5l-0.1,0.1
				l-2.3,1.5l-0.2,0.1l-0.2-0.2l-2.2-2.4l-3,4.8l-0.1,0.1h-0.1l-5,0.5l-4.3,5.1l0.8,2.4l2,1.6l4.8,2.1l1.6,0.2l1.7-0.4h0.1l0.1,0.1
				l8.1,7l1.8,0.4l1.2-0.7l0.2-0.1l0.1,0.1l2.2,2.1l0.1,0.1v0.1l0.3,1.5l5.6-1.7h0.1h0.1l5.1,1.8h0.1v0.1l2.2,2.8l2.7-1.4l0.1-0.1
				l0.1,0.1l4,1.9l2-0.6L0,48.5v-0.1v-0.1L2.3,43.6z M18.1,37.7l1.4-2.7l0.1-0.2l3.6,1.6h2.4l1.3-1l0.1-0.1h0.1l2,0.4l2.4-1.3l1-1.1
				l0.1-0.1h0.1l3.9,0.1l0.8-2.2l0.1-0.4l0.3,0.3l2.8,2.6l4.9,2l2.5,0.6h0.1l0.1,0.1l3.1,6.9l4.1,8.1l8.7,6.5l4.8-2.7l0.6-2.9v-0.1
				l0.1-0.1l2.9-1.9l0.1-0.1h0.1l3.4,0.4l3-9.5v-0.1l0.1-0.1l4.2-3.2l0.1-0.1h0.1l4.5,1.3l0,0l0,0l6,4l9.2,0.1h0.1h0.1l6.4,4.7
				l7.7-4.4l0.1-0.1l0.1,0.1l4,2.8l4.5-0.6l4.9-2.1l0.9-2.3l-5.6-3.2l-0.1-0.1v-7.1l-3.3-3.3l-1.8-0.1h-0.1l-0.1-0.1l-3.4-5
				l-4.5,0.1h-0.1L113,22l-4.3-4.1l-4.8,3.5l-0.1,0.1h-0.1l-6.1-0.6h-0.1h-0.1l-5.9-3.6h-0.1v-0.1l-3.3-5.4l-8.9-3.9l0,0l0,0L72.8,2
				h-7.6V1.7L65.3-3l-1.8-2.4v-0.1v-0.1l-0.3-6.9l-3.2-4l-10.7-0.6h-0.1l-0.1-0.1l-1.7-1.6l-0.1-0.1V-19l-0.1-4.5l-4.3-3.4l-9.5-0.7
				h-0.2L33.1-27l-2.6-5.5l-0.1-0.1l0.1-0.1l3.9-5.4l0.3-8.2h-3.1l-4.4,3.9l-0.2,0h-0.1l-4,0.2h-0.2l-0.1-0.1l-1.3-2.1L15-38.6
				l-1,3.7v0.1l-0.1,0.1l-6.9,6l-7.5,12.8l1.6,1.6l0.1,0.1v0.1L2-10.7l5.1,3h0.1v0.1l3.1,7.4l0,0v0.1l0.1,4.4v0.1l-0.1,0.1L7.8,8.2
				l1.1,5.7l0.7,3.4v0.1l-0.1,0.1l-3.1,3.8l0.9,2.2l5.6,3.6l0.1,0.1v0.2l-0.8,5.5l-0.3,2.8l2,3L18.1,37.7z M-157.4-95.1l-0.3,2.3
				v0.2h-0.2l-1.6,0.1l-0.4,1.6v0.1h-0.1l-0.7,0.7l1.7,1.7l3.2,2.3l6.1,1.6h0.1l0,0l2.1,1.8l5.9,0.5l0.4-2.2v-0.1l0.1-0.1l1.2-0.9
				l0.2-0.1l0.2,0.1l2.8,2l0.1,0.1v0.1l0.6,2.5l3.2,2.7l2.8-0.2h0.1l0.1,0.1l4.4,3.9l0.2-2l-0.8-2.5l-2-2.2l-0.1-0.1l0.1-0.2l1.9-3
				l-0.3-3.3l-1.8-3.4v-0.1v-0.1l0.5-2.4l-1.7-0.2h-0.2V-94l-0.4-1.6l-3-0.1h-0.2l-0.1-0.1l-0.9-1.6l-0.1-0.1l0.1-0.1l0.8-1.5
				l-0.2-1.9l-2.3-0.8l-0.7,0.9l-0.1,0.1h-0.2l-1.6-0.2h-0.1l-0.1-0.1l-1.6-1.4l-2.6,0.3h-0.2l-0.1-0.2l-1.5-2.6l-1.7-0.8l-2.9,1.5
				l-0.3,0.1l-0.1-0.3l-0.8-2.5l-1.3,1l-0.8,2l0.2,6.7v0.2l-0.2,0.1L-157.4-95.1z M-99.1-94.4l-1.9,1.8l-0.1,0.1h-0.1l-3.9-0.2h-0.1
				l-0.1-0.1l-1.8-1.9h-1.8l-2.6,0.9l-4.2,3.2l-2.7,5.8l-0.1,0.2h-0.2l-4.6-0.4l-2.5,1.4l-1.8,2.8l1.9,2.1l0,0v0.1l0.8,2.6v0.1v0.1
				l-0.2,2.3h4.5h0.2v0.2l0.6,5.3l5.8,3.7l2.3-0.1h0.1l0.1,0.1l2.7,3.3l0.1,0.1v0.1L-110-56l3.5,3.3l9.4,0.5h0.1h0.1l6.2,3.8h0.1
				v0.1l4.1,7.5l6.6,3.8l4.5-1.1h0.1l0.1,0.1l1.9,1.9l3.1-3.2l-2.8-2.6l-0.1-0.1l0.1-0.2l0.7-1.8l0.1-0.2h0.2l4.1,0.2l4.4-2.9v-3
				l-3-1.5l-0.2-0.1l1-2.8l-2.8-0.9l-1.8,0.8l-0.3,0.1l-0.1-0.3l-2.2-5.6l-5.4-0.2h-0.1l-0.1-0.1l-3.5-4l-3.3-2.1l0,0l0,0l-3.2-3
				l0,0l0,0L-98-80.3l-0.1-0.1v-0.1l0.7-5.3v-0.1l3.5-4l-2.3-0.8l-0.2-0.1v-3.8L-99.1-94.4z M-177.2-87l3.4,0.9l0.7,3.5l-1.1,1.9
				h0.2l2.3-0.6h0.1h0.1l1.2,0.6l4.4-0.8l1.7-2.7l1-4v-0.1l0.1-0.1l2.7-2.7l0.5-1.7V-93h0.2l1.6-0.1l0.3-2.2v-0.2l0.2-0.1l4.9-1.6
				l-0.2-6.5v-0.1l0,0l0.8-2.1v-0.1h0.1l1.6-1.3l1.6-4.9l-2.1-3.3v-0.1v-0.1l-0.2-4.1l-2.7,0.3l-4.4,3.4l-2.6,3.5l-5-0.3l-3,5
				l-3.5,0.4l-0.1,3.8l-5.2,3.4l0.3,5l2.1,2.7l-2.4,3L-177.2-87z M-148.4-112.3l0.1,0.1v0.1l-1.6,5l0.8,2.5l2.8-1.4l0.1-0.1l0.1,0.1
				l1.9,0.9h0.1v0.1l1.4,2.5l2.5-0.3h0.1l0.1,0.1l1.6,1.5l1.4,0.2l0.8-1.1l0.2,0.1l2.7,0.9l0.2,0.1v0.2l0.2,2.1v0.1v0.1l-0.7,1.4
				l0.8,1.4l3.1,0.1h0.2v0.2l0.4,1.6l1.8,0.2h0.3l-0.6,2.9l1.7,3.4l0,0l0,0l0.3,3l2.3-1.2h0.1h0.1l4.5,0.3l2.7-5.6v-0.1h0.1l4.3-3.2
				l0,0l0,0l2.7-0.9l0,0l0,0l3.7,0.1l2-1.6l-3.6-4.7l-2.3-0.4h-0.2v-0.2l-1.1-3.6l-1.4,0.1l-0.2,2.2v0.3l-0.3-0.1l-1.2-0.3h-0.1
				l-0.1-0.1l-0.9-1.5l-1.1,0.3l-0.2,2.6v0.3l-0.3-0.1l-1.6-0.4h-0.1l-0.1-0.1l-0.9-1.9l-4.5,0.1h-0.1l-0.1-0.1l-1.8-2.7h-4.4
				l-0.1-0.1l-1.2-1.4l-0.1-0.2l0.1-0.2l7.3-8.8l-0.4-9l-4.7,0.2l-5.8,2.1l-0.3,4.7l0.6,2.1l-1.7,1.4l-1.3-3.3l-2.3-0.1l-3.5-3.4
				l-4.4,2.8l-3,0.3l0.2,4.1L-148.4-112.3z M-66.1-152.1l-0.8,4.2l4.4,2.2h0.1v0.1l0.7,1.3l1.2-7.3l1.7,2.4l-0.7,5.1l2.1,4.5
				l0.6,7.5l3,4.5l0.7,4.7l11.1,6.7l6.8-1.3l5.1-7l1.4-7.4l-2.3-8.8l0.3-12.8l-1.4-4.7l-3.5-5.7l-0.6-4.4l1.6-1l2.1,3l2.1-1.4
				l-2-3.8l-7.5-5.1l-10.8-1l-2.1,1.6l-5.4,3.1l0.1,4.3l-3.7,6l-7.2,0.1l-2.4,3l5.4,7.2L-66.1-152.1z M-120.1-123.3L-120.1-123.3
				L-120.1-123.3l4.5,0.6h0.1l0.1,0.1l1.8,2.5l0.1,0.1v0.1l-0.1,3.1v0.1l-0.1,0.1l-1.5,1.8l0.2,3.5l0,0l0,0l-0.4,3v0.1l-0.1,0.1
				l-2.3,1.7l-0.6,1.7l0.9,1.8l1.2,0.3l0.2-2.5v-0.2l0.2-0.1l1.5-0.4l0.2-0.1l0.1,0.2l0.9,1.6l0.8,0.2l0.2-2.1v-0.2h0.2l1.9-0.2h0.2
				l0.1,0.2l1.1,3.7l2.2,0.4h0.1l0.1,0.1l3.5,4.6l0.5-1.5l-0.4-4.4v-0.1v-0.1l1.6-3.1l0,0l0,0l5.8-6.3l0.1-0.1h0.1l3.4,0.8h0.1
				l0.1,0.1l1.1,2v0.1v0.1l-0.5,3.4v0.1l-0.1,0.1l-2.5,2.4l-4.2,4.8l-1.1,4.1h2.8h0.3v3.9l2.3,0.8l1.6-1.8l0.1-0.1h2.2l0.8-3.8v-0.1
				l0.1-0.1l3.9-4.1l-0.9-1.6l0,0l-1.2-2.1l-0.2,0v-0.1l0.9-3.2v-0.1l0,0l3.8-3.8l0.3-2v-0.3l0.3,0.1l2.6,0.7l1.6,0.3l2-2.2l0,0l0,0
				l0.3-0.1l-0.3-2.3l0.4-2l-1.8-2.6l1.7-3.1l5.2-6.5l4.4-1.4l2.6-4.4l1-6.4l-1-1.8l-4.5-2.2l-0.2-0.1v-0.2l0.9-4.3l-5.1-6.9l-6,7.6
				l-3.1-0.1l-4,2.7l-2.8-0.1l-1.1,2.8l-1.3,2.4l-2.3,1.7l1.3,2.4l-1.6,1.6l-5.3-0.9l-1.4,5l-1,7.5l-3.1,1.3l-13.9-1.8l-6.3,0.2
				l0.2,4L-120.1-123.3z M-47.2-47.2l-0.2,3.7v0.1l-0.1,0.1l-3,2.3l-0.1,0.1l-0.1-0.1l-3.7-1.5l-2.7,2.2l-7.9,8.8l0.8,1.8v0.1v0.1
				v5.9l1.3,1l3.3-3.7l0.1-0.1l0.2,0.1l10,3.9l3.5-1.6l2-4.9l0.1-0.2h0.2l6.6,0.6h0.1l0.1,0.1l4.9,5.5l5.4,2.8l7.6,0.8l3-1.6
				l0.2-0.1l8.3,6.8l5,0.7L6.6-29l0,0l0,0l6.8-6.1l1-3.7v-0.1l0.1-0.1l6.7-6l0.2-0.2l0.2,0.3l1.4,2.2l3.8-0.2l4.4-3.9l0.1-0.1h0.1
				l6.8-0.1l5-4.1l0.1-0.1h0.1l9.7-0.4l2.6-3v-0.1h0.1l3.9-1.3l2.3-3.5l-1.5-4.9v-0.1l0.1-0.1l1.8-3.2l-1.9-0.3l-1.2,1.8l-0.1,0.1
				h-2.4l-3,2.8l-0.1,0.1h-0.1L50-64.1l-2.7,3.2L47-61h-0.1l-8.1,0.7h-0.1l-0.1-0.1L3.5-85.5l-3.4,1.1H0h-0.1L-15.2-86l-5.2,6.8
				l1.8,2.8l0.1,0.1l-0.1,0.1l-1.2,2.2l0.9,3.6v0.2l-0.2,0.1l-3.3,1.9l-0.1,0.1l-0.1-0.1L-27-71l-4.1,0.2h-0.2l-0.1-0.2l-0.7-3.1
				l-10.4-8l-1.2,1.7l2.9,4.8l0.1,0.1l-0.9,4.1v0.1l-2.5,2.5l1.1,1.9v0.1v0.1l0.2,2.1v0.3h-0.3l-4.1,0.2l-3.2,4.2l-0.2,2.5l3.9,1.6
				l1.6-2v-0.1h0.1l3.7-1.2l0.2-0.1L-41-59l2.4,4.8l-0.2,0.1L-47.2-47.2z M-66.3-124.4l-0.4-1.7l-1.1-0.8l-0.9,1.2l-0.1,1.2l1.1,1.2
				L-66.3-124.4z M38.5-122v-3l-2.2-0.5l0.3,4.8L38.5-122z M-21.7-90.4l4.1,0.5h0.1l0.1,0.1l2.2,3.2L0-84.9L3.4-86h0.1h0.2
				l35.2,25.1l7.9-0.6l2.8-3.2l0.1-0.1h0.2l3.6,0.8l3-2.8l0.1-0.1H59l1.2-1.9l0.1-0.1h0.2l2.2,0.4l1.8-3.2l-1.9-3.4l-0.1-0.2
				l0.2-0.1l3.4-2.8l-2.7-5l-7.1-7.7h-5.4L50-87.6l-0.1,4.7L46-80.6L43.9-81l-1.4,2.1L39.8-81l3.1-2.8V-87l-10.1-0.1l-5-3.7
				l-7.7,0.7l-2.7-3.7l4.5-0.4l2.4-4.7l-6.1-1.4L15.5-97l-1.4-2.6l-15.6-3.8l-2,2l-2.3-2.1l-8.2,4.8l-4.3-4.1l1.3-3.7l-1.3-3.7
				l5.1-1.7l4.7,3.3l2.3-3.7l-0.1-6.7l-6.2-6.8l-1.8,6.7l-8.5,5.5l-0.7,4.3l-4.1,3.7l1.6,8.5L-21.7-90.4z M47.8-96.6l2.5,4.1
				l3.2-0.3l0.2-4.3l-1.2-4.3l-4,1L47.8-96.6z M12.9-109l0.7-2.1l-0.4-3.2l-3.1-3.3l-4.4,1.5l-1.1,3.8l2.4,3.2L12.9-109z
				 M40.3-120.5l-3,3l2.3,5.1l2.7,0.3l0.2,2.3l3,0.7l2,1l1.3-12.6l1-4.8l4.1-4.5l5-1.7l2-2.8l-1.2-3.5l3.6,2.3l3.3-0.3l0.8-2.5
				l2.2,0.2l0.2-2.5l2.7,1l0.5-2.5l2,2.2l1.5-2l0.5-3l2.8,2l1.8-1.7l3.8,0.8l3.2-3.6l24.2-0.5l5.8-3.2l0.7-4.3l-2.5-3L111-157
				l-1,2.2l-10-0.8l-4.3-3.7l-3.8,2.2l-3.8-1.7l-4.8,3.2h-4l-2,1.7l-2.7-2.8l-1.3,5.8l-3,0.2l-0.3,2.3l-7.5,2.3l-2.7-1.2l-1.7,2
				l2.2,2.2l-3,2.8l-4.8-2l-0.7,3.6l-3.5-0.2l-0.2,2.8l-4.8,2.5l-3-1l-3.3,2.5l-0.2,3.6l3.2,3.2L40.3-120.5z M-34.4-105l2.8-0.6
				l-3.5-6.7l-5.4,0.9l-5.4-1.8l-6.7,1l-3.7,9.2l-2.7-1.6l-3.8-8.9l0.6-7l-6.2,0.7l-1.7,6l2.7,3.3l-2.6,3.4l-4.1-2.3l-0.7-4.8
				l-0.1,0.1l-2.1,2.2l-0.1,0.1h-0.1l-1.8-0.4l0,0l-2.4-0.6l-0.3,1.8v0.1l-0.1,0.1l-3.8,3.8l-0.8,3l1.2,2l1.1,1.8l0.1,0.2l-0.1,0.1
				l-4,4.2l-0.9,4v0.2h-2.4l-1.7,1.8l0,0l-3.6,4.1l-0.7,5.1l9.2,10.4l3.1,3l3.3,2.1l0,0l0,0l3.4,3.9l5.5,0.2h0.2l0.1,0.2l2.2,5.5
				l1.7-0.8h0.1h0.1l3.2,1.1l0.3,0.1l-1.1,2.8l2.9,1.5l0.1,0.1v3.2l3-0.5h0.1l0.1,0.1l2.5,3l0.1,0.1v0.1L-57-41l2.4-2l0.1-0.1
				l0.1,0.1l3.7,1.5l2.8-2.1l0.2-3.7v-0.1l0.1-0.1l8.4-6.7l-2.1-4.2l-3.4,1.1l-1.7,2l-0.1,0.1l-0.2-0.1l-4.2-1.8L-51-57v-0.2
				l0.2-2.8v-0.1v-0.1l3.3-4.4l0.1-0.1h0.1l3.9-0.2l-0.1-1.8l-1.2-2.1l-0.1-0.2l0.1-0.1l2.6-2.6l0.8-3.9l-2.9-4.8l-0.1-0.1l0.1-0.1
				l1.4-2.1l0.2-0.2l0.2,0.2l10.7,8.2l0.1,0.1v0.1l0.7,2.9l4-0.2h0.1h0.1l4.3,2.7l3-1.8l-0.8-3.5v-0.1v-0.1l1.2-2.1l-1.8-2.9
				l-0.1-0.2l0.1-0.1l5.3-6.9l-2.1-3.1l-4.1-0.5h-0.1L-22-90l-4.6-6.9V-97l-1.5-8.2l-4.3,3.9L-34.4-105z M113.7-202.1l1.8,1.7
				l2.4-2.1l-1.2-1.8l-1.8,0.4L113.7-202.1z M117.6-200.6l1.3,1.1l2.3-1.2l0.7-2.8l-1.8-0.4L117.6-200.6z M124-202.8l-0.1,1.9
				l2.3,2.1l4.6-2.3l-0.9-2.6l-3.2-1.3L124-202.8z M132.1-206.5l-1.7-1.5l-1.7,2.1l2,1L132.1-206.5z M140.2-210.1l-0.8-2.5l-1.9,1.2
				l0.7,2.1L140.2-210.1z M132-215.6l1.4-1.1l-2.1-2l-1.1,0.9l0.7,1.2L132-215.6z M127.5-212.2l1.3-2l-1.2-2.4l-2.6,1.3l0.3,1.7
				L127.5-212.2z M124.3-206.6l0.6-3.2l-4.2-3.7l-3.3,2.3l2.8,3.2L124.3-206.6z M132.3-201.5l0.6,2.4l4.6-0.1l1.9-3.1l-1.5-2.5
				l-2,2.9l-3-0.8L132.3-201.5z M119.7-196l1.2,1.8l1.1-1.4l-1.1-1.9L119.7-196z M108.2-208.1l1.9,3.2l2.2-2.1l-1.1-2.6L108.2-208.1
				z M113.6-209.1l0.4,1.9l1.2-0.9l-1-2.1L113.6-209.1z M114.4-218.9l-2.2-2l-0.6,1.3l1.4,2L114.4-218.9z M101.3-219.3l2.9-0.2
				l1.8,1.4l1.1-1.3l-2.2-2l-2,0.6l-4.2-2.7l0.7,2.6L101.3-219.3z M103.8-216.6l-1.5,0.7l-3.1-0.9l-0.2,2.3l2.1,2.1l2.1,2.6l0.7-1.2
				l-0.6-2.5l2.9-0.7l3.6,1.2l2.3-2.3l-2.1-2.4l-1.8-0.7l-1.9,1.4L103.8-216.6z M103.3-206.6l1.7,1l0.1-2.1l-1.3-0.4L103.3-206.6z
				 M-207.2-121.6l0.5-11.4l-2.9-4.4l-1.3,5.2l-2.9-1.8l-2.3-6.7l-2.9,1.8l-3.9-0.3l9.6,20.8L-207.2-121.6z M-215.6,18.1l-3.5,3.7
				l7.7,4.5l-2.3,1.6l-4-2.4l-2.3,1.8l1.4,2.7h2.9l0.1,0.1l3.4,4.1l0.1,0.1l-2.6,4.9l3.2,4l0.1,0.1l-0.1,0.2l-0.8,1.5l-0.2,3.2
				l1.9,2.3l1.9-2.2l0.2,0.1l2.9,1.1l1.1-1.8l0.1-0.2l0.2,0.1l2.4,1l0.2,0.1v3.8l2.8,1.3l0.2,0.1v3.6l1.5,2.4l3.4-0.4l1.1-2l0.1-0.1
				h5.8l3.4-3.8l-0.2-1.8l-3.1-0.4h-0.2v-0.2l-0.2-2.7l-2.9-4.1l-0.1-0.1v-0.1l1.5-5.6l-1.9-2.9l-0.2-0.2l4.4-2.5l0.2-0.1l0.1,0.1
				l1.5,1.5l2.9-0.2l1.7-3.3l-0.6-5.6v-0.2l0.1-0.1l4.4-2.9l-0.7-6.9l-3.4-0.2l-2.5,1.7l-0.1,0.1l-0.1-0.1l-2.8-1.8l-3.4-1.8
				l-0.1,1.4l-4.4-0.1l-1.7,2.6l-2.3,0.3l-2.7,4.8l-4.5,1.7l-3.3-4.8L-215.6,18.1z M-146.7,39.6h-0.1l-0.1-0.1l-1.3-1.9v-0.1v-0.1
				l-0.1-3.5l-1.7,0.7h-0.1h-0.1l-2-0.1h-0.3v-0.3l0.1-2.6v-0.1l0.1-0.1l2.1-2.4v-3.3l-4.7-4.5l-2.7-0.6h-0.1l-0.1-0.1l-1.9-2.5
				v-0.1v-0.1l-0.3-3.5l-3.9-1.4h-0.1v-0.1l-1.6-3.3l-2.1,0.7h-0.1h-0.1l-4.1-0.5l-0.4,2.8v0.1l-0.1,0.1l-3.9,2.4l0.8,7.1v0.2
				l-0.1,0.1l-4.4,2.9l0.6,5.6v0.1v0.1l-1.8,3.5l-0.1,0.1h-0.2l-3.2,0.2h-0.1l-0.1-0.1l-1.4-1.4l-3.7,2.1l1.8,2.7l0.1,0.1v0.1
				l-1.5,5.6l2.8,3.9l7,0.8l0.7-2l0.1-0.2h0.2l2.4,0.2h0.2V47l0.7,3.6l2.7,0.4l2.4-1.5l0.1-0.1h0.1l8.4,1.7h0.1l0.1,0.1l2.2,3.9
				l4.8-1.6l0.7-3.7l4.1-2.3l4.4-1.1l1.6-0.5l-0.1-6L-146.7,39.6z M-164.4,67.6l0.4-2.4l3.7-3.4l-3.3-4.6l1.6-0.8l2.1-0.9l-2.1-3.8
				l-8.2-1.7l-2.2,1.4l1.5,3.9v0.1v0.1l-1.6,7.4l1.9,3.5l0.1,0.1v0.1l-1.9,5.6l0.8,3.5l0.1,0.4h-0.4l-3.5-0.4l-1.8,0.8l-0.2,0.1
				l-0.1-0.2l-1.3-1.9l-1.1,1.4l1.8,4.4l0.1,0.2l-0.2,0.1l-2.5,2l0,0l0,0l-2.2,1.2l2.9,4l4.5,1.6l11.9-0.3l-1-4.7l3-0.6l2.3-12.8
				l-2-2.7L-164.4,67.6z M-183.7,83.5l0.3-0.1l2.4-1.3l2.3-1.9l-1.8-4.3l-0.1-0.1l0.1-0.1l1.5-1.7l0.2-0.3l0.2,0.3l1.3,2l1.7-0.7
				h0.1h0.1l3.2,0.4l-0.7-3.2v-0.1v-0.1l1.9-5.6l-1.9-3.4v-0.1v-0.1l1.6-7.4l-1.5-3.9l-2.8-0.4h-0.2v-0.2l-0.7-3.6l-2-0.2l-0.7,2
				l-0.1,0.2h-0.2l-7-0.8l0.2,2.2l3.1,0.4h0.2v0.2l0.2,2.2v0.1l-0.1,0.1l-3.5,3.9l-0.1,0.1h-5.7l-1.1,2l-0.1,0.1h-0.1l-3.7,0.4h-0.2
				l-0.1-0.1l-1.6-2.6v-0.1v-3.5L-202,53l-0.2-0.1v-3.7l-2-0.8l-1.1,1.8l-0.1,0.2l-0.2-0.1l-3-1.1l-1.7,2l1.9,2.4l2-0.4h0.2l0.1,0.1
				l1.3,1.9l2.7,0.8h0.1v0.1l1.2,3.1l2.8,4.8v0.1l-0.8,4.6l2.9,5.2l0,0l0,0l1,4.1l0,0l0,0l-0.2,4.2l4.5,4.5l0,0v0.1l1,2.6l4.4,0.1
				l4.2-2l-2.8-3.9L-183.7,83.5z M-190.9,87.2l-4.3-4.3l-1.6,1.2l-0.1,0.1h-0.1l-4.6-0.2l-2.5,2l0.9,1.8l0.1,0.2l-0.2,0.1l-2.2,1.4
				l2.8,4.1l3,0.6h0.2v0.2l1,3.7l0.1,0.2l-0.2,0.1l-2.4,1h-0.1h-0.1l-2.4-0.2l-3.1,6l-0.2,0.3l-0.3-0.2l-2.4-2l-1.4,1.6l-0.1,0.1
				h-0.1l-5.8-0.5l-1.5,1.5l0.3,4.3l4,5.7l-0.3,6l-0.7,2.8l3.5,4.4l1.7-0.7l1-1.7l2.1,1.1l2.3,0.7l2.7-1.7v-7.5l1.8-10.6l6.8-6.5
				l0.6-6.8l-0.7-3l3.3-2.5L-190.9,87.2z M-218.1,99l1,2.7l0.4,2.1l5.6,0.5l1.5-1.7l0.2-0.2l0.2,0.2l2.3,2l3-5.8l0.1-0.2h0.2
				l2.5,0.2l2.1-0.9l-0.9-3.4l-3-0.6h-0.1l-0.1-0.1l-4.1-5.8l-3.2-0.2l-1.5,0.7l1.7,6.5l0.1,0.2l-0.2,0.1L-218.1,99z M-212.3,88.8
				l-1.4,0.6l-1.3,4.2v0.1h-0.1l-2,1.6l0,0l0,0l-2.8,0.9l0.1,1.2l1.5,1.1l7.7-3.6L-212.3,88.8z M-215.5,93.4l1.3-4.3V89h0.1l3.2-1.4
				l-2.5-2l-0.9,1.6l-0.1,0.2h-0.2l-6.4-1.6l-4.8,1.5l-0.1,0.1l0.2,4.9l5.7,2.7v0.8l2.6-0.9L-215.5,93.4z M-221,85.2L-221,85.2
				l6.4,1.5l2-3.5l-0.9-2.9h-3.1l-0.1-0.1l-5.8-5.3l-4.1-0.2l-3.5,2.7l3,3.3l0.1,4.5l0.9,1.4l0,0l0,0L-221,85.2L-221,85.2z
				 M-226.8,74.3L-226.8,74.3l4.1,0.2l-0.2-4.2v-0.1l0.1-0.1l2.2-1.4l-3.1-5.8l-1.1,2.1l-0.1,0.2h-0.2l-3.7-0.4h-0.1l-0.1-0.1
				l-2.1-2.8l-6.5,2.2l3.5,5.8v3.5l3.5,3.8L-226.8,74.3L-226.8,74.3z M-230.8,61.1l0.1,0.2l2.1,2.9l3.4,0.4l2.5-5.1l2.7-1.1l-1-1.5
				l-0.1-0.1l1.6-2.9l-1.6-1.4l-0.2-0.2l0.2-0.2l1.9-1.9l0.2-1.7v-0.2l0.1-0.1l2.2-1l0.2-0.1l0.1,0.2l1.4,2.5l1.8-1.5l0.2-3.2V45
				v-0.1l0.7-1.4l-3.2-4l-0.1-0.1l0.1-0.2l2.5-4.8l-3.2-3.9h-3l-0.1-0.1L-221,27l-5.2-4.7l-0.7,6.8l-2.8-1.4l-5.4,0.3l-2,2.6l-3.8-8
				l-3.3,4.2l0.3,5l-1.6,1.8l0.7,2.1l2.3,1.7l-0.1,3.5l1.3,5.7l-0.4,5.2l-1,8.7l1.1,1.6l2.3-1l1.5,2.5l6.7-2.3L-230.8,61.1z
				 M-234.2,60.1l-0.1,0.1l-0.2-0.1l-0.2-0.1l-3.7-1.8l-0.1-0.1l-0.1-0.1v-0.2v-0.2l-0.2-3.3V54v-0.3h0.3h0.3l3.5-0.3v-2.1l0,0V51
				l0.1-0.1l0.1-0.1l3.9-2.9l-2.5-1.6l0,0l0,0l0,0l0,0l0,0l0,0l-3.2-3.7l-0.1-0.1l-0.1-0.1v-0.1v-0.1l0.4-3v-0.3v-0.3l0.3,0.1
				l0.3,0.1l2.8,1h0.1h0.1l0.1,0.1V40l2.2,3.5h3.6v0.3V44l0.2,3.1l2.2,1.8l0.1,0.1l0.1,0.1v0.1v0.1l-0.2,4.3v0.2v0.1l-0.1,0.1
				l-3.2,4.1l-0.4,0.5l-0.4,0.5l-0.1-0.6l-0.1-0.6l-0.4-3.6L-234,60L-234.2,60.1z M-198.4,64l-2.7-4.6l0,0l0,0l-1.1-3l-2.6-0.8h-0.1
				l-0.1-0.1l-1.3-1.8l-2,0.4h-0.2l-0.1-0.1l-4.2-5.1l-2,1.6l-0.2,0.2l-0.2-0.3l-1.5-2.6l-1.8,0.8l-0.2,1.7l-0.1,0.1l-1.8,1.8
				l1.6,1.4l0.2,0.1l-0.1,0.2l-1.5,2.8l1.1,1.6l0.2,0.3l-0.3,0.1l-2.9,1.1l-1.2,2.4l3.4,6.4l0.1,0.2l-0.2,0.1l-2.2,1.5l0.2,4.3
				l5.8,5.2h3.2l0.1,0.2l1,3.2v0.1l-0.1,0.1l-1,1.7l2.8,2.3l3.3,0.2h0.1l0.1,0.1l0.9,1.3l2.1-1.3l-0.9-1.8l-0.1-0.2l0.2-0.1l2.8-2.2
				l0.1-0.1h0.1l4.6,0.2l1.6-1.2l0.2-4.2l-1-4.1l-2.9-5.3v-0.1v-0.1L-198.4,64z M-228.1,58l3.2-4.1l0.2-4.3l-2.3-1.9l-0.1-0.1v-0.1
				l-0.2-3.2h-3.4l-0.1-0.1l-2.3-3.6l-2.8-1l-0.4,3l3.2,3.7l0,0l0,0l2.8,1.8l0.3,0.2l-0.3,0.2l-4.2,3.1l0,0v2.6h-0.2l-3.7,0.4
				l0.2,3.3l3.7,1.8l5.3-5.9l0.4-0.4L-228.1,58z M271.4,173.8l0.1-0.1l3.6-1.9l-3.9-4.2l-0.2-0.2l0.2-0.2l3.8-3l-1.4-4.3l-0.1-0.3
				h7.5l4.4-3.7l0.1-0.1h0.1l3.9,0.5l7.3-9.7l0.1-0.1h0.1l4.7-0.4l1.4-2.3v-0.1h0.1l4-1.6l3.1-3.8l0.4-4l-3.2-2.1l-0.1-0.1v-4.2
				l0.1-0.1l7-5.4l2.4-5.5v-0.1h0.1l6.1-2.2l-0.3-4.9l-3.8-3.4l-4.2-0.7h-0.2l-0.1-0.2L311,94.9l-2.2-2l-0.2-0.2l0.1-0.2l2.2-3.1
				l-0.3-3l-2.6,2.9l-0.1,0.1h-0.1l-2.2-0.3l-1.2,4.8v0.2h-0.1l-11.7,3.2h-0.2l-0.1-0.1l-2-2.7h-2.7h-0.1l-2.5-1.4l-1.4,3.3v0.1
				h-0.1l-5.6,1.9h-0.1h-0.1l-2.9-1l-0.7,3.2v0.2h-0.2l-5.7,0.7l0.5,2.8l3.5,2.9l0.2,0.2l-0.2,0.2l-2.9,3.5l-0.5,5.2l1.9,4.4
				l0.3-0.9l1.2-7.2l0,0l0,0l1.9-3.3l0.1-0.2h0.2l2.5,0.3h0.2v0.2l0.4,2.8l0,0l0,0l-1.2,6.5l0.4,6.3l1,3.4v0.1v0.1l-1.3,3.4l-2,1.9
				l-0.7,1.2l0.7,2.2v0.1v0.1l-0.9,2.2v0.1h-0.1l-2.1,0.5l-0.1,2.4v0.1v0.1l-2.8,4.5l-0.1,0.1h-0.1l-4.1,1.3l-2.7,3.7l-0.1,0.1h-0.1
				l-3.1-0.3l-0.8,4.7v0.1v0.1L255,160l0,0h-0.1l-7.4,3.3l-1,3.4v0.1h-0.1l-4.8,1.6l-0.3,0.1l-0.1-0.3l-0.7-2.7l-5-1h-0.2v-0.2
				l-0.4-3.7l-3.5-4.5h-4.7l-0.1-0.1l-9.7-7.7l0,0l0,0l-3-4.1l-4.9,3.5l-0.1,0.1h-0.1l-2.8-0.1l0.1,0.6v0.1l-0.1,0.1l-1.5,1.5
				l0.5,2.2v0.1l-0.1,0.1l-2.1,2.3l1.8,3.6l12,4.8l11.1,2.6l2.3,8.8l8.1,4.3l5.7-0.1l8.1-4.8l6.2,2l6.5-0.4l1.7,3l3.8,0.2l1.2-4.6
				L271.4,173.8z M202.2,154.7l0.1-0.1l2.1-2.4l-0.5-2.2v-0.1l0.1-0.1l1.5-1.5l-0.4-1.5l-4.3,0.3h-0.1l-0.1-0.1l-10.7-7.5l-0.6,2.9
				v0.2h-0.2l-13,1.1l-0.8,3.4v0.2h-0.2l-2.5,0.7l0.3,2.4v0.2l-0.1,0.1l-3.5,2.2l-0.1,2.3v0.2H169l-2.4,0.6l-4.3,3.6l-0.1,0.1h-0.1
				l-10-1.3H152h-0.1l-6.1-4.3l-2.8-0.2l-1.8,4.8l-0.1,0.2h-0.2l-7.1,0.5l0.4,4.9l4.3,7.6l0.1,0.2l-0.2,0.1l-3,2l0.7,4.7l18.3-6.9
				l6.5-0.4l1.1,1.7l9.8,2.1l0.7,4.4l3.7,1.8l10.4,1.1l4.1,0.6l2.1,2l3.3-1.1l3-2.6l2.1-5.2l-3.5-4.3l0.4-6.5l2.3-0.7l0.1-3l3-0.1
				l0.8-3.2l-1.9-3.7L202.2,154.7z M122.2,143.6v0.1l-0.1,0.1l-2.5,1.6l-0.2,4.5l5.8,0.2h0.1l0.1,0.1l1.9,2.2l3.1-1.1l2.3-1.2
				l3.9-3.9l-0.9-2.5v-0.1v-0.1l0.7-2.8l-0.9-3.7v-0.1l0.1-0.1l2.6-3.3l1.3-4l-3.8-1.3h-0.1v-0.1l-0.7-2.4v-0.1l0.1-0.1l3-3.9
				l-1.6-4v-0.1l0.7-3.1v-0.1l0.1-0.1l4-1.9l2-2l-4.2-8.2V102v-0.1l0.6-2.8l-4.5,1.9H135h-0.1l-5.9-2.6l-6.7,0.9l-2.6,3l-0.1,0.1
				h-0.1h-6.9l-0.1,18.6l2.5-0.3h0.3v0.3l0.5,3.7l3.5,3.7l0,0l0,0l1.2,3.3l3.3,2.3l0.2,0.2l-0.2,0.2l-2.5,2.9l2,2.2l0.1,0.1v0.1
				L122.2,143.6z M134.8,173.9l0.1-0.1l2.9-2l-4.2-7.4l0,0v-0.1l-0.4-4.8l-3.7,2.8l-0.2,0.2l-0.2-0.2l-3.3-4.3l-0.1-0.1v-0.1
				l1.2-5.1l-1.9-2.1l-5.7-0.2v0.1h-0.2l-3.6,0.7h-0.1l-0.1-0.1l-2.9-2.3l-0.2,2.4v0.1v0.1l-2.9,4.3l-0.1,0.1H109l-5.2-0.5l-4.1,1.4
				L98,159l2.6,1.3l0.1,0.1v0.1l0.7,3.1l0.1,0.3h-0.3l-4.7,0.5l0.5,4.9l4.5,2.6l0.1,4.8l4.5,1l1.8,2.3l5.1-2.7l1,3.5l3.3,4.8
				l5.1,0.6l1.6-3.4l6.8-0.3l4.5-3.4l-0.7-5L134.8,173.9z M100.3,160.6l-2.7-1.4l-0.3-0.1l0.2-0.3l1.9-2.6v-0.1h0.1l4.3-1.4h0.1h0.1
				l5.1,0.5l2.7-4.1l0.2-2.8v-0.5l0.4,0.3l3.2,2.5l3.2-0.6l0.2-4.9l0.1-0.1l2.5-1.6l0.9-3.6l-2-2.3l-0.2-0.2l0.1-0.2l2.4-2.9
				l-3.1-2.2h-0.1v-0.1l-1.2-3.3l-3.5-3.8l-0.1-0.1v-0.1l-0.4-3.5l-2.5,0.3l-3.2,2.9l-0.1,0.1h-0.1l-6.1-0.6l-1.8,1.4l-0.2,0.1
				l-0.2-0.1l-1.9-1.5l-5.3,5.2l-0.2,0.2l-0.2-0.2l-4.1-4l-0.1-0.1v-0.1l-0.7-3l-3.4-4.5l-14,4.8h-0.1h-0.1l-3-1.3l-1.4,0.9
				l-0.1,0.1l-0.1-0.1l-2.2-1.4l-2.9,1.7l6.9,32.9l3.7-0.6l2.6-3.7l2.4,1l0.7,3.8l7.8,4.3l6.1-2.3l3.3,1.4l2.3,4.8l4.5-0.5
				L100.3,160.6z M63.6,119.8L63.6,119.8l2.3,1.5l1.3-0.9l0.1-0.1l0.1,0.1l3,1.3l14.1-4.8l0.2-0.1l0.1,0.2l3.5,4.7l0,0v0.1l0.7,3
				l3.9,3.8l5.3-5.1l0.2-0.2l0.2,0.1l1.9,1.5l1.8-1.3l0.1-0.1h0.1l6.1,0.6l3.1-2.8l0.1-18.8h-2.4l-3.5,2.9l-0.2,0.2l-0.2-0.2
				l-1.5-1.9l-0.1-0.1v-0.1l0.4-7.1l-10.2-0.3h-0.2l-0.1-0.1L92,92.4l-5.3,0.1h-0.2l-0.1-0.2l-1-3.8l-3.3-4.3l-17.9-8.5v5.9
				l-0.1,0.1l-3.4,2l1,3.8l0.1,0.4h-0.4L57,87.6L53.6,89l-2,3.5l0.4,10.3v0.1v0.1l-2.3,5.5l7.3,0.2l-3,3.1l6.1,10.2l2.9-1.7
				L63.6,119.8z M51.4,92.3L51.4,92.3l2.1-3.8v-0.1h0.1l3.5-1.5h0.1h0.1l4.1,0.3l-0.9-3.6l-0.1-0.2l0.2-0.1l3.4-2V66.8l-2.4-2.6
				L61.4,64l0.1-0.2l2.6-3.2l-0.2-2L59,62.1h-0.1h-0.1L55.2,62h-0.1H55l-3.6-2l-3.9,0.6h-0.1l-0.1-0.1l-5.1-3.7L40,56.4l-0.4-0.1
				l0.2-0.3l1.6-2.3L39,51.2l-4.8,4.6l-0.4,4.3v0.1l-0.1,0.1L32.3,62l0.4,1.4l3,1.1h0.1v0.1l1,2.8v0.1v0.1l-0.6,2.7l0,0l0,0l-1,1.6
				L35.1,72h-0.2l-3.5-0.7l-2.7,2.9L28,77.6v0.1l-0.1,0.1l-4.7,4.4l-0.9,2.3l2.1,0.6l0.1,3.7l-1.3,1.4l0.9,2.6l-2.8,3.3l0.6,2.4
				l6.1,1.4l0.3,3.3l3,0.1l2.3,0.6l2.3,2.6l-3.3,2.7v2.3l3.3-1l2.8,1.6l2.6-0.6l2.1-1.8l6.1-1.1l2.4-5.7L51.4,92.3z M105.9,104.7
				l3.3-2.8l0.1-0.1h3.2l0,0h6.8l2.5-3l0.1-0.1h0.1l6.9-1h0.1h0.1l5.8,2.6l4.7-2l0.2-4.8v-0.1l0.1-0.1l4.9-3.8l0.6-2.3l-4.3-1.3H141
				l0,0l-3.2-3.2v-0.1l-0.5-4v-0.1l0.1-0.1l5.4-4.7L143,71l-3.6-0.4h-0.1l-0.1-0.1l-4-8.2l-13.7-2.1h-0.2v-4.1l0.1-0.1l1.8-2.3
				l-1.9-6.7l-3.8-2.7l-7.7,4.4l-0.1,0.1l-0.1-0.1l-6.5-4.7L94,43.7h-0.1h-0.1l-6.1-4l-4.3-1.3l-4,3.1l-3,9.6l-0.1,0.2h-0.2
				l-3.5-0.4l-2.7,1.8l-0.6,2.9v0.1l-0.1,0.1l-4.9,2.8l0.3,2.3V61l0,0L62,64.1l2.4,2.5l0.1,0.1V75l18.2,8.6h0.1v0.1l3.4,4.4l0,0l0,0
				l1,3.6l5.3-0.1h0.2l0.1,0.1l1.8,3.4l10.3,0.3h0.3l-0.5,7.6L105.9,104.7z M129.4,161.8l3.8-2.9l0.4-0.3v0.2l6.9-0.4l1.8-4.8
				l0.1-0.2h0.2l2.9,0.2l2.1-4.4v-0.1h0.1l3.7-1.4l1.1-2.5v-3l0.1-0.1l3.4-1.8l-0.2-2.9l-1.4-4.3l0,0l0,0l-0.7-4l-3.1-4.7l-0.1-0.1
				l0.1-0.1l1.3-2.9l-2.3-1.5l-4,0.5l0,0h-4.5l-0.1-0.2l-2.2-6.4l-1.6,0.8l-0.7,2.9l1.6,4l0.1,0.1l-0.1,0.1l-3,3.9l0.6,2.1l3.9,1.4
				l0.2,0.1l-1.5,4.5l0,0l0,0l-2.5,3.2l0.9,3.7v0.1v0.1l-0.7,2.8l0.9,2.5l0.1,0.2l-4.2,4.2l0,0l0,0l-2.4,1.2l0,0l0,0l-3.2,1.1
				l-1.1,5L129.4,161.8z M136.7-94.4l-0.5-4.4l-1.7-0.9l-1.9,2.9l2.4,3.1L136.7-94.4z M139.3-116.8l1.2,1.6l1.3-1.4l-0.6-2.2
				l-1.7,0.5L139.3-116.8z M189.6-197.4l-3.7,0.1l-0.4,2.9l5.3,1L189.6-197.4z M190-184.4v2.3l3.7,3.4l7.3-3.3v-2.7l2.9-1.6
				l-1.1-2.2l-1.8-5l-3.2-2.8l-2.8,2.8l-2.8,1.9l0.7,3.5L190-184.4z M189.6-173.9l2.6-1.4l0.8-2.7l-5.6-2.1l-2.1,1.2l0.6,2.5
				L189.6-173.9z M201.6-180.7l-6.8,3.4l-2.5,6.1l-0.1,1.9l2.6,1.2l4.5,3.9l5,3.5l2.5-1.3l0.5-3.5l-1.9-2.3l2.3-3.7l0.3-4l-3.1-3
				l-0.3,2l-1.8,0.5L201.6-180.7z M207.6-150.2l5-4l5.2-0.4l2.7-2.7l0.4-6.4l-2.9-3.7l-2.5,2.5l-1.3-1.4l0.2-3.8l-4.2,2.3l-0.6,8
				l-3,5.5L207.6-150.2z M229-153.3l-0.2-1.5l-3.9-2.4l-0.3,0.9l0.4,2.1L229-153.3z M198.7-139.7l-1.1-2.2l-2.5,1.6l2,1.5
				L198.7-139.7z M179.7-141.8l0.2-2l-1.7-1.9l-1.2,1.1l0.2,1.5L179.7-141.8z M193-134.8l1,1.1l1.2-1.2l-1.4-1.5L193-134.8z
				 M149.8-108.1l2,1.8l1.3-1.3l-0.5-2.1l-1.7-0.4L149.8-108.1z M154.5-105.7l1.1,0.8l0.7-1.4l-1.2-1.4L154.5-105.7z M159.1-111.6
				l-1.7-1.1l-0.1,1.6l1.1,0.7L159.1-111.6z M160.6-113l1.2-1.7l-1.9-1.4l-1,0.7l0.5,1.4L160.6-113z M151.9-123.1l2-1.2l-1.2-2
				l-1.8-0.5l-1.7,1.5l1.2,1.4L151.9-123.1z M156.7-131.1l-1.8-0.1l-0.5,1.2l1.1,1.5l1.2-1.2V-131.1z M155.4-178.2l-0.1-2.1
				l-1.7-2.2l-2,0.9l-0.3,1.7l1.7,1.7L155.4-178.2z M164.6-193.9l2.5-0.6l-1.4-3.2l-1.8-1.5l-1.3,1.2l-0.3,2l0.1,1.3L164.6-193.9z
				 M320.6,70.2L320.6,70.2l0.2-0.1l5.9-0.2l-5.6-12.6l-3-2.1l-5.2,2.4l-0.3,0.1l-0.1-0.3l-1.9-5.7l-8.4-3.3l-4.2,0.7l-6.5,14.1l0,0
				l0,0l-4.4,5.1l-0.2,0.2l-0.2-0.2l-3.2-3.2l-2,3.6l-0.1,0.1h-0.2l-6,0.2l-4.1,3.1l-0.2,0.1l-0.2-0.2l-3.9-4.2l-0.1-0.1v-0.1
				l0.7-10.8l0,0l0,0l3.5-8.3l-4.6-1.4h-0.1V47l-2.2-4.9V42v-0.1l1.7-6.9l-3.7-2.1l-0.1-0.1v-0.2l0.2-6.8l-2.8-5.3l-2.2,1.5
				l-0.1,0.1h-0.1l-3.2-0.2h-0.2v-3.8l0.1-0.1l2.5-1.6l-2-3.1l-1.7,1.9l-0.1,0.1h-0.1l-4.1,0.9l-3.7,1.6l0.2,4.1l1.1,2.8v0.1v0.1
				l-2.1,4.6l2.1,3.3v0.1V33l0.4,5v0.1v0.1l-3.2,6.3v0.1h-0.1l-5.4,3.3l2,3.4l0.1,0.1l-0.1,0.1l-2.3,3.1l1.2,4.1l4.6,1.5h0.1v0.1
				l0.6,3v0.1l-0.1,0.1l-3.4,3.6l-0.2,2.5l2.2,0.6h0.1v0.1l1.1,3.2l0.1,0.2l-0.1,0.1l-2.5,2.5l-1.1,3.8l-0.1,0.3l-0.3-0.2l-4.8-2.8
				h-0.1v-0.1l-2.3-4.9l-4.4,2l-0.6,4.2v0.1l-0.1,0.1l-9.6,10.5l0.4,4.9v0.2l-0.2,0.1l-2.6,1.1l-0.2,0.1l-0.1-0.2l-3.7-8l-2.5,3.3
				l-0.1,0.1h-0.1l-10,0.4l-4,7.3l4.5,7l0.1,0.1v0.1l-0.9,3.9v0.2h-0.2l-4.4,0.6l-2.5,4.8l-0.9,12.9v0.3h-0.3l-4.2-0.4l-3,1.4v2.5
				l7.3,6.5l10.9,7.6l4.4-0.3h0.2v0.2l0.2,0.7l2.8,0.1l5-3.6l0.2-0.2l0.2,0.2l3.2,4.3l9.6,7.6h4.8l0.1,0.1l3.6,4.6v0.1v0.1l0.4,3.6
				l5,1h0.2v0.2l0.7,2.6l4.4-1.5l0.9-3h-4.7l-0.1-0.2l-1-2.2l-0.1-0.2l0.2-0.1l2.2-1.3l0,0h0.1l3-0.4l6-4.1l2.1-3.3l0,0l0,0l4.4-4
				l1-3l0,0l0,0l2.6-4.5l0,0l3.2-4.9l2.7-7.5l2-6l-2.1-5v-0.1V116l0.6-5.4v-0.1l0.1-0.1l2.8-3.3l-3.3-2.8l-0.1-0.1v-0.1l-0.6-3.2
				v-0.3h0.3l5.8-0.7l0.7-3.3l0.1-0.3l0.3,0.1l3.1,1.1l5.4-1.8l1.4-3.4l0.1-0.3l0.3,0.1l2.7,1.5h2.9l0.1,0.1l1.9,2.6l11.4-3.1
				l1.3-4.9l0.1-0.2h0.2l2.3,0.3l2.9-3.2l0.4-0.4l0.4,4.1l6.9,1.1l4.1-2.8l0.2-5.3l-4.3-3.1l-0.1-0.1v-0.1l-0.4-6.7v-0.1l0.1-0.1
				L320.6,70.2z M252.7,143.2l-6.1,7.8l-0.2,0.2l-0.2-0.1l-3.7-2.6l-4.5,0.4h-0.1h-0.1l-2.7-1.7l0,0l-3.2-2.3l-3.3-0.3h-0.2v-0.2
				l-0.5-2.6v-0.2l0.2-0.1l2.5-0.8l-1.1-3.8l-0.1-0.2l0.2-0.1l3-1.1l0.2-0.1l0.1,0.2l2.4,4.7l5.9-3.5l0.2-0.1l0.1,0.2l2,2.8l0,0
				l1.7,1.6l2.3-0.9l0,0h3.3l0.1,0.1l1.6,2.5l0.1,0.2L252.7,143.2z M247.8,140.9l-2.2,0.8l-0.2,0.1l-0.1,0.1l-0.1-0.1l-0.1-0.1
				l-1.7-1.6l0,0l0,0l0,0l0,0l0,0l-1.9-2.6l-5.7,3.4l-0.2,0.1l-0.2,0.1l-0.1-0.3l-0.1-0.3L233,136l-2.6,1l1,3.6l0.1,0.2l0.1,0.2
				l-0.2,0.1l-0.2,0.1l-2.3,0.7l0.4,2.2l3.1,0.3h0.1h0.1h0.1h0.1l3.2,2.3l2.6,1.6l4.5-0.4h0.1h0.1l0.1,0.1l0.1,0.1l3.5,2.5l5.8-7.4
				l-1.4-2.2h-3.6V140.9z M361.4,116.7l-6.2-9.3l0.1-0.1l2.1-2.9l-3.7-2.1l-0.1-0.1v-0.1l-0.5-7.1l-3.6,0.9h-0.2l-0.1-0.2l-2.3-4.1
				l-4.8,2.7l-0.2,0.1l-0.1-0.1l-3-3l-0.2-0.2l0.1-0.2l1.7-2.4l-5.9-3.9h-0.1v-0.1l-7.6-14l-6.1,0.2l-2.2,1.7l0.4,6.4l4.4,3.1
				l0.1,0.1v0.1l-0.2,5.7l-0.1,0.1l-4.3,3l-0.1,0.1h-0.1l-7.1-1.1l-2,2.8l2.1,1.9l0,0v0.1l3.5,10.5l4.1,0.7h0.1l0.1,0.1l3.9,3.5
				l0.1,0.1v0.1l0.4,5.2v0.2l-0.2,0.1l-6.2,2.2l-2.4,5.5v0.1h-0.1l-7,5.3v3.6l3.2,2.2l0.1,0.1v0.2l-0.4,4.3v0.1l-0.1,0.1l-3.2,3.9
				v0.1h-0.1l-4,1.6l-1.4,2.3l-0.1,0.1h-0.1l-4.7,0.4l-7.4,9.8l-0.1,0.1h-0.2l-4-0.5l-4.4,3.6l-0.1,0.1h-7l1.4,4.1l0.1,0.2l-0.1,0.1
				l-3.7,3l3.9,4.3l0.2,0.2l-0.3,0.2l-3.8,2l-1.2,4.3l2.4,0.1l2.4,4.5l18.6,1.7l12.5-7.5l4-0.1l1.3-4.1l6.1-5.7l8.5-0.4l2.6,2.4
				l3.5-3.3l15,2.4l2.1-5.8l5.1-3.5l-2.1-5.2l2.3-14.2l3.8-3.8l-2.6-6.8l-5.4-0.6l3.8-7.1L361.4,116.7z M328.2,160.5l-0.3,0.2
				l-15.4,7.4l-0.1,0.1l-0.1,0.1l-0.1-0.1l-9.1-5.7l-0.2-0.1l-0.2-0.1l0.1-0.2l0.1-0.2l1.3-3.3l0.1-0.1l0.1-0.1h0.2h0.2l7.3-0.9
				l2.1-4.4l0.2-0.3l0.2-0.3l0.3,0.2l0.3,0.2l1.7,1.5l1.8-4.1l0.1-0.1l0.1-0.1h0.1h0.1l3.7-0.7l0,0h0.1h0.1l0.1,0.1l0.1,0.1l0,0
				l4.5,2.8l0.2,0.1l0.2,0.1L328,153l-0.6,3v0.2v0.2h-0.2H327l-2.2,0.5l3.7,3.4l0,0l0.3,0.3l0.3,0.3L328.2,160.5z M323.1,156.1
				l0.5-0.1l2.7-0.6l0.6-3l-4.5-2.8l-3.7,0.7l-1.9,4.5l-0.1,0.3l-0.3-0.3l-2-1.8l-2.2,4.5l-0.1,0.1H312l-7.5,0.9l-1.3,3.3l8.9,5.6
				l15.4-7.4l-4.1-3.8L323.1,156.1z M139.7-100.2l-0.3,9.9l4.4,4.3l2.1,5h-6.1l-5.3-9.8l-3.9,0.2v0.5L134-83l0.1,0.3l-0.3,0.1
				l-3.6,0.6l-0.8,4.4l3.3,7.1v0.1v0.1L132-67v0.1l-0.1,0.1l-7.9,3.5l-1,4l5.1,6.8l5.8,1.5h0.2v0.2l1.3,7.3l-0.4,0.9l0,0l-2.1,5.2
				v0.1h-0.1l-5.3,1.4l1.6,3.8v0.1v0.1l-1.7,5.1l4.2,5.5l0.1,0.1v0.1L130.6-11l3.4,4.7l0.1,0.1v0.1L132.8,1l5.1,3.8l0.1,0.1V5
				l0.9,5.2v0.1l-0.1,0.1l-4.5,6.2l-0.4,5.5v0.1v0.1l-6.9,8.8V38l5.7,3.3l0.2,0.1l-0.1,0.2l-1,2.6v0.1h-0.1l-5.1,2.2l0,0l0,0L122,47
				l1.9,6.6v0.1l-0.1,0.1l-1.8,2.3v3.5l13.6,2.1h0.1l0.1,0.1l4,8.2l3.7,0.5h0.3v0.2l-0.2,3.1v0.1l-0.1,0.1l-5.4,4.7l0.4,3.8l3,3
				l4.5,1.4l0.2,0.1l-0.1,0.2l-0.7,2.6v0.1l-0.1,0.1l-4.9,3.7l-0.2,4.9v0.2l0,0l-0.7,3.1l4.2,8.2l0.1,0.2l-0.1,0.1l-2.1,2.1l0,0l0,0
				l-1.8,0.9l2.1,6.3h4.1l4-0.5h0.1l0.1,0.1l2.6,1.7l0.2,0.1l-0.1,0.2l-1.4,3l3,4.6l0,0v0.1l0.7,4l1.4,4.3l0,0l0,0l0.2,3.1v0.2
				l-0.2,0.1l-3.4,1.8v2.8v0.1L152,148v0.1h-0.1l-3.7,1.4l-2,4.2l6,4.2l9.8,1.3l4.3-3.6l0,0h0.1l2.3-0.5l0.1-2.3v-0.1l0.1-0.1
				l3.5-2.2l-0.3-2.7l0.2-0.1l2.6-0.7l0.8-3.5v-0.2h0.2l13-1.1l0.7-3l-7.3-6.5l-0.1-0.1v-3.1l0.2-0.1l3.2-1.5h0.1h0.1l4,0.4
				l0.8-12.7v-0.1v-0.1l2.6-5l0.1-0.1h0.1l4.4-0.6l0.8-3.6l-4.5-7l-0.1,0l0.1-0.1l4.1-7.6l0.1-0.1h0.1l10-0.4l2.7-3.6l0.3-0.3
				l0.2,0.4l3.8,8.2l2.2-0.9l-0.4-4.8v-0.1l0.1-0.1l9.7-10.5l0.6-4.2v-0.1l5.2-2.4l0.1,0.2l2.3,5.1l4.4,2.6l1-3.6v-0.1l0,0L243,74
				l-1-3l-2.2-0.6l-0.2-0.1v-0.2l0.2-2.8v-0.1l0.1-0.1l3.4-3.6l-0.6-2.7l-4.6-1.5H238v-0.1l-1.3-4.3v-0.1l0.1-0.1l2.3-3.1l-2.1-3.5
				l-0.1-0.2l0.2-0.1l5.6-3.4l3.2-6.1l-0.4-4.8l-2.1-3.4l-0.1-0.1l0.1-0.1l2.1-4.7l-1-2.7l0,0l0,0l-0.2-4.3V18l0.2-0.1L248,16l0,0
				l0,0l4-0.8l1.7-1.9l-1.4-1.8l-3,2l-0.2,0.1l-3.1-2.4h-7.1l0.5-4.2V6.9V6.8l4.1-4.9l1.2-3.2l-2.6-1.8L242-3.3V-7l-2.3-2.5
				l-0.1-0.1v-0.1l1-5l-2.9-2.2l0.2-0.2l4-4.5l-1.5-18.8l-4.7-7.2l2.4-1.2l5.7-4.6l0.1-0.1h0.1l3.3,0.4l1.2-5.9v-0.1l0,0l1.7-2.5
				l0.4-3.3V-65l0.1-0.1l7-5.5l-3-3.6l-0.1-0.1V-80l-6.1-8.6l0,0v-0.1l-0.8-4.4l-1.9-2.5l-0.1-0.1v-0.1l0.2-2.5l-3.7,1.9l-4.3,3.3
				l-5.8,1.7l-2.3,4l0.1-5.7l11.8-12.2l6.5-11.8l3-10.5l-9.1-10.4l-8.5-0.3l-3,4.3l-3.4,0.6l2.6-7.2l-7-0.9l2.3-3.3l-4.3-3.5
				l-3.8,1.4l-6.1,9.1l1.4,5.4l-6.5,0.4l0.1,1.7l2.4,3.5l-4.7-1l-2.4,2.3l-5.4-1l-0.7-2.4l-7.7,0.1l0.1,4.4l-9.2,1.3l-6.2,5
				l-4.8,0.1l-3.5,3.1l-1.6,6.4l3,5.4l-4.5,1.1l-12.1-2l-7-0.1L139.7-100.2z M580.7-7.3l-1.6-6.5l-4.7-4.7l0.4-7l2.4-2l-8.1-9.4
				l0.1-6.5l3.4-3.7l-0.9-3.7l-6.8-2l-7-12.3l1.7-1.1l2.1,3l3.4-2.1l-5.2-5l-2.8,1.6l-4.5-2.9l-0.1,0.1l-2.3-5.5h-4.7l-0.6,3.3
				l-3-0.3l-9.6-19.3l0.6-6.1l3.8-0.9l-2.8-11.4l6.1,4.8l0.1-13.6l4.8-5l7.2-0.1l-4.1-10.1l-2-21.7l-4.7,1.4h-0.1l-0.1-0.1l-3.5-1.8
				l-6,17.3l-0.1,0.2h-0.2l-7.7-0.2l-7.1,2.2l-0.2,0.1l-0.1-0.2l-2.3-6.3l-9.5,0.6l-1.7,3l-0.1,0.1h-0.1l-6.6,1.5l-1.1,3.4l0.2,0.2
				h-0.2l-3.6,0.4l-1.1,4v0.1H490l-4.1,1.3l0.7,4.1l5.9,8.6l3.7,0.8h0.1l0.1,0.1l2.5,6.6l4.2-0.4h0.1l0.1,0.1l2.8,2.6l0.1,0.1v0.1
				l0.8,4.1l3.8,2.2l2.7-2.5l-7.2-8.7l1.7-5.7l7-2.4l-3.7,5.5l0.9,4.3l5.5,3.8l2.6,0.1l-0.1,4l2.4,0.6l-2.3,11.4l2.6,4.3l0.9,13.2
				l2,8.5l2.7,8.5l-3.1,3.4l1,3.3l-1.7,2.3l4.4,5.1l0.7,8.1l6,6.8l0,0l7.2,8.1l39.2,26.3L580.7-7.3z M-20.9,4.5V4.3l0.1-0.1l5.9-2.7
				L-8.1-5l4.5-6l0.8-1.9l-4.9-0.7h-0.1h-0.1l-8.1-6.6l-2.9,1.6H-19h-0.1l-8-0.9v-0.1l-5.3-2.8l0,0l0,0l-4.9-5.5l-6.3-0.6l-1.9,4.6
				L-41-18v0.1v0.1l0.3,4.2v0.2l-0.2,0.1l-7.4,3.1v2.5l2,1.8l0.2,0.2l-2.3,3.1l0,0l-2,2.3l-2.7,7l0,0l0,0l-2.3,2.4l-1.5,3.8l0,0l0,0
				l-2.5,2.7l-0.1,0.1h-0.1l-2.1-0.1l-0.1,5.2l2.4-0.1h0.3v4.2l5.2,0.2h0.2v0.2l0.2,3l2.2,0.5h0.2V29l0.3,1.5l0,0l0.3,2.1l0.8,1
				l2-0.5l4.4-5.2l0.1-0.1h0.1l5-0.5l3.1-5l0.2-0.3l0.2,0.3l2.3,2.5l2-1.3l0.8-3.5v-0.2h0.2l5.5-0.3l1.5-1.9l0.4-3.8v-0.1l0.1-0.1
				l2.4-2.8L-21,7.5V7.4V7.3L-20.9,4.5z M-244.6,13.9l-5.7-0.5l-3.1-5.1l4.9-2.8l-0.6-3.5l1.2-2.9l-2.4-6.1l-0.5-3.9h-3.6l-2,1.6
				l-6.6-3.1l-6.2-0.5l-0.8,2l3.7,3.9l-0.4,3.1l2,1.8l-4.5,4.1h-2.6l-1.4,1.9l4,6l6.9-0.5l3.9,4.5l3.3-0.5l3.6,1.9l-0.4,3.1l5,4
				l5.4-1.5L-244.6,13.9z"/>
		</g>
	</g>
</g>
<rect y="-0.7" class="st5" width="595.3" height="201.9"/>
<polygon class="st6" points="473.2,133.2 473,132.1 475.1,131.7 474.9,130.7 472.8,131 472.6,130 471.6,130.2 471.7,131.2 
	471.9,132.3 472.1,133.4 "/>
<polygon class="st6" points="475.1,131.7 475.3,132.8 477.4,132.4 477.6,133.5 478.7,133.3 478.5,132.3 478.3,131.2 478.1,130.1 
	477.1,130.3 477.3,131.4 "/>
<polygon class="st6" points="471.1,127.5 470.8,126.4 472.8,125.7 472.5,124.7 470.4,125.4 470.1,124.4 469.1,124.7 469.4,125.7 
	469.7,126.8 470.1,127.8 "/>
<polygon class="st6" points="472.8,125.7 473.2,126.8 475.2,126.1 475.6,127.1 476.6,126.8 476.2,125.8 475.9,124.7 475.6,123.7 
	474.5,124 474.9,125.1 "/>
<polygon class="st6" points="468.2,121.7 467.8,120.6 469.9,120 469.5,118.9 467.5,119.6 467.2,118.6 466.1,118.9 466.5,119.9 
	466.8,121 467.1,122 "/>
<polygon class="st6" points="469.9,120 470.2,121 472.3,120.3 472.6,121.3 473.6,121 473.3,120 473,118.9 472.6,117.9 471.6,118.2 
	471.9,119.3 "/>
<polygon class="st6" points="464.8,116.9 464.2,116 466,114.8 465.4,113.9 463.6,115.1 463,114.2 462.1,114.8 462.7,115.7 
	463.3,116.6 463.9,117.5 "/>
<polygon class="st6" points="466,114.8 466.6,115.7 468.4,114.5 469,115.4 469.9,114.8 469.3,113.9 468.7,113 468.1,112.1 
	467.2,112.7 467.8,113.6 "/>
<polygon class="st6" points="460.9,112 460.2,111.2 461.8,109.8 461.1,109 459.5,110.4 458.8,109.5 458,110.2 458.7,111.1 
	459.3,111.9 460,112.7 "/>
<polygon class="st6" points="461.8,109.8 462.5,110.6 464.2,109.3 464.9,110.1 465.7,109.4 465,108.6 464.3,107.7 463.6,106.9 
	462.8,107.6 463.5,108.4 "/>
<polygon class="st6" points="456.5,107.7 455.7,107 457.2,105.4 456.4,104.6 454.9,106.2 454.1,105.5 453.4,106.3 454.2,107 
	455,107.8 455.8,108.5 "/>
<polygon class="st6" points="457.2,105.4 458,106.1 459.5,104.5 460.3,105.2 461,104.4 460.2,103.7 459.4,103 458.6,102.2 
	457.9,103 458.7,103.8 "/>
<polygon class="st6" points="451.2,104 450.4,103.3 451.8,101.7 451,100.9 449.6,102.5 448.8,101.8 448.1,102.6 448.9,103.3 
	449.7,104.1 450.5,104.8 "/>
<polygon class="st6" points="451.8,101.7 452.6,102.4 454.1,100.8 454.9,101.5 455.6,100.7 454.8,100 454,99.3 453.2,98.5 
	452.5,99.3 453.3,100.1 "/>
<polygon class="st6" points="446.2,100.4 445.3,99.8 446.5,98 445.6,97.4 444.4,99.2 443.5,98.6 442.9,99.4 443.8,100.1 
	444.7,100.7 445.6,101.3 "/>
<polygon class="st6" points="446.5,98 447.4,98.6 448.6,96.8 449.5,97.4 450.1,96.5 449.2,95.9 448.3,95.3 447.4,94.7 446.8,95.6 
	447.7,96.2 "/>
<polygon class="st6" points="440.6,98.2 439.6,97.7 440.5,95.8 439.5,95.3 438.6,97.3 437.6,96.8 437.2,97.8 438.1,98.3 439.1,98.7 
	440.1,99.2 "/>
<polygon class="st6" points="440.5,95.8 441.5,96.2 442.4,94.3 443.3,94.7 443.8,93.7 442.8,93.3 441.8,92.8 440.9,92.4 440.4,93.4 
	441.4,93.8 "/>
<polygon class="st6" points="434.7,96.5 433.6,96.2 434.2,94.1 433.2,93.8 432.6,95.9 431.6,95.6 431.3,96.7 432.3,96.9 433.4,97.2 
	434.4,97.5 "/>
<polygon class="st6" points="434.2,94.1 435.3,94.4 435.8,92.3 436.9,92.6 437.1,91.5 436.1,91.2 435,91 434,90.7 433.7,91.7 
	434.8,92 "/>
<polygon class="st6" points="428.4,94.8 427.4,94.5 427.9,92.4 426.9,92.1 426.3,94.2 425.3,93.9 425,95 426.1,95.3 427.1,95.5 
	428.1,95.8 "/>
<polygon class="st6" points="427.9,92.4 429,92.7 429.5,90.6 430.6,90.9 430.9,89.8 429.8,89.6 428.8,89.3 427.7,89 427.5,90 
	428.5,90.3 "/>
<polygon class="st6" points="422.4,94.8 421.4,94.7 421.5,92.5 420.5,92.4 420.3,94.6 419.2,94.5 419.1,95.6 420.2,95.7 421.3,95.8 
	422.4,95.8 "/>
<polygon class="st6" points="421.5,92.5 422.6,92.6 422.8,90.4 423.9,90.5 423.9,89.4 422.9,89.4 421.8,89.3 420.7,89.2 420.6,90.3 
	421.7,90.4 "/>
<polygon class="st6" points="416.4,95.3 415.3,95.4 415.1,93.2 414,93.4 414.2,95.5 413.2,95.6 413.3,96.7 414.4,96.6 415.4,96.5 
	416.5,96.4 "/>
<polygon class="st6" points="415.1,93.2 416.2,93.1 415.9,91 417,90.9 416.9,89.8 415.8,89.9 414.7,90 413.6,90.1 413.8,91.2 
	414.8,91.1 "/>
<polygon class="st6" points="409.9,96 408.9,96.1 408.6,94 407.6,94.1 407.8,96.2 406.7,96.4 406.8,97.4 407.9,97.3 409,97.2 
	410.1,97.1 "/>
<polygon class="st6" points="408.6,94 409.7,93.9 409.5,91.7 410.5,91.6 410.4,90.5 409.3,90.6 408.3,90.7 407.2,90.9 407.3,91.9 
	408.4,91.8 "/>
<polygon class="st6" points="403.9,96.8 402.9,97.1 402.3,95 401.2,95.3 401.8,97.4 400.8,97.7 401.1,98.7 402.1,98.4 403.1,98.1 
	404.2,97.8 "/>
<polygon class="st6" points="402.3,95 403.3,94.7 402.7,92.6 403.8,92.3 403.5,91.3 402.4,91.6 401.4,91.9 400.3,92.2 400.6,93.2 
	401.7,92.9 "/>
<polygon class="st6" points="398,99.5 397,99.8 396.4,97.8 395.3,98.1 395.9,100.1 394.9,100.4 395.2,101.5 396.2,101.2 
	397.3,100.9 398.3,100.6 "/>
<polygon class="st6" points="396.4,97.8 397.4,97.5 396.8,95.4 397.9,95.1 397.6,94 396.5,94.3 395.5,94.6 394.5,94.9 394.8,96 
	395.8,95.7 "/>
<polygon class="st6" points="392.4,102 391.4,102.5 390.5,100.5 389.5,101 390.5,102.9 389.5,103.4 389.9,104.4 390.9,103.9 
	391.9,103.5 392.9,103 "/>
<polygon class="st6" points="390.5,100.5 391.5,100.1 390.6,98.1 391.6,97.6 391.1,96.7 390.1,97.1 389.1,97.6 388.2,98.1 388.6,99 
	389.6,98.6 "/>
<polygon class="st6" points="386.5,104.8 385.6,105.3 384.6,103.3 383.7,103.8 384.6,105.7 383.6,106.2 384.1,107.2 385,106.7 
	386,106.2 387,105.8 "/>
<polygon class="st6" points="384.6,103.3 385.6,102.8 384.7,100.9 385.7,100.4 385.2,99.4 384.2,99.9 383.3,100.4 382.3,100.8 
	382.7,101.8 383.7,101.3 "/>
<polygon class="st6" points="380.7,107.6 379.7,108 378.8,106.1 377.8,106.5 378.7,108.5 377.7,108.9 378.2,109.9 379.2,109.5 
	380.2,109 381.1,108.5 "/>
<polygon class="st6" points="378.8,106.1 379.8,105.6 378.8,103.6 379.8,103.2 379.3,102.2 378.4,102.7 377.4,103.1 376.4,103.6 
	376.9,104.6 377.8,104.1 "/>
<polygon class="st6" points="374.9,110.4 373.9,110.9 372.9,108.9 372,109.4 372.9,111.3 372,111.8 372.4,112.8 373.4,112.3 
	374.4,111.8 375.4,111.4 "/>
<polygon class="st6" points="372.9,108.9 373.9,108.4 373,106.5 373.9,106 373.4,105.1 372.5,105.5 371.5,106 370.5,106.5 
	371,107.5 372,107 "/>
<polygon class="st6" points="369.1,113.4 368.1,113.9 367.2,111.9 366.2,112.4 367.2,114.3 366.2,114.8 366.7,115.8 367.7,115.3 
	368.6,114.8 369.6,114.3 "/>
<polygon class="st6" points="367.2,111.9 368.2,111.4 367.2,109.5 368.2,109 367.7,108.1 366.7,108.5 365.7,109 364.8,109.5 
	365.3,110.5 366.2,110 "/>
<polygon class="st6" points="363.2,116.2 362.3,116.6 361.3,114.7 360.3,115.2 361.3,117.1 360.3,117.6 360.8,118.6 361.7,118.1 
	362.7,117.6 363.7,117.2 "/>
<polygon class="st6" points="361.3,114.7 362.3,114.2 361.4,112.3 362.3,111.8 361.9,110.8 360.9,111.3 359.9,111.8 358.9,112.2 
	359.4,113.2 360.4,112.7 "/>
<polygon class="st6" points="357.3,118.8 356.3,119.3 355.4,117.3 354.4,117.8 355.3,119.7 354.4,120.2 354.8,121.2 355.8,120.7 
	356.8,120.2 357.8,119.8 "/>
<polygon class="st6" points="355.4,117.3 356.4,116.8 355.4,114.9 356.4,114.4 355.9,113.4 355,113.9 354,114.4 353,114.8 
	353.5,115.8 354.4,115.3 "/>
<polygon class="st6" points="351.3,121.4 350.3,121.9 349.4,119.9 348.4,120.3 349.3,122.3 348.3,122.7 348.7,123.7 349.7,123.3 
	350.7,122.9 351.7,122.4 "/>
<polygon class="st6" points="349.4,119.9 350.4,119.5 349.6,117.5 350.6,117 350.1,116 349.1,116.5 348.2,116.9 347.2,117.3 
	347.6,118.3 348.6,117.9 "/>
<polygon class="st6" points="345.3,123.9 344.3,124.3 343.4,122.3 342.4,122.8 343.3,124.8 342.3,125.2 342.7,126.2 343.7,125.8 
	344.7,125.3 345.7,124.9 "/>
<polygon class="st6" points="343.4,122.3 344.4,121.9 343.6,119.9 344.6,119.5 344.1,118.5 343.1,118.9 342.1,119.4 341.2,119.8 
	341.6,120.8 342.6,120.3 "/>
<polygon class="st6" points="339.2,126.4 338.2,126.8 337.4,124.8 336.4,125.2 337.2,127.2 336.2,127.6 336.6,128.6 337.6,128.2 
	338.6,127.8 339.6,127.4 "/>
<polygon class="st6" points="337.4,124.8 338.4,124.4 337.6,122.4 338.6,122 338.2,121 337.2,121.4 336.2,121.8 335.2,122.2 
	335.6,123.2 336.6,122.8 "/>
<polygon class="st6" points="333.2,128.8 332.2,129.3 331.4,127.3 330.4,127.7 331.2,129.7 330.2,130.1 330.6,131.1 331.6,130.7 
	332.6,130.3 333.6,129.8 "/>
<polygon class="st6" points="331.4,127.3 332.4,126.8 331.6,124.8 332.6,124.4 332.2,123.4 331.2,123.8 330.2,124.2 329.2,124.7 
	329.6,125.7 330.6,125.3 "/>
<polygon class="st6" points="326.4,129.5 325.4,129.6 325.1,127.5 324,127.6 324.3,129.8 323.2,129.9 323.4,131 324.4,130.9 
	325.5,130.7 326.6,130.6 "/>
<polygon class="st6" points="325.1,127.5 326.2,127.4 325.9,125.2 327,125.1 326.9,124 325.8,124.1 324.7,124.3 323.6,124.4 
	323.8,125.5 324.8,125.4 "/>
<polygon class="st6" points="319.3,127.9 318.3,127.4 319.2,125.5 318.2,125 317.3,127 316.3,126.5 315.9,127.5 316.8,128 
	317.8,128.4 318.8,128.9 "/>
<polygon class="st6" points="319.2,125.5 320.2,125.9 321.1,124 322.1,124.4 322.6,123.5 321.6,123 320.6,122.5 319.6,122.1 
	319.2,123.1 320.1,123.5 "/>
<polygon class="st6" points="314.5,123.5 313.5,123 314.4,121.1 313.5,120.6 312.5,122.6 311.5,122.1 311.1,123.1 312.1,123.6 
	313,124 314,124.5 "/>
<polygon class="st6" points="314.4,121.1 315.4,121.5 316.3,119.6 317.3,120.1 317.8,119.1 316.8,118.6 315.8,118.1 314.8,117.7 
	314.4,118.7 315.4,119.1 "/>
<polygon class="st6" points="309,119 308.2,118.3 309.7,116.7 308.9,115.9 307.4,117.5 306.6,116.8 305.9,117.6 306.7,118.3 
	307.5,119 308.3,119.8 "/>
<polygon class="st6" points="309.7,116.7 310.5,117.4 311.9,115.8 312.7,116.6 313.5,115.8 312.7,115 311.9,114.3 311.1,113.6 
	310.3,114.3 311.1,115.1 "/>
<polygon class="st6" points="304.3,114.6 303.5,113.8 304.9,112.2 304.1,111.5 302.7,113.1 301.9,112.3 301.1,113.1 301.9,113.9 
	302.7,114.6 303.5,115.3 "/>
<polygon class="st6" points="304.9,112.2 305.7,113 307.2,111.4 308,112.1 308.7,111.3 307.9,110.6 307.1,109.9 306.3,109.1 
	305.6,109.9 306.4,110.6 "/>
<polygon class="st6" points="299.5,110.8 298.6,110.2 299.8,108.4 298.9,107.8 297.7,109.6 296.8,109 296.2,109.9 297.1,110.5 
	298,111.1 298.9,111.7 "/>
<polygon class="st6" points="299.8,108.4 300.7,109 301.9,107.2 302.8,107.8 303.4,106.9 302.5,106.3 301.6,105.7 300.7,105.1 
	300.1,106 301,106.6 "/>
<polygon class="st6" points="293.6,108.2 292.7,107.6 293.9,105.8 293,105.2 291.8,107 290.9,106.4 290.3,107.3 291.2,107.9 
	292.1,108.5 293,109.1 "/>
<polygon class="st6" points="293.9,105.8 294.8,106.4 296,104.6 296.9,105.2 297.5,104.3 296.5,103.7 295.6,103.1 294.7,102.5 
	294.1,103.4 295,104 "/>
<polygon class="st6" points="288.7,105.9 287.6,105.8 287.9,103.6 286.8,103.5 286.5,105.6 285.5,105.5 285.3,106.6 286.4,106.7 
	287.5,106.8 288.5,107 "/>
<polygon class="st6" points="287.9,103.6 288.9,103.7 289.2,101.6 290.3,101.7 290.4,100.7 289.3,100.5 288.3,100.4 287.2,100.3 
	287.1,101.3 288.1,101.5 "/>
<polygon class="st6" points="282.3,107 281.2,106.9 281.5,104.7 280.4,104.6 280.1,106.7 279.1,106.6 278.9,107.7 280,107.8 
	281.1,107.9 282.1,108.1 "/>
<polygon class="st6" points="281.5,104.7 282.5,104.9 282.8,102.7 283.9,102.8 284,101.8 282.9,101.6 281.9,101.5 280.8,101.4 
	280.7,102.4 281.7,102.6 "/>
<polygon class="st6" points="276.5,107.8 275.4,108 275.1,105.8 274,106 274.4,108.2 273.3,108.4 273.5,109.4 274.6,109.2 
	275.6,109 276.7,108.9 "/>
<polygon class="st6" points="275.1,105.8 276.1,105.7 275.8,103.5 276.8,103.3 276.6,102.3 275.6,102.5 274.5,102.6 273.5,102.8 
	273.6,103.9 274.7,103.7 "/>
<polygon class="st6" points="270.2,108.9 269.1,109.1 268.7,107 267.6,107.2 268,109.3 267,109.5 267.2,110.6 268.2,110.4 
	269.3,110.2 270.3,110 "/>
<polygon class="st6" points="268.7,107 269.8,106.8 269.4,104.7 270.4,104.5 270.2,103.4 269.2,103.6 268.1,103.8 267,104 
	267.2,105.1 268.3,104.9 "/>
<polygon class="st6" points="263.6,110.1 262.6,110.2 262.3,108.1 261.2,108.2 261.5,110.4 260.4,110.5 260.5,111.6 261.6,111.4 
	262.7,111.3 263.8,111.2 "/>
<polygon class="st6" points="262.3,108.1 263.4,108 263.1,105.8 264.2,105.7 264.1,104.6 263,104.7 261.9,104.9 260.8,105 
	261,106.1 262,105.9 "/>
<polygon class="st6" points="257.1,110.4 256.1,110.5 255.8,108.4 254.7,108.5 255,110.6 253.9,110.8 254,111.8 255.1,111.7 
	256.2,111.6 257.3,111.5 "/>
<polygon class="st6" points="255.8,108.4 256.9,108.2 256.6,106.1 257.7,106 257.6,104.9 256.5,105 255.4,105.1 254.4,105.3 
	254.5,106.3 255.6,106.2 "/>
<polygon class="st6" points="250.4,110.6 249.4,110.6 249.3,108.5 248.2,108.5 248.3,110.7 247.2,110.7 247.2,111.8 248.3,111.8 
	249.4,111.7 250.5,111.7 "/>
<polygon class="st6" points="249.3,108.5 250.4,108.5 250.4,106.3 251.4,106.3 251.4,105.2 250.3,105.2 249.3,105.2 248.2,105.3 
	248.2,106.3 249.3,106.3 "/>
<polygon class="st6" points="244,110.6 242.9,110.6 242.8,108.5 241.8,108.5 241.8,110.6 240.7,110.7 240.7,111.7 241.8,111.7 
	242.9,111.7 244,111.7 "/>
<polygon class="st6" points="242.8,108.5 243.9,108.4 243.9,106.3 245,106.3 244.9,105.2 243.9,105.2 242.8,105.2 241.7,105.2 
	241.7,106.3 242.8,106.3 "/>
<polygon class="st6" points="237.3,109.6 236.2,109.5 236.5,107.3 235.4,107.2 235.2,109.3 234.1,109.2 234,110.3 235,110.4 
	236.1,110.5 237.2,110.7 "/>
<polygon class="st6" points="236.5,107.3 237.5,107.4 237.8,105.3 238.8,105.4 239,104.3 237.9,104.2 236.8,104.1 235.7,104 
	235.6,105 236.7,105.2 "/>
<polygon class="st6" points="230.6,108.1 229.5,107.7 230.2,105.7 229.2,105.3 228.5,107.4 227.5,107.1 227.1,108.1 228.2,108.4 
	229.2,108.8 230.2,109.1 "/>
<polygon class="st6" points="230.2,105.7 231.2,106 231.9,103.9 232.9,104.3 233.3,103.2 232.2,102.9 231.2,102.6 230.2,102.2 
	229.8,103.3 230.9,103.6 "/>
<polygon class="st6" points="224.6,105.4 223.6,105.1 224.3,103.1 223.2,102.7 222.6,104.8 221.5,104.4 221.2,105.5 222.2,105.8 
	223.3,106.1 224.3,106.5 "/>
<polygon class="st6" points="224.3,103.1 225.3,103.4 226,101.3 227,101.7 227.3,100.6 226.3,100.3 225.3,100 224.2,99.6 
	223.9,100.7 224.9,101 "/>
<polygon class="st6" points="218.4,102.5 217.5,102 218.5,100.1 217.5,99.6 216.5,101.5 215.6,101 215,101.9 216,102.4 216.9,102.9 
	217.9,103.5 "/>
<polygon class="st6" points="218.5,100.1 219.4,100.6 220.5,98.7 221.4,99.2 221.9,98.3 221,97.8 220,97.2 219.1,96.7 218.6,97.7 
	219.5,98.2 "/>
<rect x="54.7" y="25.5" class="st1" width="159.1" height="42.9"/>
<g>
	<g>
		<defs>
			<rect id="SVGID_3_" y="-0.7" width="595.3" height="304.8"/>
		</defs>
		<clipPath id="SVGID_4_">
			<use xlink:href="#SVGID_3_"  style="overflow:visible;"/>
		</clipPath>
		<path class="st7" d="M257.1,108.5c0,2.9-2.4,5.3-5.3,5.3c-2.9,0-5.3-2.4-5.3-5.3s2.4-5.3,5.3-5.3
			C254.8,103.2,257.1,105.6,257.1,108.5"/>
	</g>
	<g>
		<defs>
			<rect id="SVGID_5_" y="-0.7" width="595.3" height="304.8"/>
		</defs>
		<clipPath id="SVGID_6_">
			<use xlink:href="#SVGID_5_"  style="overflow:visible;"/>
		</clipPath>
		<path class="st8" d="M222.5,99.2c0,2.9-2.4,5.3-5.3,5.3c-2.9,0-5.3-2.4-5.3-5.3s2.4-5.3,5.3-5.3C220.1,94,222.5,96.3,222.5,99.2"
			/>
	</g>
	<g>
		<defs>
			<rect id="SVGID_7_" y="-0.7" width="595.3" height="304.8"/>
		</defs>
		<clipPath id="SVGID_8_">
			<use xlink:href="#SVGID_7_"  style="overflow:visible;"/>
		</clipPath>
		<path class="st9" d="M323.4,124.4c0,2.9-2.4,5.3-5.3,5.3s-5.3-2.4-5.3-5.3s2.4-5.3,5.3-5.3C321.1,119.1,323.4,121.5,323.4,124.4"
			/>
	</g>
	<g>
		<defs>
			<rect id="SVGID_9_" y="-0.7" width="595.3" height="304.8"/>
		</defs>
		<clipPath id="SVGID_10_">
			<use xlink:href="#SVGID_9_"  style="overflow:visible;"/>
		</clipPath>
		<path class="st10" d="M480.8,132.7c0,2.9-2.4,5.3-5.3,5.3s-5.3-2.4-5.3-5.3c0-2.9,2.4-5.3,5.3-5.3
			C478.5,127.4,480.8,129.7,480.8,132.7"/>
	</g>
</g>
<g class="st11">
	<path class="st1" d="M53.2,224.4c-1.2,0-2.2-0.2-3.2-0.7c-1-0.5-1.8-1.1-2.5-2c-0.7-0.8-1.2-1.7-1.6-2.8s-0.6-2.1-0.6-3.2
		c0-1.1,0.2-2.2,0.6-3.3c0.4-1,1-2,1.7-2.8c0.7-0.8,1.6-1.4,2.5-1.9c1-0.5,2-0.7,3.1-0.7c1.2,0,2.3,0.2,3.2,0.7c1,0.5,1.8,1.2,2.5,2
		c0.7,0.8,1.2,1.8,1.6,2.8c0.4,1,0.6,2.1,0.6,3.1c0,1.2-0.2,2.2-0.6,3.3s-1,2-1.7,2.8c-0.7,0.8-1.6,1.4-2.5,1.9
		C55.3,224.1,54.3,224.4,53.2,224.4z M45.7,215.7c0,1.1,0.2,2.1,0.6,3c0.4,1,0.9,1.8,1.6,2.6c0.7,0.8,1.5,1.4,2.4,1.8
		c0.9,0.4,1.9,0.7,3,0.7c1.1,0,2.1-0.2,3-0.7s1.7-1.1,2.4-1.9c0.7-0.8,1.2-1.7,1.5-2.6s0.5-2,0.5-3c0-1.1-0.2-2.1-0.6-3
		c-0.4-1-0.9-1.8-1.6-2.6c-0.7-0.8-1.5-1.4-2.4-1.8c-0.9-0.4-1.9-0.7-2.9-0.7c-1.1,0-2.1,0.2-3,0.7c-0.9,0.5-1.7,1.1-2.4,1.9
		c-0.7,0.8-1.2,1.7-1.5,2.6C45.9,213.7,45.7,214.7,45.7,215.7z"/>
</g>
<g class="st11">
	<path class="st1" d="M69.7,224.5c-1.9,0-3.4-0.6-4.4-1.8c-1-1.2-1.5-2.8-1.5-4.8c0-1.6,0.1-2.9,0.4-3.9c0.2-1.1,0.6-1.9,1.1-2.6
		c0.5-0.7,1-1.3,1.7-1.7c0.7-0.4,1.5-0.8,2.3-1.2l5.2-2l0.2,0.5l-4.9,1.8c-1.2,0.4-2.1,0.9-2.9,1.5c-0.8,0.6-1.3,1.3-1.8,2.2
		c-0.4,0.9-0.7,2.1-0.8,3.5c0.4-1.1,1.1-1.9,2-2.5s2-0.9,3.2-0.9c1.3,0,2.4,0.2,3.2,0.7c0.9,0.5,1.5,1.2,1.9,2.1
		c0.4,0.9,0.6,1.9,0.6,3.1c0,1.2-0.2,2.3-0.7,3.1c-0.4,0.9-1.1,1.6-2,2C72,224.2,70.9,224.5,69.7,224.5z M69.7,224
		c1.7,0,3-0.5,4-1.5c0.9-1,1.4-2.3,1.4-3.9c0-1.6-0.4-2.9-1.3-3.9c-0.9-1-2.2-1.5-4-1.5c-1,0-1.9,0.2-2.7,0.6
		c-0.8,0.4-1.4,1-1.9,1.8c-0.5,0.8-0.7,1.8-0.7,3c0,1,0.2,1.9,0.6,2.7s1,1.5,1.8,1.9C67.5,223.8,68.5,224,69.7,224z"/>
</g>
<g class="st11">
	<path class="st1" d="M81,224.2v-12h-4.2v-0.5h4.7v4.8H85c1.3,0,2.3,0.4,3,1.1c0.6,0.7,1,1.6,1,2.7c0,0.7-0.1,1.4-0.4,2
		c-0.3,0.6-0.7,1.1-1.3,1.4s-1.3,0.5-2.1,0.5H81z M81.5,223.8H85c0.8,0,1.5-0.2,2-0.5c0.5-0.3,0.9-0.8,1.1-1.3s0.3-1.1,0.3-1.7
		c0-0.6-0.1-1.1-0.3-1.6s-0.5-0.9-1-1.2c-0.5-0.3-1.2-0.5-2.1-0.5h-3.5V223.8z"/>
	<path class="st1" d="M97.1,224.5c-0.8,0-1.6-0.2-2.3-0.5c-0.7-0.3-1.4-0.8-1.9-1.4c-0.6-0.6-1-1.3-1.3-2.1s-0.5-1.6-0.5-2.5
		c0-1.2,0.3-2.2,0.8-3.2s1.2-1.7,2.1-2.3c0.9-0.6,1.9-0.9,3-0.9c1.1,0,2.1,0.3,3,0.9c0.9,0.6,1.6,1.3,2.2,2.3s0.8,2.1,0.8,3.3
		c0,0,0,0.1,0,0.1s0,0.1,0,0.1H91.5c0.1,1.1,0.4,2,0.9,2.9c0.5,0.9,1.2,1.5,2,2.1s1.7,0.8,2.7,0.8s1.9-0.2,2.7-0.7s1.4-1.1,1.8-1.9
		l0.5,0.1c-0.2,0.6-0.6,1.1-1.1,1.5s-1.1,0.8-1.8,1.1C98.5,224.3,97.8,224.5,97.1,224.5z M91.5,217.8h10.9c-0.1-1.1-0.3-2.1-0.8-3
		c-0.5-0.9-1.1-1.5-1.9-2s-1.7-0.7-2.7-0.7c-1,0-1.9,0.2-2.7,0.7c-0.8,0.5-1.4,1.2-1.9,2C91.9,215.7,91.6,216.7,91.5,217.8z"/>
	<path class="st1" d="M104.4,227v-3.3h0.2c0.4,0,0.7-0.1,1.1-0.4c0.3-0.3,0.6-0.7,0.9-1.4c0.2-0.7,0.5-1.6,0.6-2.7
		c0.2-1.1,0.3-2.6,0.3-4.4l0.1-3.1h7.2v12h1.6v3.3h-0.5v-2.8h-11v2.8H104.4z M105.9,223.8h8.3v-11.5h-6.2l-0.1,2.7
		c0,1.8-0.2,3.3-0.3,4.5c-0.2,1.2-0.4,2.1-0.7,2.8C106.6,223,106.3,223.5,105.9,223.8z"/>
	<path class="st1" d="M119,224.2v-12.4h0.5v11.8l9-11.8h0.4v12.5h-0.5v-11.6l-8.9,11.6H119z"/>
	<path class="st1" d="M133,224.2v-12.5h0.5v5.9h8.6v-5.9h0.5v12.5h-0.5v-6.1h-8.6v6.1H133z"/>
	<path class="st1" d="M145.7,224.2l4.1-5.3c-0.9,0-1.7-0.4-2.3-1c-0.6-0.6-0.9-1.5-0.9-2.6c0-0.6,0.2-1.2,0.5-1.8
		c0.3-0.5,0.8-1,1.3-1.3s1.3-0.5,2.1-0.5h3.9v12.5H154V219h-3.6l-4.1,5.2H145.7z M150.1,218.5h3.8v-6.3h-3.4c-1,0-1.8,0.3-2.5,0.9
		s-0.9,1.3-0.9,2.2s0.2,1.6,0.7,2.3C148.4,218.2,149.1,218.5,150.1,218.5z"/>
	<path class="st1" d="M163.6,224.5c-0.8,0-1.6-0.2-2.3-0.5c-0.7-0.3-1.4-0.8-1.9-1.4c-0.6-0.6-1-1.3-1.3-2.1
		c-0.3-0.8-0.5-1.6-0.5-2.5c0-1.2,0.3-2.2,0.8-3.2c0.5-1,1.2-1.7,2.1-2.3c0.9-0.6,1.9-0.9,3-0.9c1.1,0,2.1,0.3,3,0.9
		c0.9,0.6,1.6,1.3,2.2,2.3s0.8,2.1,0.8,3.3c0,0,0,0.1,0,0.1s0,0.1,0,0.1H158c0.1,1.1,0.4,2,0.9,2.9s1.2,1.5,2,2.1
		c0.8,0.5,1.7,0.8,2.7,0.8s1.9-0.2,2.7-0.7c0.8-0.5,1.4-1.1,1.8-1.9l0.5,0.1c-0.2,0.6-0.6,1.1-1.1,1.5s-1.1,0.8-1.8,1.1
		C165,224.3,164.3,224.5,163.6,224.5z M158,217.8h10.9c-0.1-1.1-0.3-2.1-0.8-3c-0.5-0.9-1.1-1.5-1.9-2c-0.8-0.5-1.7-0.7-2.7-0.7
		c-1,0-1.9,0.2-2.7,0.7s-1.4,1.2-1.9,2C158.4,215.7,158.1,216.7,158,217.8z"/>
	<path class="st1" d="M172.3,224.2v-12.5h0.4l5.7,9.6l5.7-9.6h0.4v12.5h-0.5v-11.4l-5.5,9.2h-0.4l-5.5-9.2v11.4H172.3z"/>
</g>
<g class="st11">
	<path class="st1" d="M44.7,253v-0.5c0.4,0,0.9-0.1,1.2-0.4s0.7-0.7,1-1.4s0.5-1.6,0.7-2.7c0.2-1.1,0.3-2.6,0.3-4.4l0.1-3.1h7.2V253
		h-0.5v-12h-6.2l-0.1,2.7c0,1.8-0.2,3.3-0.3,4.5c-0.2,1.2-0.4,2.2-0.8,2.9c-0.3,0.7-0.7,1.2-1.1,1.5C45.8,252.9,45.3,253,44.7,253z"
		/>
	<path class="st1" d="M68.2,253.3c-1.1,0-2-0.3-2.9-0.8c-0.8-0.5-1.5-1.3-2-2.2c-0.5-0.9-0.7-2-0.8-3.2h-2.9v6h-0.5v-12.5h0.5v6h2.9
		c0-1.3,0.3-2.4,0.8-3.3c0.5-0.9,1.2-1.6,2-2.1c0.8-0.5,1.8-0.8,2.8-0.8c1.1,0,2.1,0.3,3,0.8c0.9,0.6,1.5,1.3,2,2.3s0.7,2.1,0.7,3.3
		c0,1.3-0.3,2.4-0.8,3.4c-0.5,1-1.2,1.7-2.1,2.2C70.3,253,69.3,253.3,68.2,253.3z M68.2,252.8c1.1,0,2-0.3,2.8-0.8
		c0.8-0.5,1.4-1.2,1.8-2.1c0.4-0.9,0.7-1.9,0.7-3.1c0-1.2-0.2-2.3-0.7-3.2c-0.5-0.9-1.1-1.6-1.9-2.1s-1.7-0.7-2.7-0.7
		c-1,0-1.9,0.3-2.7,0.8c-0.8,0.5-1.4,1.2-1.8,2.1c-0.4,0.9-0.6,1.9-0.6,3.1c0,1.2,0.2,2.2,0.7,3.1c0.4,0.9,1,1.6,1.8,2.1
		S67.2,252.8,68.2,252.8z"/>
	<path class="st1" d="M75.6,255.8v-3.3h0.2c0.4,0,0.7-0.1,1.1-0.4s0.6-0.7,0.9-1.4s0.5-1.6,0.6-2.7c0.2-1.1,0.3-2.6,0.3-4.4l0.1-3.1
		h7.2v12h1.6v3.3h-0.5V253h-11v2.8H75.6z M77.1,252.6h8.3v-11.5h-6.2l-0.1,2.7c0,1.8-0.2,3.3-0.3,4.5c-0.2,1.2-0.4,2.1-0.7,2.8
		C77.9,251.8,77.5,252.3,77.1,252.6z"/>
	<path class="st1" d="M95.4,253.3c-0.8,0-1.6-0.2-2.3-0.5c-0.7-0.3-1.4-0.8-1.9-1.4c-0.6-0.6-1-1.3-1.3-2.1
		c-0.3-0.8-0.5-1.6-0.5-2.5c0-1.2,0.3-2.2,0.8-3.2c0.5-1,1.2-1.7,2.1-2.3c0.9-0.6,1.9-0.9,3-0.9c1.1,0,2.1,0.3,3,0.9
		c0.9,0.6,1.6,1.3,2.2,2.3s0.8,2.1,0.8,3.3c0,0,0,0.1,0,0.1s0,0.1,0,0.1H89.9c0.1,1.1,0.4,2,0.9,2.9s1.2,1.5,2,2.1
		c0.8,0.5,1.7,0.8,2.7,0.8s1.9-0.2,2.7-0.7c0.8-0.5,1.4-1.1,1.8-1.9l0.5,0.1c-0.2,0.6-0.6,1.1-1.1,1.5s-1.1,0.8-1.8,1.1
		C96.8,253.1,96.1,253.3,95.4,253.3z M89.9,246.6h10.9c-0.1-1.1-0.3-2.1-0.8-3c-0.5-0.9-1.1-1.5-1.9-2c-0.8-0.5-1.7-0.7-2.7-0.7
		c-1,0-1.9,0.2-2.7,0.7s-1.4,1.2-1.9,2C90.2,244.5,89.9,245.5,89.9,246.6z"/>
	<path class="st1" d="M104.1,253v-12.4h0.5v11.8l9-11.8h0.4V253h-0.5v-11.6l-8.9,11.6H104.1z M109.1,238.6c-0.9,0-1.7-0.2-2.3-0.6
		c-0.6-0.4-0.9-1-0.9-1.7h0.5c0,0.6,0.2,1.1,0.7,1.4c0.5,0.4,1.1,0.5,1.9,0.5c0.8,0,1.4-0.2,1.9-0.5c0.5-0.4,0.7-0.8,0.7-1.4h0.4
		c0,0.7-0.3,1.3-0.9,1.7C110.7,238.4,110,238.6,109.1,238.6z"/>
</g>
<g class="st11">
	<path class="st1" d="M51.2,284.3c-0.8,0-1.6-0.2-2.3-0.5c-0.7-0.3-1.4-0.8-1.9-1.4c-0.6-0.6-1-1.3-1.3-2.1s-0.5-1.6-0.5-2.5
		c0-1.2,0.3-2.3,0.8-3.2s1.2-1.7,2.2-2.3c0.9-0.6,1.9-0.8,3-0.8c1,0,2,0.2,2.8,0.7c0.8,0.5,1.5,1.2,1.9,2.1l-0.5,0.2
		c-0.4-0.8-1-1.4-1.8-1.8c-0.8-0.4-1.6-0.7-2.5-0.7c-1,0-1.9,0.3-2.7,0.8c-0.8,0.5-1.5,1.2-2,2.1c-0.5,0.9-0.7,1.9-0.7,3
		c0,1.1,0.2,2.1,0.7,3c0.5,0.9,1.2,1.7,2,2.2c0.8,0.6,1.7,0.8,2.7,0.8c0.7,0,1.3-0.1,1.9-0.4c0.6-0.2,1.2-0.6,1.6-1
		c0.5-0.4,0.7-0.8,0.9-1.3l0.5,0.1c-0.2,0.6-0.5,1.1-1,1.5c-0.5,0.4-1.1,0.8-1.7,1.1C52.6,284.2,51.9,284.3,51.2,284.3z"/>
</g>
<g class="st11">
	<path class="st1" d="M63.4,268.9l4.7-1.7h4.1V284h-4.8v-11.8l-2.9,0.7L63.4,268.9z"/>
	<path class="st1" d="M86.8,272.8c0,1.2-0.3,2.3-0.9,3.3l-5,8h-5.4l3.4-5.4c-1.6-0.3-2.8-0.9-3.7-2c-0.9-1-1.4-2.3-1.4-3.9
		c0-1.8,0.6-3.2,1.8-4.3c1.2-1.1,2.8-1.7,4.7-1.7c2,0,3.5,0.6,4.7,1.7C86.2,269.6,86.8,271,86.8,272.8z M80.4,274.4
		c1.1,0,1.7-0.5,1.7-1.6s-0.6-1.6-1.7-1.6c-1.1,0-1.7,0.5-1.7,1.6S79.2,274.4,80.4,274.4z"/>
	<path class="st1" d="M98,275.3c1.5,0.9,2.3,2.3,2.3,4.1c0,1.6-0.6,2.8-1.7,3.7s-2.7,1.3-4.7,1.3s-3.6-0.4-4.7-1.3
		c-1.1-0.9-1.7-2.1-1.7-3.7c0-1.8,0.8-3.1,2.3-4.1c-1.1-0.8-1.7-2-1.7-3.4c0-1.5,0.5-2.8,1.6-3.6c1.1-0.9,2.5-1.3,4.2-1.3
		s3.1,0.4,4.2,1.3c1.1,0.9,1.6,2.1,1.6,3.6C99.7,273.3,99.1,274.4,98,275.3z M92.6,279.7c0.3,0.2,0.7,0.4,1.2,0.4
		c0.5,0,0.9-0.1,1.2-0.4c0.3-0.3,0.4-0.6,0.4-1.1c0-0.4-0.1-0.8-0.4-1c-0.3-0.3-0.6-0.4-1.2-0.4s-0.9,0.1-1.2,0.4
		c-0.3,0.2-0.4,0.6-0.4,1C92.2,279.1,92.4,279.4,92.6,279.7z M93.8,271.1c-1,0-1.5,0.4-1.5,1.2c0,0.8,0.5,1.2,1.5,1.2
		c0.4,0,0.8-0.1,1.1-0.3s0.4-0.5,0.4-0.9c0-0.4-0.1-0.7-0.4-0.9S94.3,271.1,93.8,271.1z"/>
	<path class="st1" d="M113.8,272.8c0,1.2-0.3,2.3-0.9,3.3l-5,8h-5.4l3.4-5.4c-1.6-0.3-2.8-0.9-3.7-2s-1.4-2.3-1.4-3.9
		c0-1.8,0.6-3.2,1.8-4.3c1.2-1.1,2.8-1.7,4.7-1.7s3.5,0.6,4.7,1.7C113.2,269.6,113.8,271,113.8,272.8z M107.3,274.4
		c1.1,0,1.7-0.5,1.7-1.6s-0.6-1.6-1.7-1.6s-1.7,0.5-1.7,1.6S106.2,274.4,107.3,274.4z"/>
</g>
<g class="st11">
	<path class="st1" d="M122.3,284v-12.5h6.8v0.5h-6.3v12H122.3z"/>
	<path class="st1" d="M136.8,284.3c-0.8,0-1.6-0.2-2.3-0.5s-1.4-0.8-1.9-1.4s-1-1.3-1.3-2.1c-0.3-0.8-0.5-1.6-0.5-2.5
		c0-0.9,0.2-1.7,0.5-2.5s0.7-1.5,1.3-2.1c0.5-0.6,1.2-1.1,1.9-1.4c0.7-0.3,1.5-0.5,2.3-0.5c0.8,0,1.6,0.2,2.3,0.5
		c0.7,0.3,1.4,0.8,1.9,1.4c0.5,0.6,1,1.3,1.3,2.1s0.5,1.6,0.5,2.5c0,0.9-0.2,1.7-0.5,2.5c-0.3,0.8-0.7,1.5-1.3,2.1
		c-0.6,0.6-1.2,1.1-1.9,1.4C138.3,284.1,137.6,284.3,136.8,284.3z M131.3,277.9c0,1.1,0.2,2.1,0.7,3c0.5,0.9,1.1,1.6,2,2.1
		c0.8,0.5,1.7,0.8,2.7,0.8s1.9-0.3,2.7-0.8c0.8-0.5,1.5-1.3,2-2.2s0.7-1.9,0.7-3s-0.2-2.1-0.7-3s-1.2-1.6-2-2.2s-1.7-0.8-2.7-0.8
		c-1,0-1.9,0.3-2.7,0.8s-1.5,1.3-2,2.2C131.6,275.8,131.3,276.8,131.3,277.9z"/>
	<path class="st1" d="M144.4,286.9v-3.3h0.2c0.4,0,0.7-0.1,1.1-0.4c0.3-0.3,0.6-0.7,0.9-1.4s0.5-1.6,0.6-2.7
		c0.2-1.1,0.3-2.6,0.3-4.4l0.1-3.1h7.2v12h1.6v3.3h-0.5V284h-11v2.8H144.4z M145.9,283.6h8.3v-11.5H148l-0.1,2.7
		c0,1.8-0.2,3.3-0.3,4.5c-0.2,1.2-0.4,2.1-0.7,2.8C146.6,282.8,146.3,283.3,145.9,283.6z"/>
	<path class="st1" d="M158,280.5c0-0.7,0.2-1.3,0.7-1.8c0.4-0.5,1-0.9,1.8-1.2c0.8-0.3,1.7-0.5,2.7-0.5c0.7,0,1.4,0.1,2.2,0.2
		s1.4,0.3,2,0.5v-1.4c0-1.3-0.4-2.3-1.1-3.1s-1.7-1.2-3-1.2c-0.6,0-1.2,0.1-1.9,0.4c-0.7,0.3-1.4,0.6-2.1,1.1l-0.3-0.4
		c0.8-0.5,1.6-1,2.3-1.2c0.7-0.3,1.4-0.4,2-0.4c1.4,0,2.5,0.4,3.3,1.3c0.8,0.9,1.2,2,1.2,3.5v6.9c0,0.2,0,0.3,0.1,0.4
		s0.2,0.1,0.3,0.1v0.5c-0.1,0-0.2,0-0.2,0c0,0-0.1,0-0.1,0c-0.2-0.1-0.3-0.2-0.4-0.3c-0.1-0.2-0.1-0.4-0.1-0.6v-1.2
		c-0.6,0.7-1.3,1.3-2.3,1.7c-0.9,0.4-1.9,0.6-3,0.6c-0.8,0-1.4-0.2-2-0.5s-1.1-0.8-1.5-1.4C158.2,281.8,158,281.2,158,280.5z
		 M166.9,281.6c0.1-0.2,0.2-0.3,0.3-0.5c0.1-0.2,0.1-0.3,0.1-0.5v-2.5c-0.6-0.3-1.3-0.4-2-0.6s-1.4-0.2-2.2-0.2
		c-1.4,0-2.5,0.3-3.4,0.8c-0.9,0.6-1.3,1.3-1.3,2.2c0,0.6,0.2,1.2,0.5,1.7c0.3,0.5,0.7,0.9,1.3,1.2s1.1,0.4,1.8,0.4
		c1.1,0,2.1-0.2,2.9-0.6C165.8,282.8,166.5,282.3,166.9,281.6z"/>
	<path class="st1" d="M172.1,279.2v-12.4h0.5v12.4H172.1z M172.1,284v-2h0.5v2H172.1z"/>
</g>
<path class="st6" d="M117.7,46.2l-0.8,7.1h-6.5l2.3-21.8h14.7c0.6,0,1.1,0,1.6,0c0.4,0,0.8,0.1,1.1,0.4c0.6,0.4,0.8,1,0.7,1.9
	l-1,9.8c-0.1,0.8-0.5,1.5-1.1,1.9c-0.7,0.4-1.6,0.6-2.8,0.6h-8.2V46.2z M124.5,35.7h-5.7l-0.7,6.6h5.7L124.5,35.7z"/>
<polygon class="st6" points="134.1,31.5 150.2,31.5 150,33.2 149.8,35.7 140.1,35.7 139.6,39.9 148.5,39.9 148.1,43.6 139.3,43.6 
	138.7,49 148.3,49 147.9,53.3 131.8,53.3 "/>
<path class="st6" d="M166.3,49l0.2-2.4h6.5l-0.4,4.1c0,0.2-0.1,0.4-0.1,0.6c-0.1,0.2-0.1,0.4-0.2,0.5c-0.2,0.3-0.4,0.6-0.7,0.8
	s-0.7,0.4-1.1,0.5c-0.2,0.1-0.5,0.1-0.8,0.1s-0.5,0-0.8,0h-13.4c-0.3,0-0.5,0-0.8,0s-0.5-0.1-0.7-0.1s-0.4-0.1-0.5-0.2
	c-0.2-0.1-0.3-0.2-0.4-0.3c-0.1-0.1-0.3-0.2-0.3-0.4c-0.1-0.1-0.2-0.3-0.2-0.4c-0.1-0.4-0.1-0.8-0.1-1.1l1.8-16.7
	c0-0.4,0.1-0.8,0.3-1.1c0.1-0.1,0.2-0.3,0.3-0.4c0.1-0.1,0.2-0.3,0.4-0.4c0.1-0.1,0.3-0.2,0.5-0.3c0.2-0.1,0.4-0.1,0.6-0.2
	c0.3-0.1,0.5-0.1,0.8-0.1c0.2,0,0.5,0,0.8,0h13.4c0.3,0,0.5,0,0.8,0s0.5,0.1,0.7,0.1c0.4,0.1,0.7,0.2,1,0.5c0.3,0.2,0.4,0.5,0.5,0.8
	c0.1,0.2,0.1,0.3,0.1,0.5s0,0.4,0,0.6l-0.4,4.1h-6.5l0.3-2.4h-7.2L159.1,49H166.3z"/>
<polygon class="st6" points="186.7,53.3 182.5,53.3 183.3,45.9 184.3,35.7 177.2,35.7 177.4,33.9 177.7,31.5 199.3,31.5 199.1,33.2 
	198.9,35.7 191.6,35.7 190.9,43 189.8,53.3 "/>
<polygon class="st6" points="69.6,31.5 69.2,35.7 76.3,35.7 74.9,49.1 70.3,49.1 70.1,51.5 69.9,53.3 74.4,53.3 81.7,53.3 
	81.7,53.3 81.7,53.3 83.6,35.7 87.8,35.7 86,53.3 93.2,53.3 95,35.7 99,35.7 97.2,53.3 104.4,53.3 106.3,35.7 108.4,35.7 
	108.9,31.5 "/>
<g class="st11">
	<path class="st6" d="M114.9,62.3c-0.3-0.2-0.6-0.4-0.8-0.7s-0.3-0.7-0.3-1.1c0-0.5,0.1-1,0.4-1.4s0.6-0.8,1-1s0.9-0.4,1.4-0.4
		c0.7,0,1.2,0.2,1.6,0.5c0.4,0.4,0.6,0.8,0.6,1.5c0,0.5-0.1,1-0.4,1.4s-0.6,0.8-1,1c-0.4,0.2-0.9,0.4-1.4,0.4
		C115.6,62.5,115.3,62.5,114.9,62.3z M117.2,61.7c0.3-0.2,0.6-0.5,0.7-0.8c0.2-0.3,0.3-0.7,0.3-1.1c0-0.5-0.1-0.8-0.4-1.1
		s-0.7-0.4-1.1-0.4c-0.4,0-0.7,0.1-1.1,0.3c-0.3,0.2-0.6,0.5-0.7,0.8c-0.2,0.3-0.3,0.7-0.3,1.1c0,0.5,0.1,0.8,0.4,1.1
		c0.3,0.3,0.7,0.4,1.1,0.4C116.5,62,116.9,61.9,117.2,61.7z"/>
	<path class="st6" d="M125.5,61.2c-0.3,0.4-0.7,0.8-1.2,1s-1.1,0.4-1.7,0.4l-0.3,1.7h-0.6l0.3-1.7c-0.8,0-1.4-0.2-1.8-0.5
		s-0.6-0.8-0.6-1.4c0-0.5,0.1-1,0.4-1.4s0.7-0.8,1.2-1s1.1-0.4,1.7-0.4l0.4-1.9h0.6l-0.4,1.9c0.8,0,1.4,0.2,1.8,0.5
		c0.4,0.3,0.6,0.8,0.6,1.4C125.9,60.3,125.8,60.7,125.5,61.2z M120.7,61.6c0.3,0.2,0.8,0.4,1.4,0.4l0.7-3.7c-0.5,0-1,0.1-1.4,0.3
		c-0.4,0.2-0.7,0.4-0.9,0.8c-0.2,0.3-0.3,0.7-0.3,1.1C120.3,61,120.4,61.3,120.7,61.6z M124.1,61.7c0.4-0.2,0.7-0.4,0.9-0.8
		c0.2-0.3,0.3-0.7,0.3-1.1c0-0.5-0.1-0.9-0.4-1.1c-0.3-0.2-0.8-0.4-1.4-0.4l-0.7,3.7C123.2,62,123.7,61.9,124.1,61.7z"/>
	<path class="st6" d="M127.7,57.8h0.6l-0.8,3.8l3.9-3.8h0.6l-0.9,4.7h-0.7l0.8-3.8l-3.9,3.8h-0.6L127.7,57.8z"/>
	<path class="st6" d="M134,62.3c-0.3-0.2-0.6-0.4-0.8-0.7s-0.3-0.7-0.3-1.1c0-0.5,0.1-1,0.4-1.4s0.6-0.8,1-1s0.9-0.4,1.4-0.4
		c0.4,0,0.8,0.1,1.1,0.2c0.3,0.2,0.6,0.4,0.7,0.7L137,59c-0.3-0.5-0.7-0.7-1.4-0.7c-0.4,0-0.7,0.1-1.1,0.3c-0.3,0.2-0.6,0.5-0.7,0.8
		c-0.2,0.3-0.3,0.7-0.3,1.1c0,0.5,0.1,0.8,0.4,1.1c0.3,0.3,0.7,0.4,1.2,0.4c0.3,0,0.6-0.1,0.9-0.2c0.3-0.1,0.5-0.3,0.6-0.5l0.5,0.4
		c-0.2,0.3-0.5,0.5-0.8,0.7c-0.4,0.2-0.7,0.2-1.1,0.2C134.7,62.5,134.3,62.5,134,62.3z"/>
	<path class="st6" d="M139,57.8h0.6l-0.4,2.1h3l0.4-2.1h0.6l-0.9,4.7h-0.6l0.4-2.1h-3l-0.4,2.1h-0.6L139,57.8z"/>
	<path class="st6" d="M148.3,60.7c0,0.4-0.1,0.7-0.3,0.9c-0.2,0.3-0.4,0.5-0.8,0.6c-0.3,0.1-0.7,0.2-1.2,0.2h-1.9l0.9-4.7h0.6
		l-0.3,1.6h1.3C147.8,59.4,148.3,59.9,148.3,60.7z M147.2,61.7c0.3-0.2,0.4-0.5,0.4-0.9c0-0.3-0.1-0.5-0.3-0.6
		c-0.2-0.1-0.5-0.2-0.9-0.2h-1.2l-0.4,2.1h1.2C146.6,62,147,61.9,147.2,61.7z M149.7,57.8h0.6l-0.9,4.7h-0.6L149.7,57.8z"/>
	<path class="st6" d="M152.2,57.8h0.6l-0.8,3.8l3.9-3.8h0.6l-0.9,4.7h-0.7l0.8-3.8l-3.9,3.8h-0.6L152.2,57.8z M153.6,56.8
		c-0.2-0.2-0.3-0.4-0.3-0.7c0-0.1,0-0.2,0-0.2h0.4c0,0,0,0.1,0,0.1c0,0.2,0.1,0.3,0.2,0.5s0.3,0.2,0.6,0.2c0.3,0,0.5-0.1,0.7-0.2
		c0.2-0.1,0.3-0.3,0.4-0.6h0.5c-0.1,0.4-0.2,0.6-0.5,0.9c-0.3,0.2-0.6,0.3-1,0.3C154.1,57.1,153.9,57,153.6,56.8z"/>
	<path class="st6" d="M164,61.9h0.8l-0.3,1.7h-0.6l0.2-1.2h-4.3l0.9-4.7h0.6l-0.8,4.2h2.9l0.8-4.2h0.6L164,61.9z"/>
	<path class="st6" d="M166.6,60.3c0,0,0,0.1,0,0.2c0,0.5,0.1,0.8,0.4,1.1c0.3,0.3,0.7,0.4,1.2,0.4c0.3,0,0.6-0.1,0.9-0.2
		c0.3-0.1,0.5-0.2,0.7-0.4l0.3,0.5c-0.2,0.2-0.5,0.4-0.8,0.5s-0.7,0.2-1.1,0.2c-0.7,0-1.2-0.2-1.6-0.5c-0.4-0.4-0.6-0.9-0.6-1.5
		c0-0.5,0.1-1,0.3-1.4c0.2-0.4,0.5-0.8,0.9-1c0.4-0.2,0.8-0.4,1.3-0.4c0.6,0,1.1,0.2,1.5,0.5c0.4,0.4,0.6,0.8,0.6,1.5
		c0,0.2,0,0.4-0.1,0.6H166.6z M167.3,58.7c-0.3,0.3-0.6,0.7-0.7,1.1h3.4c0,0,0-0.1,0-0.2c0-0.4-0.1-0.8-0.4-1
		c-0.3-0.2-0.6-0.4-1.1-0.4C168.1,58.3,167.7,58.4,167.3,58.7z"/>
	<path class="st6" d="M172.5,57.8h0.6l-0.4,2.1h3l0.4-2.1h0.6l-0.9,4.7h-0.6l0.4-2.1h-3l-0.4,2.1h-0.6L172.5,57.8z"/>
	<path class="st6" d="M181.8,58.3H180l-0.8,4.2h-0.6l0.8-4.2h-1.8l0.1-0.6h4.2L181.8,58.3z"/>
	<path class="st6" d="M186.2,58c0.3,0.2,0.6,0.4,0.7,0.7c0.2,0.3,0.3,0.7,0.3,1.1c0,0.5-0.1,1-0.3,1.4c-0.2,0.4-0.6,0.8-1,1
		c-0.4,0.2-0.9,0.4-1.4,0.4c-0.5,0-0.8-0.1-1.1-0.3c-0.3-0.2-0.5-0.4-0.7-0.8l-0.5,2.7h-0.6l1.3-6.5h0.6l-0.2,0.8
		c0.2-0.3,0.5-0.5,0.8-0.6c0.3-0.1,0.7-0.2,1-0.2C185.5,57.7,185.9,57.8,186.2,58z M185.5,61.7c0.3-0.2,0.6-0.5,0.7-0.8
		s0.3-0.7,0.3-1.1c0-0.5-0.1-0.8-0.4-1.1c-0.3-0.3-0.7-0.4-1.1-0.4c-0.4,0-0.7,0.1-1,0.3c-0.3,0.2-0.6,0.5-0.7,0.8s-0.3,0.7-0.3,1.1
		c0,0.5,0.1,0.8,0.4,1.1c0.3,0.3,0.7,0.4,1.1,0.4C184.9,62,185.2,61.9,185.5,61.7z"/>
</g>
</svg>
